<?xml version="1.0" encoding="UTF-8"?>
<svg id="_レイヤー_2" data-name="レイヤー 2" xmlns="http://www.w3.org/2000/svg" viewBox="0 0 301.3 160.78">
  <defs>
    <style>
      .cls-1 {
        fill: #1c1c1a;
      }
    </style>
  </defs>
  <g id="_レイヤー_2-2" data-name="レイヤー 2">
    <g>
      <g id="_5" data-name="5">
        <path class="cls-1" d="M35.54,95.6c.12.24.32.45.57.65,2.86-.36,5.72-.87,8.58-1.49.1-.16.18-.31.21-.46l-.57-.82c.53.26.64.53.57.82l.25.36c.19-.04.39-.09.58-.13.69-.76,1.14-1.32,2.8-1.68-.07.47.1.75.39.93,23.45-5.79,46.81-16.78,69.22-3.43,2.82-.65.06-1.08,3.31-1.17-29.68-15.92-57.49,1.97-85.65,5.71.09.1.2.27.32.54l-.57.17Z"/>
        <path class="cls-1" d="M.83,89.06c-.97.39,1.37.91,2.59,1.38.66.38,1.32.74,1.98,1.08.03-.06.05-.12.07-.18-1.54-.67-3.09-1.42-4.64-2.27Z"/>
        <path class="cls-1" d="M19.97,96.04c0,.06,0,.12,0,.19,5,.75,10.02.7,15.04.15-.19-.14-.39-.28-.61-.41.44-.14.68-.71.91-1.01-2.11.27-4.22.46-6.34.54-.03.36-.39.23-.8.02-1.78.05-3.57.03-5.35-.08l.4,1.01-1.09-1.05c-.37-.03-.74-.06-1.11-.09.12.26.24.51.34.73-.28.11-.98-.06-1.4,0Z"/>
        <path class="cls-1" d="M19.97,96.04c-.04-.3-.15-.59-.28-.87-2.09-.25-4.18-.63-6.28-1.15-.08.04-.17.07-.25.12l.73.76c1.93.56,3.85.98,5.78,1.28.06-.08.16-.13.3-.15Z"/>
        <path class="cls-1" d="M0,105.15c.65.35,1.3.68,1.95,1,1.65-.56.83-.79-1.95-1Z"/>
        <path class="cls-1" d="M77.65,101.59c13.74-2.62,27.75-2.74,42.18,4.99-1.44-.84,1.3-.84-1.67-1.59-11.4-6.91-23.16-7.29-35.22-5.23l.02.36-.84.27.19-.52c-1.71.3-3.43.65-5.15,1.04.31.19.54.36.5.69Z"/>
        <path class="cls-1" d="M54.8,107.4c1.42-.4,2.85-.8,4.28-1.2-.05-.16-.11-.31-.18-.45-1.45.41-2.9.81-4.36,1.2.12.1.2.25.26.44Z"/>
        <path class="cls-1" d="M76.7,101.77c-.15-.14-.17-.41-.11-.75-5.4,1.23-10.85,2.8-16.35,4.36-.13.22-.2.42-.3.58,5.55-1.55,11.14-3.07,16.77-4.19Z"/>
        <path class="cls-1" d="M31.94,111.96c.41-.15,1.15-.46,1.84-.49-.03-.1-.06-.19-.09-.28-1.16.12-2.32.22-3.49.29.37.21.64.59.89.94.43-.04.87-.09,1.3-.14-.04-.12-.18-.23-.46-.31Z"/>
        <path class="cls-1" d="M1.95,106.15c-.38.13-.89.27-1.53.44,4.53,2.52,9.05,4.14,13.57,5.09.53-.32,1.02-.66,1.47-1.05-4.48-.84-8.99-2.28-13.51-4.48Z"/>
        <path class="cls-1" d="M50.71,107.96c-.03.12.04.28.24.48.63-.17,1.25-.34,1.88-.51-.08-.15-.17-.3-.27-.45-.62.16-1.23.32-1.85.48Z"/>
        <path class="cls-1" d="M15.87,110.69c-.21.35-.44.68-.7.89.15.15.29.28.43.4.94.16,1.89.3,2.83.41.33-.31.62-.74.93-1.18-1.16-.13-2.33-.31-3.5-.52Z"/>
        <path class="cls-1" d="M35.43,110.98c-.28.04-.56.07-.84.1.03.18.07.37.11.55.13.07.24.17.34.29.22-.03.45-.07.67-.11-.01-.31-.09-.59-.28-.83Z"/>
        <path class="cls-1" d="M29.26,111.52c-.26.01-.52.03-.78.04-.17.33-.33.67-.47,1.02.03.03.08.05.12.07.5-.03,1-.06,1.5-.1.13-.07.25-.16.34-.28l-.71-.75Z"/>
        <path class="cls-1" d="M37.34,110.96c-.58.09-.87.37-1,.76.33-.05.67-.11,1-.17.15-.12.29-.25.43-.39-.14-.07-.28-.14-.42-.19Z"/>
        <path class="cls-1" d="M70.29,119.51l.2.14c5.28-1.41,10.51-2.62,15.69-3.26,0-.03,0-.05-.01-.08.02.03.04.05.06.07,9.46-1.18,18.77-.49,27.96,4.18.04-.29.27-.58.87-.87.02.3-.21,1.25.36,1.38.37-.39.31-.96.31-1.48-10.55-5.07-21.07-5.5-31.64-3.94-.35.38-.77.55-1.41.22-.08.01-.16.03-.24.04,0,.03,0,.07,0,.1v-.1c-3.99.66-7.97,1.58-11.97,2.61.02.01.04.02.06.03q.03.59-.23.97Z"/>
        <path class="cls-1" d="M56.12,123.7c0-.06,0-.12,0-.19.02-.34.06-.71.09-1.08-5.16,1.42-10.35,2.76-15.57,3.72l.43,1.15c5.06-.93,10.08-2.22,15.04-3.6Z"/>
        <path class="cls-1" d="M30.42,127.46c-.66.04-1.32.08-1.98.1.19.2.21.45-.35.77-1.32-.66-2.36-.27-3.2.35,2.3.07,4.59.01,6.87-.15-.46,0-1.01-.16-1.7-.52.15-.19.26-.37.37-.55Z"/>
        <path class="cls-1" d="M59.03,122.88c.02-.38.04-.74.5-.89-.06.26-.08.52-.09.78,3.49-1,6.96-2.01,10.41-2.94l-.7-.26c.23-.34.41-.66.59-.87-4.13,1.08-8.27,2.28-12.44,3.44.16.4.34.78.57,1.07.38-.11.77-.22,1.15-.33Z"/>
        <path class="cls-1" d="M34.6,128.26c1.23-.14,2.46-.3,3.68-.49-.37-.17-.62-.47-.53-1.13-1.21.19-2.43.35-3.64.49-.06.05-.12.11-.17.16l.66.97Z"/>
        <path class="cls-1" d="M39.84,126.3c-.2.03-.39.07-.59.1.22.07.43.06.59-.1Z"/>
        <path class="cls-1" d="M32.14,128.49c.48-.04.96-.08,1.44-.12.14-.31.28-.64.27-1-.57.55-1.06,1-1.72,1.13Z"/>
        <path class="cls-1" d="M115.94,120.3l-.53.91c.67.37,1.35.76,2.02,1.17,1.19-.26-.35-.84,1.49-1.12-.53-.3-1.05-.59-1.58-.86-.05.13-.13.27-.23.42-.54.46-.58-.12-1.17-.52Z"/>
        <path class="cls-1" d="M30.21,144.57c-.07-.3-.13-.6-.2-.9-1.22.05-2.44.07-3.66.06l-.88.98c1.58,0,3.17-.04,4.74-.15Z"/>
        <path class="cls-1" d="M81.55,132.99c12.2-2.04,24.68-1.79,37.82,4.59-.31-.2-.41-.41.22-.59-12.05-7.12-24.27-7.34-36.69-5.11-.33.38-.84.73-1.35,1.1Z"/>
        <path class="cls-1" d="M31.63,144.46c16.47-1.43,32.52-8.41,49.07-11.32-.02-.26-.05-.53-.08-.81-13.72,2.78-27.67,8.24-41.83,10.45-.35.2-.71.24-1.04.16-1.75.25-3.5.45-5.26.59-.01.04-.02.08-.03.11-.45.08-.69.42-.83.82Z"/>
        <path class="cls-1" d="M19.36,144.37c.15.02.3.03.45.04.88-.31,1.94-.37,2.76-.85-1.44-.11-2.88-.29-4.32-.52.31.53.67.97,1.11,1.32Z"/>
        <path class="cls-1" d="M119.95,137.87c.19.09.38.18.57.28.06-.03-.23-.14-.57-.28Z"/>
        <path class="cls-1" d="M119.36,137.59c.16.1.38.2.59.29-.2-.1-.39-.19-.59-.29Z"/>
        <path class="cls-1" d="M117.4,153.04c.34.27,1.96,1.05,4.21,1.46-2.45-1.27-4.87-2.32-7.29-3.18,1.03.52,2.05,1.09,3.07,1.72Z"/>
        <path class="cls-1" d="M7.83,157.03c.27-.32.52-.48.76-.56-.46-.18-.91-.37-1.37-.57.05.54.14,1.04.6,1.13Z"/>
        <path class="cls-1" d="M92.2,146.88c-9.44.38-19.16,2.98-28.97,5.75-.37.49-1.15.89-1.17,1.34,9.61-2.68,19.27-5.24,29.13-5.8.43-.34.92-.73,1.01-1.28Z"/>
        <path class="cls-1" d="M92.21,146.88l.06,1.23c7.22-.29,14.55.52,22.05,3.21-7.12-3.62-14.53-4.74-22.11-4.43Z"/>
        <path class="cls-1" d="M1.82,153.49c-1.55.2.86.4-.93,1.1.38.2.76.39,1.14.58.05-.7.01-1.33-.21-1.68Z"/>
        <path class="cls-1" d="M19.17,159.27c.37.45,2.24-.05,2.4,1.33,13.64,1.08,26.98-2.87,40.43-6.62l-.54-.85c-14.14,4-28.43,8.08-42.29,6.14Z"/>
        <path class="cls-1" d="M11.96,158.01c.68,0,1.45-.19.91.99.05.09.1.17.16.23.2.05.39.1.59.15.27-.17.52-.63.74-1.04-1.09-.27-2.17-.58-3.25-.94.03.54.43.61.85.61Z"/>
        <path class="cls-1" d="M4.73,155.52c-.37-.74-.8-.21-1.21.37.46.21.91.42,1.37.61,0-.36-.04-.7-.16-.98Z"/>
      </g>
      <g>
        <path d="M131.76,42.36v.17c0,1.75-.7,2.55-1.36,2.55-.4,0-.76-.26-1.03-.73-.46-.83-1.56-1.32-2.68-1.66-.63.4-1.26.7-1.89.89-.56.17-1.03.23-1.39.23-.79,0-1.13-.33-1.13-.83,0-.56.79-1.82,1.32-1.82.1,0,.17.07.26.1.1.03.17.17.36.17.27,0,1.32-.3,6.16-3.38.03-.76.03-1.56.03-2.32,0-1.39-.03-2.75-.1-4.04-1.89.93-3.21,1.13-4.07,1.13-2.28,0-2.85-1.36-2.85-2.09,0-.13.03-.2.13-.2.13,0,.26.07.46.13.36.13,1.36.36,2.48.36,1.62,0,2.48-.43,3.74-1.06-.23-3.84-.4-5.03-2.02-5.03-.43,0-.6-.1-.6-.26,0-.23.36-.99,1.42-.99s2.65.83,2.65,2.22c0,.23,0,.5-.03.83.83.23,1.79.43,2.15.43.63.03.96.43.96.96,0,1.19-1.39,1.99-3.21,2.95,0,2.02.07,4.14.1,6.19,2.58-1.62,5.26-2.95,8.28-2.95,3.54,0,5.4,1.69,5.4,3.91,0,3.48-4.07,5.83-6.89,5.83-2.05,0-3.44-1.16-3.44-3.28,0-1.99,1.23-4.14,1.42-4.14.07,0,.1.07.1.23,0,.2-.07.5-.17.89-.17.63-.26,1.19-.26,1.72,0,1.56.79,2.62,2.48,2.62,2.48,0,4.97-1.89,4.97-4.17,0-2.02-2.25-2.75-4.14-2.75-2.85,0-5.36,1.69-7.71,3.58.03,1.29.03,2.52.07,3.61ZM127.25,42.32c.96.13,1.59.2,2.02.2.89,0,.93-.26.96-.73.07-.63.07-1.29.1-1.92-1.06.89-2.09,1.75-3.08,2.45ZM131.59,29.28c.43-.27.79-.5.99-.66.07-.07.23-.26.23-.46,0-.26-.3-.53-1.19-.99-.03.33-.03.66-.03,1.09v1.03ZM145.53,30.7c-.53.17-1.03.33-1.72.76-.23.13-.4.2-.46.2s-.1-.03-.1-.07c0-.07.1-.23.27-.4.33-.33,1.03-1.26,1.03-1.99,0-.27-.13-1.03-1.66-1.03-.79,0-1.62.3-2.32.79-.3.2-.56.33-.73.33-.07,0-.1-.03-.1-.07,0-.2,1.62-2.38,4.44-2.38,2.05,0,3.94,1.19,3.94,2.55,0,.43-.3.7-.73.89-.66.26-.66.03-1.85.4Z"/>
        <path d="M163.88,34.44c-2.25,0-3.87-.73-4.7-3.15-.1-.23-.13-.43-.13-.56,0-.1.03-.17.13-.17s.3.1.56.33c1.69,1.36,3.11,1.85,4.87,1.85,1.99,0,3.91-.6,4.7-.86-.5-1.16-.99-2.35-1.56-3.51-.93.23-1.39.33-2.15.33-3.48,0-5.13-2.42-5.13-3.28,0-.1.03-.13.1-.13.17,0,.43.2.66.3,1.06.56,2.58,1.59,4.37,1.59.33,0,.6-.03,1.39-.23-.99-1.82-2.19-3.54-3.68-5.03-1.03-.99-1.62-1.06-2.09-1.09-.26-.03-.4-.17-.4-.33,0-.26.53-.96,1.69-.96,1.75,0,2.62,1.06,5.43,7.09.3-.13.6-.26.79-.43.63-.46,1.26-.79,1.66-.79.66,0,.73.63.73.76,0,.63-.73,1.29-2.48,1.95.53,1.19,1.06,2.32,1.59,3.44,1.19-.46,1.69-.79,1.69-1.16,0-.3-.2-.7-.96-1.26-.4-.3-.6-.46-.6-.56,0-.03.03-.07.1-.07.13,0,.5.13,1.03.36,1.13.5,2.05.76,2.25.76.7,0,1.12.33,1.12.79,0,.89-2.18,1.99-3.94,2.62.66,1.32,1.36,2.62,2.12,3.81.5.76.7,1.49.7,2.12,0,1.42-.99,2.35-1.99,2.35-.53,0-.6-.33-.79-.6-.4-.56-3.38-1.39-5.79-1.39-3.21,0-4.11,1.89-4.11,2.71s.99,3.05,4.74,3.05c.93,0,1.82-.17,2.38-.33.2-.07.36-.1.56-.1.76,0,1.32.53,1.32,1.09,0,.79-1.16,1.42-3.64,1.42-5.07,0-6.75-3.05-6.75-4.74,0-.7.27-3.91,6.79-3.91,1.85,0,3.68.2,4.47.23h.07c.56,0,.83-.33.83-.76,0-.26-.07-.56-.23-.89-.56-1.16-1.09-2.42-1.62-3.71-1.79.56-4.37,1.03-6.09,1.03Z"/>
        <path d="M201.57,46.13c-1.56,0-6.95-.56-6.95-8.38,0-4.07,1.42-8.81,3.18-10.63.23-.23.4-.4.4-.46,0,0,0-.03-.03-.03-.33,0-4.14,1.59-7.38,3.28-.66.33-1.42.5-2.19.5-1.49,0-2.85-.63-2.85-1.75,0-.13.03-.33.26-.33.2,0,.46.1.7.13.5.07,1.03.17,1.62.17s1.22-.1,1.92-.33c1.56-.53,7.35-3.64,12.38-4.97.7-.17,1.23-.56,2.68-.66h.17c3.05,0,3.54,1.06,3.54,1.59s-.5,1.03-1.59,1.03c-.23,0-.5-.03-.76-.07-.56-.1-1.16-.13-1.79-.13-1.92,0-3.84.43-4.77.93-2.42,1.29-4.14,6.42-4.14,10.7,0,6.75,4.3,7.02,5.3,7.02.6,0,1.26-.1,1.95-.33.3-.1.6-.13.86-.13.89,0,1.49.5,1.49,1.09,0,1.32-2.68,1.79-4.01,1.79Z"/>
        <path d="M227.33,29.08c1.19-.4,1.62-.43,1.99-.43,1.82,0,3.38,1.16,3.38,5.53,0,6.89-3.64,10.46-7.02,10.46-.46,0-.86-.07-1.23-.2-1.46-.46-.83-1.69-1.22-2.91-.17-.56-.27-.93-.27-1.13,0-.1.03-.13.07-.13.13,0,.43.3.86.89.6.83,1.46,1.32,2.35,1.32,2.81,0,4.8-4.67,4.8-8.97,0-2.25-.53-3.81-1.92-3.81-.2,0-.99.07-2.48,1.13-1.59,3.77-4.24,9.07-6.09,12.52-.66,1.22-1.62,1.82-2.25,1.82-.43,0-.73-.23-.73-.76,0-.5.3-1.23,1.03-2.22,1.59-2.15,4.87-6.95,6.59-10.89-.99.5-3.21,1.42-4.14,1.42-1.52,0-2.58-1.06-2.58-2.42,0-1.09.2-1.19.26-1.19.17,0,.4.3.63.63.46.6,1.22.73,2.05.73,1.69,0,3.11-.4,4.44-.86.1-.3.63-2.19.63-3.64,0-1.06-.26-1.82-1.06-1.95-.4-.07-.73-.23-.73-.46,0-.46,1.39-1.13,2.09-1.13.46,0,1.72.17,1.72,2.09,0,.93-.53,2.88-1.06,4.3l-.1.26ZM241.01,37.69c-.2-.13-.6-.17-1.19-.17-.5,0-1.09.03-1.82.03s-1.03-.07-1.03-.17.4-.23.96-.33c2.32-.46,3.68-1.03,3.68-2.81,0-2.55-2.65-3.38-4.37-4.07-.73-.26-1.09-.43-1.09-.53,0-.03.17-.07.43-.07,4.4,0,7.32,2.35,7.32,5.2,0,1.69-1.03,3.08-2.22,3.08-.26,0-.46-.07-.66-.17ZM240.58,28.15c-.96-.93-2.12-1.66-3.05-2.05-.26-.1-.53-.2-.53-.3,0-.17.89-.33,1.79-.33,2.78,0,3.54,1.26,3.54,2.05,0,.56-.4,1.03-.89,1.03-.26,0-.56-.1-.86-.4ZM242.33,23.61c2.02,0,3.31.86,3.31,1.95,0,.6-.4,1.06-.93,1.06-.26,0-.53-.1-.83-.36-.99-.89-2.19-1.62-3.11-1.99-.26-.1-.53-.17-.53-.27,0,0,.7-.4,2.09-.4Z"/>
        <path d="M261.34,46.23c-.13,0-.2-.03-.2-.07,0-.1.5-.36,1.49-.66,4.74-1.49,8.31-5.03,9.97-8.15-3.28-1.52-6.95-2.19-10.4-2.19h-.26c-.99,1.62-1.82,3.11-2.62,4.37-1.36,2.15-2.75,2.95-3.84,2.95-1.49,0-2.52-1.42-2.52-2.91,0-3.21,4.57-4.9,8.08-5.2,2.05-2.95,4.21-6.46,6.29-9.77.1-.17.23-.43.23-.66,0-.43-.46-.46-.63-.46-1.39,0-2.22,2.29-3.97,2.29-.76,0-1.56-.93-1.56-1.79,0-.27.1-1.23.46-1.23.13,0,.3.13.5.3.3.26.89.53,1.39.53,1.29,0,2.19-1.89,4.24-1.89,1.09,0,2.45.73,2.45,1.66,0,.73-.76,1.39-1.22,1.89-2.85,3.01-5,6.19-6.75,9.07h.3c3.25,0,6.99.5,10.43,1.69.27-.73.4-1.39.4-1.95,0-1.29-.66-2.19-2.09-2.28-.13,0-.36-.07-.36-.27,0-.5.86-.96,1.79-.96,1.69,0,2.62,1.32,2.62,3.21,0,.89-.2,1.89-.6,2.91,1.99.83,3.84,1.92,5.4,3.31.66.6.99,1.39.99,2.02s-.3,1.09-.83,1.09c-.4,0-.93-.3-1.56-1.03-1.36-1.59-2.98-2.88-4.74-3.87-3.87,6.89-12.28,8.05-12.88,8.05ZM254.79,38.91c0,.63.33,1.19.96,1.19.99,0,2.22-1.36,4.67-4.83-3.44.43-5.63,2.25-5.63,3.64Z"/>
      </g>
      <path d="M301.3,120.65c.03.91-1.12,1.06-1.54.46l-.18-1.07c-.6-19.64-1.02-39.26-1.23-58.9-.21-19.57-1.31-39.73.24-59.24-21.19.97-42.56.26-63.77.28-20.98.02-41.96.04-62.94.06-42.29.01-84.66.78-126.94-.07l-1.01-.14c.08-.09.18-.14.3-.18-.38-.51-.17-1.42.66-1.43,6.05-.12,12.11-.21,18.16-.27,5.68-.07,11.36-.11,17.04-.12,11.01-.04,22.01-.01,33.03.03,5.52.02,11.03.06,16.55.09,5.26.02,10.53.06,15.79.09,8.81.04,17.62.08,26.42.08h7.8c5.68,0,11.35,0,17.04.01,5.43,0,10.86.01,16.29.01s10.43.01,15.65.01c2.05.01,4.11.01,6.16.01,3.62,0,7.25-.02,10.87-.04,5.55-.04,11.12-.11,16.68-.16,5.63-.04,11.27-.07,16.89-.02,6.54.04,13.08.19,19.6.49.36.01.54.26.59.52.16.09.28.23.29.47,1.23,19.69.11,39.78.32,59.53.09,8.29.21,16.56.38,24.85.22,11.55.51,23.11.86,34.66Z"/>
      <path d="M299.58,120.04l.18,1.07c-.11.12-.28.21-.5.22-21.27.78-42.67.14-63.95.14s-41.89-.08-62.84-.12c-42.26-.09-84.54.19-126.8-.3-.92-.01-1.16-1.07-.7-1.61-.32-.06-.61-.29-.62-.71-.11-5.25-.21-10.51-.29-15.76-.21-14.13-.32-28.27-.4-42.41-.12-19.29-1.06-38.91.13-58.17.01-.17.06-.29.14-.38l1.01.14c.02.07.04.14.06.23,1.02,19.29.12,38.84.23,58.17.12,19.39.42,38.78.63,58.17,0,.17-.04.29-.11.39,42.23-.29,84.48.16,126.72.26,20.95.04,41.89.07,62.84.16,21.28.09,42.68-.44,63.95.42.12,0,.22.03.32.09Z"/>
    </g>
  </g>
</svg>