<?xml version="1.0" encoding="UTF-8"?>
<svg id="_レイヤー_2" xmlns="http://www.w3.org/2000/svg" version="1.1" viewBox="0 0 728.4 1062.6">
  <!-- Generator: Adobe Illustrator 29.7.1, SVG Export Plug-In . SVG Version: 2.1.1 Build 8)  -->
  <defs>
    <style>
      .st0 {
        fill: #fff;
      }

      .st1 {
        fill: #1b462a;
      }
    </style>
  </defs>
  <g id="Objects">
    <g>
      <g>
        <path class="st1" d="M68.2,177.6C-128.3,113.1-324.8,48.5-521.4-16.1c53.8-22.5,107.7-44.9,161.6-67.4C-170.9-22.5,18.1,38.5,207,99.5c-46.3,26-92.6,52.1-138.9,78.1h0Z"/>
        <path class="st1" d="M207.1,893.6V99.4h-52.2c4.3,258.2,8.7,516.4,13.1,774.6,13.1,6.5,26.1,13.1,39.2,19.6h0Z"/>
        <path class="st1" d="M66,979.1l-587.4-190.1V-16.1C-325.6,47.9-129.8,111.8,66,175.8v803.3h0Z"/>
      </g>
      <g>
        <path class="st0" d="M67,160.2c-3.4,258.9-6.8,517.8-10.2,776.6,37-20,74-40.1,111-60.1V108.9c-33.6,17.1-67.2,34.2-100.8,51.3h0Z"/>
        <path class="st0" d="M67,160.2C-111.5,101.7-290.1,43.1-468.7-15.4c34.2-14.6,68.3-29.2,102.5-43.8C-188.1-3.1-10.1,52.9,167.9,108.9c-33.6,17.1-67.2,34.2-100.8,51.3h0Z"/>
      </g>
    </g>
  </g>
</svg>