<?xml version="1.0" encoding="UTF-8"?>
<svg id="_レイヤー_2" data-name="レイヤー 2" xmlns="http://www.w3.org/2000/svg" viewBox="0 0 1411.76 1443.94">
  <defs>
    <style>
      .cls-1 {
        fill: #387631;
      }

      .cls-2 {
        fill: #245c33;
      }

      .cls-3 {
        fill: #1a4529;
      }

      .cls-4 {
        fill: #143428;
      }

      .cls-5 {
        fill: #fef8f8;
      }
    </style>
  </defs>
  <g id="Capa_1" data-name="Capa 1">
    <g>
      <polygon class="cls-1" points="1185.87 341.65 1185.87 97.82 843.3 97.82 705.88 0 568.46 97.82 225.89 97.82 225.89 341.65 0 502.44 0 1443.94 1411.76 1443.94 1411.76 502.44 1185.87 341.65"/>
      <polygon class="cls-5" points="1185.87 621.22 851.99 796.79 705.88 693.47 562.62 816.75 225.89 628.63 225.89 97.82 1185.87 97.82 1185.87 621.22"/>
      <polygon class="cls-2" points="0 502.44 0 1443.94 572.9 884.5 0 502.44"/>
      <polygon class="cls-2" points="838.86 884.5 1411.76 1443.94 1411.76 502.44 838.86 884.5"/>
      <polygon class="cls-3" points="705.88 754.65 572.9 884.5 0 1443.94 1411.76 1443.94 838.86 884.5 705.88 754.65"/>
      <polygon class="cls-4" points="0 502.44 572.9 884.5 705.88 754.65 838.86 884.5 1411.76 502.44 851.99 796.79 705.88 693.47 562.62 816.75 0 502.44"/>
    </g>
  </g>
</svg>