<?xml version="1.0" encoding="UTF-8"?>
<svg id="_レイヤー_2" data-name="レイヤー 2" xmlns="http://www.w3.org/2000/svg" viewBox="0 0 2496.77 2386.99">
  <defs>
    <style>
      .cls-1 {
        fill: #8e0303;
      }

      .cls-2 {
        fill: #ff0d0d;
      }

      .cls-3 {
        fill: #684943;
      }

      .cls-4 {
        fill: #c00;
      }

      .cls-5 {
        fill: #8c6258;
      }

      .cls-6 {
        fill: #fff;
      }

      .cls-7 {
        fill: #b6d1d3;
      }

      .cls-8 {
        opacity: .21;
      }
    </style>
  </defs>
  <g id="Layer_1" data-name="Layer 1">
    <polygon class="cls-2" points="2114.46 1021.11 762.27 1021.11 762.27 .25 2114.46 .25 2114.46 537.78 2114.46 1021.11"/>
    <path class="cls-2" d="M2114.46.25s266.14-20.04,348.64,299.76c53.23,206.33,27.42,721.1,27.42,721.1h-376.06V.25Z"/>
    <path class="cls-4" d="M1110.91,300.13C1028.42-19.66,762.27.37,762.27.37c0,0-266.14-20.04-348.64,299.76-53.23,206.33-27.42,721.1-27.42,721.1h752.12s25.81-514.77-27.42-721.1Z"/>
    <path class="cls-1" d="M884.3,21.37c-37.84,45.73-68.41,97.55-91.22,153.98-51.87,128.32-64.1,269.31-62.53,407.71,1.67,147.2,18.4,294.2,49.66,438.05h358.13s25.81-514.77-27.42-721.1c-45.13-174.93-145.21-248.18-226.61-278.64Z"/>
    <polygon class="cls-2" points="1144.59 1021.24 0 1021.24 0 920.7 1053.45 920.7 1144.59 1021.24"/>
    <circle class="cls-4" cx="1283.13" cy="935.78" r="58.7" transform="translate(154.73 2053.28) rotate(-80.82)"/>
    <circle class="cls-7" cx="1265.21" cy="920.7" r="58.7" transform="translate(-250.59 532.39) rotate(-21.68)"/>
    <g class="cls-8">
      <path class="cls-6" d="M1278.33,146.71c175.07-17.88,350.91-28.25,526.88-31.07,32.3-.52,67.86-2.02,91.49-24.04,3.09-2.88,5.99-6.23,7.04-10.32,4.01-15.57-18.12-23.37-34.19-23.82-132.87-3.7-265.74-7.41-398.61-11.11-58.65-1.63-117.32-3.27-176-2.72-36.39.34-188.58-14.3-207,33.41-12.39,32.1,36.5,57.76,59.71,65.41,41.92,13.82,87.66,8.64,130.69,4.25Z"/>
    </g>
    <g class="cls-8">
      <path class="cls-6" d="M2028.08,129.35c21.67-.39,43.34-.79,65.01-1.18,25.42-.46,50.93-.93,76.03-4.89,21.15-3.34,41.83-9.12,62.45-14.89,2.73-.76,5.52-1.56,7.79-3.25,3.09-2.3,4.84-6.03,5.63-9.81,3.08-14.65-7.29-29.47-20.53-36.45-13.24-6.98-28.73-7.93-43.69-8.7-56.67-2.92-125.3-9.8-180,9.75-54.96,19.64-19.9,70.28,27.3,69.42Z"/>
    </g>
    <rect class="cls-5" x="1502.71" y="1021.24" width="169.25" height="1365.76"/>
    <polygon class="cls-3" points="1502.71 1021.24 1502.71 1103.72 1671.96 1220.58 1671.96 1021.24 1502.71 1021.24"/>
  </g>
</svg>