<?xml version="1.0" encoding="UTF-8"?>
<svg id="_レイヤー_2" data-name="レイヤー 2" xmlns="http://www.w3.org/2000/svg" viewBox="0 0 349.09 95.15">
  <defs>
    <style>
      .cls-1 {
        fill: #1b462a;
      }
    </style>
  </defs>
  <g id="_レイヤー_2-2" data-name="レイヤー 2">
    <g>
      <g>
        <path class="cls-1" d="M0,53.15l10,26s105-35,162,16c0,0-41-66-172-42Z"/>
        <path class="cls-1" d="M349.09,53.15l-10,26s-105-35-162,16c0,0,41-66,172-42Z"/>
      </g>
      <g>
        <path d="M74.32,8.75c2.41,4.16,7.52,9.61,12.62,11.3.17.06.26.12.26.14,0,.26-2.67.32-3.47,1-.11.09-.23.14-.34.14-.77,0-6.54-5.25-9.24-11.85,0,4.73.14,10.9.23,15.29.03.86-.86,1.09-1.29,1.09-.46,0-.86-.23-.86-.86v-.11c.23-3.47.34-8.92.37-13.57-4.48,7.77-11.88,11.3-13.05,11.3-.06,0-.09,0-.09-.03,0-.06.2-.2.6-.43,3.36-1.95,8.52-6.77,11.85-13.42h-1.29c-1.61,0-5.42.06-7.98.32h-.03c-.52,0-1.29-1.12-1.29-1.49,2.96.34,7.75.46,9.41.46h1.86c0-1.55-.06-6.54-.37-7.8-.03-.09-.03-.14-.03-.2t.03-.03c.11,0,3.36.4,3.36,1.09,0,.2-.23.43-.6.66-.66.37-.57.32-.66,1.21-.11.92-.17,2.75-.17,5.08h6.17c.2,0,.4-.11.49-.26.26-.4,1.2-1.84,1.66-1.84.06,0,.11,0,.17.03.86.32,2.58,1.89,2.58,2.44,0,.17-.14.34-.63.34h-10.27Z"/>
        <path d="M99.16,8c-.03,1-.03,2.07-.06,3.18h.17c1.92,0,4.42.75,4.42,2.29,0,.52-.37.95-.86.95-.34,0-.75-.2-1.15-.72-.66-.83-1.64-1.84-2.58-2.32-.03,2.78-.06,5.82-.06,8.61,0,1.69,0,3.3.03,4.7.03.75-.8,1.12-1.2,1.12-.43,0-.83-.29-.83-.92v-.09c.2-3.1.4-7.95.52-12.28-2.55,4.93-6.77,7.11-7,7.11-.06,0-.09-.03-.09-.06,0-.06.14-.23.46-.52,1.43-1.29,5.94-6.94,6.71-10.79v-.29c-1.12,0-2.64.03-4.27.26h-.03c-.34,0-1.15-1.09-1.15-1.41,1.95.32,4.22.4,5.48.43v-2.5c0-2.18-.06-3.38-.2-4.27-.03-.09-.03-.17-.03-.2,0-.06.03-.06.06-.06.09,0,3.13.4,3.13,1,0,.17-.17.37-.52.54-.49.26-.69.17-.75,1.09s-.11,2.47-.17,4.39h.98c.09,0,.26-.09.34-.23.26-.43.98-1.46,1.29-1.46.43,0,2.15,1.55,2.15,2.06,0,.17-.11.34-.52.34h-4.27ZM110.27,8c1.29,3.53,4.13,8.18,7.72,10.1.11.06.17.11.17.14,0,.26-1.92.26-2.81.89-.11.09-.2.14-.29.14-.29,0-3.38-4.36-4.99-10.41,0,5.65.11,13.28.2,15.69.03.8-.89,1.12-1.18,1.12-.46,0-.86-.26-.86-.95v-.06c.09-2.52.23-8.49.29-13.48-2.64,6.71-7.63,9.04-7.8,9.04-.06,0-.09-.03-.09-.06,0-.09.11-.26.37-.46,2.09-1.75,5.13-5.65,7-11.68-.89.03-1.89.09-2.93.23h-.03c-.49,0-1.2-1.06-1.2-1.43,1.72.26,3.36.37,4.7.4,0-1.89,0-5.51-.29-6.8-.03-.12-.03-.17-.03-.2s0-.03.03-.03c.6,0,3.18.57,3.18,1.09,0,.2-.17.37-.46.54-.57.34-.77.12-.83,1.23-.06.83-.09,2.35-.09,4.19h2.21c.17,0,.37-.11.46-.26.03-.03,1.06-1.75,1.49-1.75.4,0,2.58,1.63,2.58,2.38,0,.2-.14.37-.6.37h-5.94Z"/>
        <path d="M135.62,9.04c0,6.28-5.02,12.68-7.49,12.68-1.41,0-1.92-1.92-3.1-3.61-.46-.63-.69-1.55-.69-2.61,0-4.36,3.82-11.27,11.56-11.27,6.51,0,9.87,4.5,9.87,9.18,0,8.72-9.98,11.19-12.34,11.19-.26,0-.4-.06-.4-.12,0-.14.46-.37,1.29-.6,7.54-2.04,9.58-7.03,9.58-10.58,0-4.25-2.93-8.12-8.38-8.12-.34,0-.69.03-1.03.06.72.52,1.12,1.98,1.12,3.81ZM134.62,8c0-2.07-.49-2.55-1.12-2.55-.09,0-.17,0-.29.03-.09.03-.17.03-.23.03-4.42,1.26-7.2,5.57-7.2,9.32,0,2.52,1.26,4.45,2.64,4.45,1.92,0,6.2-6,6.2-11.27Z"/>
        <path d="M160.63,21.23v.14c0,1.52-.6,2.21-1.18,2.21-.34,0-.66-.23-.89-.63-.4-.72-1.35-1.15-2.32-1.43-.54.34-1.09.6-1.63.77-.49.14-.89.2-1.21.2-.69,0-.98-.29-.98-.72,0-.49.69-1.58,1.15-1.58.09,0,.14.06.23.09.09.03.14.14.32.14.23,0,1.15-.26,5.34-2.93.03-.66.03-1.35.03-2.01,0-1.21-.03-2.38-.09-3.5-1.64.8-2.78.98-3.53.98-1.98,0-2.47-1.18-2.47-1.81,0-.11.03-.17.11-.17.11,0,.23.06.4.12.32.11,1.18.32,2.15.32,1.41,0,2.15-.37,3.24-.92-.2-3.33-.34-4.36-1.75-4.36-.37,0-.52-.09-.52-.23,0-.2.32-.86,1.23-.86s2.29.72,2.29,1.92c0,.2,0,.43-.03.72.72.2,1.55.37,1.86.37.54.03.83.37.83.83,0,1.03-1.2,1.72-2.78,2.55,0,1.75.06,3.59.09,5.36,2.24-1.41,4.56-2.55,7.17-2.55,3.07,0,4.68,1.46,4.68,3.38,0,3.01-3.53,5.05-5.97,5.05-1.78,0-2.98-1-2.98-2.84,0-1.72,1.06-3.59,1.23-3.59.06,0,.09.06.09.2,0,.17-.06.43-.14.77-.14.54-.23,1.03-.23,1.49,0,1.35.69,2.27,2.15,2.27,2.15,0,4.3-1.63,4.3-3.61,0-1.75-1.95-2.38-3.59-2.38-2.47,0-4.65,1.46-6.68,3.1.03,1.12.03,2.18.06,3.13ZM156.73,21.2c.83.11,1.38.17,1.75.17.77,0,.8-.23.83-.63.06-.55.06-1.12.09-1.66-.92.77-1.81,1.52-2.67,2.12ZM160.49,9.9c.37-.23.69-.43.86-.57.06-.06.2-.23.2-.4,0-.23-.26-.46-1.03-.86-.03.29-.03.57-.03.95v.89ZM172.57,11.13c-.46.14-.89.29-1.49.66-.2.12-.34.17-.4.17s-.09-.03-.09-.06c0-.06.09-.2.23-.34.29-.29.89-1.09.89-1.72,0-.23-.11-.89-1.43-.89-.69,0-1.41.26-2.01.69-.26.17-.49.29-.63.29-.06,0-.09-.03-.09-.06,0-.17,1.41-2.07,3.84-2.07,1.78,0,3.41,1.03,3.41,2.21,0,.37-.26.6-.63.77-.57.23-.57.03-1.61.34Z"/>
        <path d="M187.88,14.37c-1.95,0-3.36-.63-4.07-2.72-.09-.2-.11-.37-.11-.49,0-.09.03-.14.11-.14s.26.09.49.29c1.46,1.18,2.7,1.61,4.22,1.61,1.72,0,3.38-.52,4.07-.75-.43-1-.86-2.04-1.35-3.04-.8.2-1.2.29-1.86.29-3.01,0-4.45-2.09-4.45-2.84,0-.09.03-.11.09-.11.14,0,.37.17.57.26.92.49,2.24,1.38,3.79,1.38.29,0,.52-.03,1.21-.2-.86-1.58-1.89-3.07-3.18-4.36-.89-.86-1.41-.92-1.81-.95-.23-.03-.34-.14-.34-.29,0-.23.46-.83,1.46-.83,1.52,0,2.27.92,4.7,6.14.26-.12.52-.23.69-.37.54-.4,1.09-.69,1.43-.69.57,0,.63.54.63.66,0,.55-.63,1.12-2.15,1.69.46,1.03.92,2.01,1.38,2.98,1.03-.4,1.46-.69,1.46-1,0-.26-.17-.6-.83-1.09-.34-.26-.52-.4-.52-.49,0-.03.03-.06.09-.06.12,0,.43.12.89.32.98.43,1.78.66,1.95.66.6,0,.97.29.97.69,0,.77-1.89,1.72-3.41,2.27.57,1.15,1.18,2.27,1.84,3.3.43.66.6,1.29.6,1.84,0,1.23-.86,2.04-1.72,2.04-.46,0-.52-.29-.69-.52-.34-.49-2.93-1.21-5.02-1.21-2.78,0-3.56,1.63-3.56,2.35s.86,2.64,4.1,2.64c.8,0,1.58-.14,2.06-.29.17-.06.32-.09.49-.09.66,0,1.15.46,1.15.95,0,.69-1,1.23-3.16,1.23-4.39,0-5.85-2.64-5.85-4.1,0-.6.23-3.38,5.88-3.38,1.61,0,3.18.17,3.87.2h.06c.49,0,.72-.29.72-.66,0-.23-.06-.49-.2-.77-.49-1-.95-2.09-1.41-3.21-1.55.49-3.79.89-5.28.89Z"/>
        <path d="M220.53,24.5c-1.35,0-6.02-.49-6.02-7.26,0-3.53,1.23-7.63,2.75-9.21.2-.2.34-.34.34-.4,0,0,0-.03-.03-.03-.29,0-3.59,1.38-6.4,2.84-.57.29-1.23.43-1.89.43-1.29,0-2.47-.54-2.47-1.52,0-.12.03-.29.23-.29.17,0,.4.09.6.11.43.06.89.14,1.41.14s1.06-.09,1.66-.29c1.35-.46,6.37-3.16,10.73-4.3.6-.14,1.06-.49,2.32-.57h.14c2.64,0,3.07.92,3.07,1.38s-.43.89-1.38.89c-.2,0-.43-.03-.66-.06-.49-.09-1-.12-1.55-.12-1.66,0-3.33.37-4.13.8-2.09,1.12-3.59,5.56-3.59,9.27,0,5.85,3.73,6.08,4.59,6.08.52,0,1.09-.09,1.69-.29.26-.09.52-.12.75-.12.77,0,1.29.43,1.29.95,0,1.15-2.32,1.55-3.47,1.55Z"/>
        <path d="M242.84,9.73c1.03-.34,1.41-.37,1.72-.37,1.58,0,2.93,1,2.93,4.79,0,5.97-3.16,9.07-6.08,9.07-.4,0-.75-.06-1.06-.17-1.26-.4-.72-1.46-1.06-2.53-.14-.49-.23-.8-.23-.97,0-.09.03-.12.06-.12.12,0,.37.26.75.77.52.72,1.26,1.15,2.04,1.15,2.44,0,4.16-4.04,4.16-7.77,0-1.95-.46-3.3-1.66-3.3-.17,0-.86.06-2.15.97-1.38,3.27-3.67,7.86-5.28,10.84-.57,1.06-1.41,1.58-1.95,1.58-.37,0-.63-.2-.63-.66,0-.43.26-1.06.89-1.92,1.38-1.86,4.22-6.02,5.71-9.44-.86.43-2.78,1.23-3.58,1.23-1.32,0-2.24-.92-2.24-2.09,0-.95.17-1.03.23-1.03.14,0,.34.26.54.54.4.52,1.06.63,1.78.63,1.46,0,2.7-.34,3.84-.75.09-.26.54-1.89.54-3.16,0-.92-.23-1.58-.92-1.69-.34-.06-.63-.2-.63-.4,0-.4,1.2-.98,1.81-.98.4,0,1.49.14,1.49,1.81,0,.8-.46,2.5-.92,3.73l-.09.23ZM254.69,17.18c-.17-.11-.52-.14-1.03-.14-.43,0-.95.03-1.58.03s-.89-.06-.89-.14.34-.2.83-.29c2.01-.4,3.18-.89,3.18-2.44,0-2.21-2.29-2.93-3.79-3.53-.63-.23-.95-.37-.95-.46,0-.03.14-.06.37-.06,3.82,0,6.34,2.04,6.34,4.5,0,1.46-.89,2.67-1.92,2.67-.23,0-.4-.06-.57-.14ZM254.32,8.92c-.83-.8-1.84-1.43-2.64-1.78-.23-.09-.46-.17-.46-.26,0-.14.77-.29,1.55-.29,2.41,0,3.07,1.09,3.07,1.78,0,.49-.34.89-.78.89-.23,0-.49-.09-.75-.34ZM255.84,4.99c1.75,0,2.87.75,2.87,1.69,0,.52-.34.92-.8.92-.23,0-.46-.09-.72-.32-.86-.77-1.89-1.41-2.7-1.72-.23-.09-.46-.14-.46-.23,0,0,.6-.34,1.81-.34Z"/>
        <path d="M272.3,24.58c-.11,0-.17-.03-.17-.06,0-.09.43-.32,1.29-.57,4.1-1.29,7.2-4.36,8.63-7.06-2.84-1.32-6.02-1.89-9.01-1.89h-.23c-.86,1.41-1.58,2.7-2.27,3.79-1.18,1.86-2.38,2.55-3.33,2.55-1.29,0-2.18-1.23-2.18-2.52,0-2.78,3.96-4.25,7-4.5,1.78-2.55,3.64-5.59,5.45-8.46.09-.14.2-.37.2-.57,0-.37-.4-.4-.54-.4-1.21,0-1.92,1.98-3.44,1.98-.66,0-1.35-.8-1.35-1.55,0-.23.09-1.06.4-1.06.12,0,.26.11.43.26.26.23.77.46,1.21.46,1.12,0,1.89-1.63,3.67-1.63.95,0,2.12.63,2.12,1.43,0,.63-.66,1.2-1.06,1.63-2.47,2.61-4.33,5.36-5.85,7.86h.26c2.81,0,6.05.43,9.04,1.46.23-.63.34-1.21.34-1.69,0-1.12-.57-1.89-1.81-1.98-.12,0-.32-.06-.32-.23,0-.43.75-.83,1.55-.83,1.46,0,2.27,1.15,2.27,2.78,0,.77-.17,1.64-.52,2.52,1.72.72,3.33,1.66,4.68,2.87.57.52.86,1.21.86,1.75s-.26.95-.72.95c-.34,0-.8-.26-1.35-.89-1.18-1.38-2.58-2.5-4.1-3.36-3.36,5.97-10.64,6.97-11.16,6.97ZM266.62,18.25c0,.54.29,1.03.83,1.03.86,0,1.92-1.18,4.04-4.19-2.98.37-4.88,1.95-4.88,3.16Z"/>
      </g>
    </g>
  </g>
</svg>