<?xml version="1.0" encoding="UTF-8"?>
<svg id="_レイヤー_2" data-name="レイヤー 2" xmlns="http://www.w3.org/2000/svg" viewBox="0 0 1466.15 2252.39">
  <g id="Layer_1" data-name="Layer 1">
    <path d="M911.11,1335.93c-.22,5.64-.87,11.07-1.74,16.5-1.08,5.21-2.17,10.42-3.69,15.63-3.47,10.2-8.03,19.32-13.67,29.08-4.34,6.73-9.33,13.46-14.33,19.76-9.12,10.42-19.1,19.97-30.17,28.21-11.5,7.38-23.01,14.55-35.16,20.62-7.38,1.08-10.85,8.25-7.16,14.76,26.7,105.28,49.71,213.15,86.39,315.82-10.64,3.47-21.49,6.08-32.12,8.46-34.51,6.51-69.68,9.55-104.84,9.55s-69.02-2.82-103.32-8.03c-.43,0-.65,0-1.08-.22h-.22c-10.2-1.73-20.4-4.56-30.6-7.59h-.43c-.22-.22-.43-.22-.65-.22,0,0-.22-.21-.43-.21h-.22c-.22-.22-.43-.22-.65-.22s-.22-.21-.43-.21c-.43,0-.43-.22-1.08-.22l-.22-.22c-6.08-1.74-12.59-3.91-18.88-5.86,27.13-75.75,58.39-149.56,83.57-225.96.87-1.95,1.74-3.91,2.39-5.86,6.08-13.24,11.5-26.7,15.84-40.59,2.39-9.33,7.38-18.88,6.51-28.44-1.08-3.04-3.26-4.77-6.29-5.86-8.25-4.56-17.36-4.99-25.83-9.55-.65-.22-1.3-.65-1.95-.87-26.05-17.8-49.71-38.85-65.33-66.64-4.34-8.68-8.46-17.36-12.37-26.47-3.47-10.21-5.86-20.84-7.16-31.69-.22-3.47-.43-6.95-.22-10.64.43-7.6,1.52-16.28,2.82-24.96,2.39-12.37,6.73-23.88,11.94-35.81,3.26-6.95,6.95-13.68,11.07-20.41,3.47-5.43,7.16-10.42,11.07-15.41,3.69-4.34,7.38-8.46,11.5-12.59,3.91-3.69,9.12-8.03,14.54-12.15,5.43-3.69,10.85-7.38,16.71-10.64,7.81-4.12,15.41-7.81,23.66-10.85,5.43-1.95,11.29-3.47,16.93-4.77.22,0,.43,0,.65-.22,8.25-1.73,17.15-2.82,25.83-3.91,5.43-.43,10.64-.65,15.85-.65,10.64.43,21.05,1.74,31.47,3.26,8.68,1.73,17.15,3.91,25.83,6.51,5.64,1.95,11.07,4.12,16.71,6.51,7.38,3.69,14.76,7.38,21.92,11.72,6.95,4.34,13.46,8.9,19.75,13.89,3.26,2.82,6.29,5.64,9.33,8.68,5.21,5.64,10.2,11.5,14.76,17.58,2.39,3.47,4.78,7.16,6.73,10.85,2.6,4.99,4.78,9.77,6.73,14.98,2.17,5.64,3.91,11.5,5.21,17.58,1.95,9.11,3.26,18.45,4.34,27.78.22,3.48.22,6.95.22,10.21Z"/>
    <path d="M1463.3,1363.5c-1.08-91.6-.87-183.63-13.03-274.8-12.16-87.47-10.85-177.55-27.78-264.38-4.56-8.69-15.63-7.82-23.88-7.59-46.02,1.73-91.82,4.77-137.83,5.64-6.07-66.63-2.82-134.14-8.25-200.99-9.34-277.62-113.74-578.46-426.31-618.84-22.58-2.39-44.93-1.08-67.72-2.39-44.72-.65-91.16.43-135,11.29-54.7,10.42-110.27,22.36-159.33,50.14-38.41,19.75-72.93,45.58-109.18,68.81-36.25,26.91-64.89,62.73-92.25,98.11-42.98,50.14-74.46,110.04-96.58,172.13-25.84,86.82-27.58,179.29-27.58,269.59-1.73,63.38-3.03,126.98,1.96,190.36.21,1.96.43,3.91.65,6.08-34.51,2.82-68.81,8.47-103.1,14.11-17.15.22-15.84,14.11-18.02,27.13-6.94,125.9-13.88,254.83-12.15,381.59-1.74,47.97-3.26,95.94-4.56,143.91-2.83,58.39-5,116.56-1.74,174.73,3.9,188.41,25.61,402.64,177.77,533.53,31.69,27.35,70.11,46.45,108.53,62.95,57.52,22.14,118.73,28.21,180.15,30.17,8.25.15,16.5.29,24.75.43,24.75.43,49.27.43,73.59.65,5.43.43,10.85.43,16.28.43,4.12.22,8.25.22,12.37.65,54.48,4.99,107.01,4.56,162.14,6.72,51.23,2.82,103.1,5.86,154.98,7.6,6.01.15,12.01.29,18.02.43,16.07.43,32.12.65,48.19.65,55.56.43,111.13-2.82,166.05-13.24,61.21-12.8,117.87-42.33,168-79.88,34.52-27.35,58.82-65.77,77.71-104.84,40.38-79.01,47.97-168.44,57.95-255.47,8.47-40.81,9.34-82.27,11.94-123.73,9.33-103.54,5.86-207.72,3.25-311.69ZM158.78,679.33c.43-136.97,15.2-278.92,96.16-393.96,27.57-38.41,57.52-75.54,90.08-109.83,79.45-69.25,176.25-121.77,281.53-137.83,68.15-15.84,139.56-14.76,208.8-8.03,51.67,9.56,102.23,29.09,148.04,54.49,150.41,87.47,209.46,265.67,229.43,429.77,8.25,51.88,13.67,104.19,17.8,156.5,1.74,33.21,3.48,66.2,5.43,99.41,1.74,18.02,1.74,36.46,4.99,54.48-3.9.43-7.81.65-11.5,1.09-19.76.65-39.07,2.38-58.82,4.77-38.85.65-77.49,0-116.13,1.3.43-10.85-2.38-24.96-2.17-31.47-3.47-47.54-3.69-95.07-8.89-142.39-4.78-53.4-11.51-106.58-19.32-159.76-9.11-50.79-19.53-102.89-43.41-149.12-35.17-60.78-89.64-111.14-153.68-140.22-233.34-96.59-484.04,128.5-490.55,362.92-12.8,95.94-11.93,192.75-6.94,289.12-50.79,1.3-101.59,2.82-152.16,4.34-7.38,0-14.75.66-22.13,1.09-.87-17.8-1.3-36.03-1.3-53.83,1.73-44.5,1.3-87.69,4.77-132.84ZM1036.56,832.14c-224.87,5.86-449.31,21.48-673.75,27.34-6.72.22-13.24.43-19.97.66-.87-121.99,1.09-245.93,29.53-365.31,22.56-98.33,93.11-179.51,174.94-235.73,168.66-108.96,392.88-25.39,435.42,174.08,27.79,102.23,31.91,209.24,46.02,314.08,1.95,28.22,5.43,56.44,7.81,84.87ZM1438.99,1578.82c-5.2,77.92-6.73,155.85-19.76,232.9-9.98,96.37-27.56,197.74-84.86,278.05-14.76,22.36-32.99,42.11-55.36,57.08-64.03,47.97-141.09,74.23-220.75,79.01-74.88,8.03-148.9,2.82-224.43.43-60.13-3.91-121.12-5.64-181.89-6.08-43.85-2.61-87.69-4.77-131.54-6.3-84.87-10.64-176.47-5.43-254.4-46.01-23.44-11.29-46.67-23.44-66.2-40.81C60.46,1996,35.06,1793.05,26.59,1610.94c-8.47-139.57-2.61-279.79,1.3-419.79,16.49-95.73,9.76-193.19,16.06-289.56,47.53-7.17,95.29-13.68,143.47-13.89,161.71-3.69,323.2-9.11,484.69-16.06,73.81-3.25,147.38-8.03,221.19-8.68,71.62-3.04,143.47-1.52,215.1-2.82,51.88-1.09,103.33-8.9,155.19-11.29,5.21.21,10.42.65,15.63.65,39.07-.21,77.92-2.38,116.77-5.86,3.48-.21,6.94-.21,10.42-.65,5.21,35.81,5.65,73.15,8.03,109.61,6.3,71.2,14.11,141.96,20.19,213.37,3.69,60.34,3.9,123.29,3.47,184.28.66,76.19,2.17,152.38.87,228.56Z"/>
    <path d="M906.76,1788.49l-.22-.22c-1.3-3.69-2.6-8.46-4.34-12.8-33.43-96.59-53.18-197.74-80.96-296.29,76.62-28,133.49-110.05,103.1-191.45-29.52-101.15-160.19-144.78-252.44-104.62-142.82,67.5-129.15,249.18,10.2,312.78-.43,1.09-.87,2.17-1.3,3.26-1.09,3.47-2.61,7.16-2.82,10.64-1.95,2.6-2.17,5.86-3.04,9.11-3.47,6.3-6.73,12.59-9.12,19.32-3.91,9.77-6.95,19.32-9.99,29.52-10.2,29.3-20.84,58.6-29.74,88.34-.87,2.17-1.52,4.34-2.17,6.51-16.06,41.03-30.17,82.7-46.02,123.94-4.12,6.08-5.21,16.5,4.34,18.45,83.57,33.21,177.55,31.91,265.25,18.45,19.32-3.91,38.85-8.03,57.52-14.33,8.25-4.12,4.78-13.45,1.95-19.97,0-.22-.22-.43-.22-.65ZM859.45,1804.77c-34.51,6.51-69.68,9.55-104.84,9.55s-69.02-2.82-103.32-8.03c-.43,0-.65,0-1.08-.22h-.22c-10.2-1.73-20.4-4.56-30.6-7.59h-.43c-.22-.22-.43-.22-.65-.22,0,0-.22-.21-.43-.21h-.22c-.22-.22-.43-.22-.65-.22s-.22-.21-.43-.21c-.43,0-.43-.22-1.08-.22l-.22-.22c-6.08-1.74-12.59-3.91-18.88-5.86,27.13-75.75,58.39-149.56,83.57-225.96.87-1.95,1.74-3.91,2.39-5.86,6.08-13.24,11.5-26.7,15.84-40.59,2.39-9.33,7.38-18.88,6.51-28.44-1.08-3.04-3.26-4.77-6.29-5.86-8.25-4.56-17.36-4.99-25.83-9.55-.65-.22-1.3-.65-1.95-.87-26.05-17.8-49.71-38.85-65.33-66.64-4.34-8.68-8.46-17.36-12.37-26.47-3.47-10.21-5.86-20.84-7.16-31.69-.22-3.47-.43-6.95-.22-10.64.43-7.6,1.52-16.28,2.82-24.96,2.39-12.37,6.73-23.88,11.94-35.81,3.26-6.95,6.95-13.68,11.07-20.41,3.47-5.43,7.16-10.42,11.07-15.41,3.69-4.34,7.38-8.46,11.5-12.59,3.91-3.69,9.12-8.03,14.54-12.15,5.43-3.69,10.85-7.38,16.71-10.64,7.81-4.12,15.41-7.81,23.66-10.85,5.43-1.95,11.29-3.47,16.93-4.77.22,0,.43,0,.65-.22,8.25-1.73,17.15-2.82,25.83-3.91,5.43-.43,10.64-.65,15.85-.65,10.64.43,21.05,1.74,31.47,3.26,8.68,1.73,17.15,3.91,25.83,6.51,5.64,1.95,11.07,4.12,16.71,6.51,7.38,3.69,14.76,7.38,21.92,11.72,6.95,4.34,13.46,8.9,19.75,13.89,3.26,2.82,6.29,5.64,9.33,8.68,5.21,5.64,10.2,11.5,14.76,17.58,2.39,3.47,4.78,7.16,6.73,10.85,2.6,4.99,4.78,9.77,6.73,14.98,2.17,5.64,3.91,11.5,5.21,17.58,1.95,9.11,3.26,18.45,4.34,27.78.22,3.48.22,6.95.22,10.21-.22,5.64-.87,11.07-1.74,16.5-1.08,5.21-2.17,10.42-3.69,15.63-3.47,10.2-8.03,19.32-13.67,29.08-4.34,6.73-9.33,13.46-14.33,19.76-9.12,10.42-19.1,19.97-30.17,28.21-11.5,7.38-23.01,14.55-35.16,20.62-7.38,1.08-10.85,8.25-7.16,14.76,26.7,105.28,49.71,213.15,86.39,315.82-10.64,3.47-21.49,6.08-32.12,8.46Z"/>
  </g>
</svg>