<?xml version="1.0" encoding="UTF-8"?>
<svg id="_レイヤー_2" data-name="レイヤー 2" xmlns="http://www.w3.org/2000/svg" viewBox="0 0 426.75 655.59">
  <g id="_レイヤー_1-2" data-name="レイヤー 1">
    <path d="M265.19,388.84c-.06,1.64-.25,3.22-.51,4.8-.32,1.52-.63,3.03-1.07,4.55-1.01,2.97-2.34,5.62-3.98,8.46-1.26,1.96-2.72,3.92-4.17,5.75-2.65,3.03-5.56,5.81-8.78,8.21-3.35,2.15-6.7,4.23-10.23,6-2.15.31-3.16,2.4-2.09,4.3,7.77,30.64,14.47,62.04,25.14,91.92-3.1,1.01-6.25,1.77-9.35,2.46-10.05,1.9-20.28,2.78-30.52,2.78s-20.09-.82-30.07-2.34c-.13,0-.19,0-.32-.06h-.06c-2.97-.5-5.94-1.33-8.91-2.21h-.13c-.06-.06-.13-.06-.19-.06,0,0-.06-.06-.13-.06h-.06c-.06-.06-.13-.06-.19-.06s-.06-.06-.13-.06c-.13,0-.13-.06-.32-.06l-.06-.06c-1.77-.51-3.66-1.14-5.5-1.71,7.9-22.05,16.99-43.53,24.32-65.77.25-.57.51-1.14.7-1.71,1.77-3.85,3.35-7.77,4.61-11.81.69-2.72,2.15-5.5,1.9-8.28-.32-.88-.95-1.39-1.83-1.71-2.4-1.33-5.05-1.45-7.52-2.78-.19-.06-.38-.19-.57-.25-7.58-5.18-14.47-11.31-19.02-19.4-1.26-2.53-2.46-5.05-3.6-7.71-1.01-2.97-1.71-6.07-2.08-9.23-.06-1.01-.13-2.02-.06-3.1.13-2.21.44-4.74.82-7.27.69-3.6,1.96-6.95,3.47-10.42.95-2.02,2.02-3.98,3.22-5.94,1.01-1.58,2.08-3.03,3.22-4.49,1.07-1.26,2.15-2.46,3.35-3.66,1.14-1.07,2.65-2.34,4.23-3.54,1.58-1.08,3.16-2.15,4.86-3.1,2.27-1.2,4.49-2.27,6.89-3.16,1.58-.57,3.29-1.01,4.93-1.39.06,0,.13,0,.19-.06,2.4-.5,4.99-.82,7.52-1.14,1.58-.13,3.1-.19,4.61-.19,3.1.13,6.13.51,9.16.95,2.53.5,4.99,1.14,7.52,1.9,1.64.57,3.22,1.2,4.86,1.89,2.15,1.07,4.3,2.15,6.38,3.41,2.02,1.26,3.92,2.59,5.75,4.04.95.82,1.83,1.64,2.72,2.53,1.52,1.64,2.97,3.35,4.3,5.12.69,1.01,1.39,2.09,1.96,3.16.76,1.45,1.39,2.84,1.96,4.36.63,1.64,1.14,3.35,1.52,5.12.57,2.65.95,5.37,1.26,8.09.06,1.01.06,2.02.06,2.97Z"/>
    <path d="M425.92,396.87c-.31-26.66-.25-53.45-3.79-79.98-3.54-25.46-3.16-51.68-8.09-76.95-1.33-2.53-4.55-2.28-6.95-2.21-13.39.5-26.72,1.39-40.12,1.64-1.77-19.39-.82-39.04-2.4-58.5C361.85,100.06,331.47,12.49,240.49.74c-6.57-.69-13.08-.31-19.71-.69-13.02-.19-26.53.13-39.3,3.29-15.92,3.03-32.1,6.51-46.37,14.59-11.18,5.75-21.23,13.27-31.78,20.03-10.55,7.83-18.89,18.26-26.85,28.56-12.51,14.59-21.67,32.03-28.11,50.1-7.52,25.27-8.03,52.19-8.03,78.47-.5,18.45-.88,36.96.57,55.41.06.57.13,1.14.19,1.77-10.04.82-20.03,2.46-30.01,4.11-4.99.06-4.61,4.11-5.24,7.9-2.02,36.65-4.04,74.17-3.54,111.07-.51,13.96-.95,27.92-1.33,41.89-.82,16.99-1.46,33.93-.51,50.86,1.14,54.84,7.45,117.19,51.74,155.29,9.22,7.96,20.41,13.52,31.59,18.32,16.74,6.44,34.56,8.21,52.44,8.78,2.4.04,4.8.08,7.2.13,7.2.13,14.34.13,21.42.19,1.58.13,3.16.13,4.74.13,1.2.06,2.4.06,3.6.19,15.86,1.45,31.15,1.33,47.19,1.96,14.91.82,30.01,1.71,45.11,2.21,1.75.04,3.5.08,5.24.13,4.68.13,9.35.19,14.03.19,16.17.13,32.35-.82,48.33-3.85,17.82-3.73,34.31-12.32,48.9-23.25,10.05-7.96,17.12-19.14,22.62-30.52,11.75-23,13.96-49.03,16.87-74.36,2.46-11.88,2.72-23.94,3.48-36.01,2.71-30.14,1.71-60.46.95-90.72ZM46.22,197.73c.13-39.87,4.42-81.18,27.99-114.67,8.02-11.18,16.74-21.99,26.22-31.97,23.12-20.16,51.3-35.44,81.94-40.12,19.84-4.61,40.62-4.3,60.78-2.34,15.04,2.78,29.76,8.47,43.09,15.86,43.78,25.46,60.97,77.33,66.78,125.09,2.4,15.1,3.98,30.33,5.18,45.55.51,9.67,1.01,19.27,1.58,28.94.51,5.24.51,10.61,1.45,15.86-1.14.13-2.27.19-3.35.32-5.75.19-11.37.69-17.12,1.39-11.31.19-22.55,0-33.8.38.13-3.16-.69-7.27-.63-9.16-1.01-13.84-1.07-27.67-2.59-41.45-1.39-15.54-3.35-31.02-5.62-46.5-2.65-14.78-5.69-29.95-12.64-43.4-10.24-17.69-26.09-32.35-44.73-40.81-67.92-28.12-140.89,37.4-142.78,105.63-3.73,27.93-3.47,56.1-2.02,84.15-14.78.38-29.57.82-44.29,1.26-2.15,0-4.29.19-6.44.32-.25-5.18-.38-10.49-.38-15.67.5-12.95.38-25.52,1.39-38.66ZM301.71,242.21c-65.45,1.71-130.78,6.25-196.11,7.96-1.96.06-3.85.13-5.81.19-.25-35.51.32-71.58,8.59-106.33,6.57-28.62,27.1-52.25,50.92-68.61,49.09-31.72,114.35-7.39,126.74,50.67,8.09,29.76,9.29,60.9,13.39,91.42.57,8.21,1.58,16.43,2.27,24.7ZM418.84,459.54c-1.51,22.68-1.96,45.36-5.75,67.79-2.91,28.05-8.02,57.55-24.7,80.93-4.3,6.51-9.6,12.26-16.11,16.62-18.64,13.96-41.07,21.61-64.25,23-21.79,2.34-43.34.82-65.33.13-17.5-1.14-35.25-1.64-52.94-1.77-12.76-.76-25.52-1.39-38.29-1.83-24.7-3.1-51.36-1.58-74.05-13.39-6.82-3.29-13.58-6.82-19.27-11.88-40.56-38.16-47.95-97.23-50.42-150.24-2.46-40.62-.76-81.44.38-122.19,4.8-27.86,2.84-56.23,4.67-84.28,13.84-2.09,27.74-3.98,41.76-4.04,47.07-1.07,94.07-2.65,141.08-4.68,21.48-.95,42.9-2.34,64.38-2.53,20.85-.89,41.76-.44,62.61-.82,15.1-.32,30.07-2.59,45.17-3.29,1.52.06,3.03.19,4.55.19,11.37-.06,22.68-.69,33.99-1.71,1.01-.06,2.02-.06,3.03-.19,1.52,10.42,1.64,21.29,2.34,31.9,1.83,20.72,4.11,41.32,5.88,62.1,1.07,17.56,1.14,35.88,1.01,53.64.19,22.18.63,44.35.25,66.53Z"/>
    <path d="M263.93,520.57l-.06-.06c-.38-1.07-.76-2.46-1.26-3.73-9.73-28.12-15.48-57.56-23.57-86.24,22.3-8.15,38.85-32.03,30.01-55.72-8.59-29.44-46.63-42.14-73.48-30.45-41.57,19.65-37.59,72.53,2.97,91.04-.13.32-.25.63-.38.95-.32,1.01-.76,2.08-.82,3.1-.57.76-.63,1.7-.88,2.65-1.01,1.83-1.96,3.66-2.65,5.62-1.14,2.84-2.02,5.62-2.91,8.59-2.97,8.53-6.07,17.06-8.66,25.71-.25.63-.44,1.26-.63,1.89-4.68,11.94-8.78,24.07-13.39,36.08-1.2,1.77-1.52,4.8,1.26,5.37,24.32,9.67,51.68,9.29,77.2,5.37,5.62-1.14,11.31-2.34,16.74-4.17,2.4-1.2,1.39-3.92.57-5.81,0-.06-.06-.13-.06-.19ZM250.16,525.31c-10.05,1.9-20.28,2.78-30.52,2.78s-20.09-.82-30.07-2.34c-.13,0-.19,0-.32-.06h-.06c-2.97-.5-5.94-1.33-8.91-2.21h-.13c-.06-.06-.13-.06-.19-.06,0,0-.06-.06-.13-.06h-.06c-.06-.06-.13-.06-.19-.06s-.06-.06-.13-.06c-.13,0-.13-.06-.32-.06l-.06-.06c-1.77-.51-3.66-1.14-5.5-1.71,7.9-22.05,16.99-43.53,24.32-65.77.25-.57.51-1.14.7-1.71,1.77-3.85,3.35-7.77,4.61-11.81.69-2.72,2.15-5.5,1.9-8.28-.32-.88-.95-1.39-1.83-1.71-2.4-1.33-5.05-1.45-7.52-2.78-.19-.06-.38-.19-.57-.25-7.58-5.18-14.47-11.31-19.02-19.4-1.26-2.53-2.46-5.05-3.6-7.71-1.01-2.97-1.71-6.07-2.08-9.23-.06-1.01-.13-2.02-.06-3.1.13-2.21.44-4.74.82-7.27.69-3.6,1.96-6.95,3.47-10.42.95-2.02,2.02-3.98,3.22-5.94,1.01-1.58,2.08-3.03,3.22-4.49,1.07-1.26,2.15-2.46,3.35-3.66,1.14-1.07,2.65-2.34,4.23-3.54,1.58-1.08,3.16-2.15,4.86-3.1,2.27-1.2,4.49-2.27,6.89-3.16,1.58-.57,3.29-1.01,4.93-1.39.06,0,.13,0,.19-.06,2.4-.5,4.99-.82,7.52-1.14,1.58-.13,3.1-.19,4.61-.19,3.1.13,6.13.51,9.16.95,2.53.5,4.99,1.14,7.52,1.9,1.64.57,3.22,1.2,4.86,1.89,2.15,1.07,4.3,2.15,6.38,3.41,2.02,1.26,3.92,2.59,5.75,4.04.95.82,1.83,1.64,2.72,2.53,1.52,1.64,2.97,3.35,4.3,5.12.69,1.01,1.39,2.09,1.96,3.16.76,1.45,1.39,2.84,1.96,4.36.63,1.64,1.14,3.35,1.52,5.12.57,2.65.95,5.37,1.26,8.09.06,1.01.06,2.02.06,2.97-.06,1.64-.25,3.22-.51,4.8-.32,1.52-.63,3.03-1.07,4.55-1.01,2.97-2.34,5.62-3.98,8.46-1.26,1.96-2.72,3.92-4.17,5.75-2.65,3.03-5.56,5.81-8.78,8.21-3.35,2.15-6.7,4.23-10.23,6-2.15.31-3.16,2.4-2.09,4.3,7.77,30.64,14.47,62.04,25.14,91.92-3.1,1.01-6.25,1.77-9.35,2.46Z"/>
  </g>
</svg>