<?xml version="1.0" encoding="UTF-8"?>
<svg id="_レイヤー_2" data-name="レイヤー 2" xmlns="http://www.w3.org/2000/svg" viewBox="0 0 593.09 609.57">
  <defs>
    <style>
      .cls-1 {
        fill: #1d1d1b;
      }
    </style>
  </defs>
  <g id="_レイヤー_1-2" data-name="レイヤー 1">
    <g>
      <path class="cls-1" d="M68.5,93.43c-21.03,25.95-37.1,55.57-48.29,87.01C8.81,212.44,2.51,246.19.62,280.08c-1.86,33.23.47,66.83,7.07,99.46,6.16,30.44,16.19,60.18,30.12,87.96,13.67,27.27,31.27,52.79,52.99,74.27,21.43,21.2,46.86,38.21,75.08,48.92,32.46,12.32,67.42,17.85,102.03,18.75,35.28.92,70.85-3.03,105.02-11.88,31.94-8.27,62.54-21.25,90.31-39.11,27.17-17.47,51.58-39.24,72-64.27,21.29-26.1,39.27-55.68,48.67-88.21,10.09-34.92,11.25-72.05,6.45-107.94-3.79-28.36-10.74-56.44-20.27-83.41-8.97-25.41-20.4-50-34.48-72.99-13.63-22.26-29.76-43.08-48.32-61.46-18.28-18.1-38.96-33.87-61.48-46.33-23.11-12.79-48.12-22.11-73.96-27.6-28.13-5.98-57.1-7.51-85.75-5.27-14.72,1.15-29.53,3.05-43.92,6.4-14.19,3.31-28.08,7.89-41.64,13.21-29.3,11.5-57.82,26.32-82.9,45.46-10.61,8.1-20.7,17.01-29.16,27.38-2.28,2.8,1.7,6.82,4,4,18.14-22.25,43.24-38.66,68.26-52.18,26.28-14.2,54.49-25.88,83.66-32.57,28.19-6.47,57.97-8.29,86.8-6.37,26.63,1.77,52.99,7.33,77.97,16.77,23.67,8.94,45.95,21.45,66.11,36.72,20.12,15.24,38.05,33.34,53.62,53.18,16.07,20.47,29.57,42.96,40.67,66.48,11.44,24.22,20.27,49.65,26.73,75.64,7.8,31.38,12.38,63.62,10.81,96.01-.87,17.88-3.59,35.68-8.52,52.9-4.79,16.72-11.83,32.45-20.57,47.47-16.06,27.58-36.5,52.53-60.32,73.76-23.68,21.1-50.71,38.42-79.8,51.07-30.92,13.46-64.3,21.51-97.77,25.25-34.63,3.86-70,3.25-104.31-3.02-31.09-5.69-61.23-16.01-87.7-33.52-24.81-16.42-45.91-38.14-62.93-62.46-17.39-24.85-30.78-52.4-40.43-81.11-9.95-29.59-15.89-60.39-18.1-91.52-2.37-33.33-.62-67.03,5.83-99.83,6.42-32.65,17.45-64.45,33.66-93.54,7.66-13.74,16.43-26.88,26.33-39.11,2.27-2.8-1.71-6.83-4-4Z"/>
      <path class="cls-1" d="M91.14,112.89c-19.12,23.6-33.73,50.53-43.91,79.11-10.35,29.08-16.07,59.75-17.79,90.54-1.69,30.19.43,60.72,6.43,90.37,5.6,27.66,14.72,54.68,27.37,79.92,12.42,24.78,28.42,47.96,48.15,67.49,19.49,19.28,42.62,34.74,68.28,44.48,29.49,11.19,61.26,16.22,92.7,17.04,32.05.83,64.37-2.76,95.42-10.79,29.02-7.51,56.82-19.31,82.06-35.54,24.69-15.87,46.87-35.65,65.42-58.39,19.36-23.73,35.71-50.62,44.25-80.2,9.17-31.74,10.22-65.48,5.86-98.1-3.45-25.76-9.76-51.26-18.41-75.76-8.15-23.09-18.54-45.44-31.33-66.33-12.39-20.23-27.05-39.15-43.91-55.85-16.61-16.45-35.4-30.78-55.87-42.11-21-11.62-43.73-20.1-67.21-25.08-25.56-5.43-51.89-6.83-77.93-4.79-13.39,1.05-26.85,2.77-39.95,5.82-12.88,3-25.5,7.16-37.81,11.99-26.63,10.45-52.54,23.91-75.32,41.3-9.65,7.37-18.83,15.46-26.52,24.9-2.28,2.8,1.7,6.82,4,4,16.46-20.19,39.22-35.07,61.92-47.34,23.84-12.88,49.43-23.48,75.89-29.55,25.58-5.87,52.59-7.51,78.74-5.77,24.16,1.61,48.06,6.65,70.72,15.21,21.47,8.11,41.67,19.46,59.96,33.31,18.24,13.82,34.51,30.25,48.63,48.24,14.57,18.57,26.82,38.97,36.89,60.3,10.37,21.97,18.38,45.04,24.24,68.61,7.07,28.47,11.23,57.72,9.8,87.1-.79,16.21-3.25,32.34-7.73,47.96-4.34,15.16-10.72,29.42-18.65,43.04-14.57,25.03-33.11,47.65-54.73,66.92-21.48,19.15-46.01,34.85-72.4,46.33-28.03,12.2-58.3,19.5-88.63,22.89-31.42,3.51-63.51,2.96-94.64-2.73-28.21-5.16-55.55-14.52-79.56-30.41-22.49-14.88-41.62-34.57-57.04-56.61-15.77-22.54-27.92-47.53-36.68-73.58-9.02-26.84-14.42-54.78-16.42-83.02-2.15-30.24-.56-60.81,5.29-90.57,5.82-29.62,15.82-58.47,30.54-84.87,6.94-12.45,14.89-24.37,23.87-35.45,2.27-2.8-1.71-6.83-4-4Z"/>
      <path class="cls-1" d="M268.06,338.07s0,0,0,0c5.86,4.06,13.47,4.5,20.57,3.92,4.01-.33,8.21-1.02,11.33-3.55,3.53-2.86,5.01-7.48,6.32-11.83,1.4-4.66,2.81-9.4,2.82-14.27.04-15.95-20.84-22.96-33.39-15.82-14.11,8.04-24.05,30.2-7.66,41.55Z"/>
      <path class="cls-1" d="M275.31,127.37c.69,10.94,1.19,21.89,1.56,32.85.36,10.8.59,21.6.76,32.41.16,10.66.25,21.33.34,31.99.09,10.7.17,21.4.31,32.1.14,10.91.35,21.82.68,32.72.04,1.37.08,2.73.13,4.1.05,1.48,1.27,2.9,2.83,2.83,1.49-.07,2.88-1.24,2.83-2.83-.36-10.88-.59-21.76-.75-32.64-.16-10.76-.25-21.53-.34-32.3-.09-10.66-.17-21.33-.31-31.99-.14-10.73-.35-21.46-.68-32.19-.34-10.98-.8-21.95-1.44-32.92-.08-1.38-.16-2.75-.25-4.13-.09-1.47-1.23-2.9-2.83-2.83-1.45.07-2.93,1.25-2.83,2.83h0Z"/>
      <path class="cls-1" d="M297.61,325.48c7.82-.46,15.66-.81,23.49-1.12,8.21-.32,16.42-.58,24.64-.82,8.34-.25,16.68-.49,25.02-.75,8.33-.26,16.66-.55,24.99-.91,8.14-.35,16.28-.76,24.41-1.29,1-.07,2.01-.13,3.01-.2,1.47-.1,2.9-1.23,2.83-2.83-.06-1.44-1.25-2.93-2.83-2.83-8.1.55-16.2.99-24.3,1.35-8.35.37-16.7.67-25.06.94-8.35.27-16.7.51-25.05.76-8.21.24-16.41.5-24.61.8-7.89.29-15.77.63-23.65,1.07-.96.05-1.93.11-2.89.17-1.47.09-2.9,1.24-2.83,2.83.07,1.46,1.25,2.92,2.83,2.83h0Z"/>
      <path class="cls-1" d="M32.34,333.78c9.08.52,18.24-1.05,26.83-4.59,2.66-1.1,5.35-2.44,7.34-4.81,2-2.37,3.17-5.99,2.25-9.16-1.3-4.49-5.85-6.13-9.8-6.85-6.87-1.26-18.49-3.01-25.43-2.54l-1.19,27.95Z"/>
      <path class="cls-1" d="M563.3,316.17c-8.25,1.33-16.85-.64-24.1-5.52-2-1.35-4.1-3.28-4.29-6.02-.22-3.04,2-5.49,4.16-7.13,6.4-4.84,14.18-7.06,21.73-6.19l2.5,24.86Z"/>
      <path class="cls-1" d="M287.63,32.95c-.36,5.09.4,10.19.28,15.28-.13,5.1-1.3,10.47-4.85,14.13-3.55,3.66-9.98,4.82-13.76,1.4-2.63-2.38-3.36-6.16-3.94-9.66-1.21-7.33-2.43-14.66-3.64-21.99l25.91.83Z"/>
      <path class="cls-1" d="M323.98,576.03c1.17-7.83-.8-21.9-3.13-29.47-1.06-3.46-2.54-6.89-5.09-9.46-2.55-2.57-6.35-4.12-9.85-3.21-4.92,1.27-7.51,6.6-8.95,11.47-2.93,9.9-3.7,21.95-2.42,32.2l29.43-1.53Z"/>
    </g>
  </g>
</svg>