<?xml version="1.0" encoding="UTF-8"?>
<svg id="_レイヤー_2" data-name="レイヤー 2" xmlns="http://www.w3.org/2000/svg" viewBox="0 0 5162 2864.29">
  <g id="Design">
    <path d="M1426.49,2864.29c-72.74,0-145.79-26.23-199.55-58.34-62.16-37.12-116.64-86.17-169.31-133.59-31.43-28.3-63.93-57.56-97.59-83.84-175.47-136.95-403.44-205.83-625.38-189.15-110.57,8.35-218.52,37.29-320.86,86.04-4.82,2.27-10.57.24-12.86-4.57-2.29-4.81-.25-10.56,4.56-12.86,104.49-49.76,214.75-79.32,327.71-87.85,226.67-17.12,459.49,53.3,638.7,193.18,34.2,26.69,66.96,56.19,98.63,84.71,51.99,46.81,105.75,95.2,166.29,131.37,83.77,50.03,216.43,85.39,314.62,20.29,7.54-4.99,14.74-10.52,21.58-16.56-125.68-68.31-208.6-194.71-205.2-324.1,1.66-63.36,31.39-125.92,75.73-159.41,31.7-23.95,68.62-31.44,106.75-21.68,24.25,6.21,46.98,19.68,65.75,38.96,49.1,50.44,60.67,119.42,65.26,173.88,10.04,119.07-17.8,221.9-75.67,287.01,16.12,7.57,32.82,14.11,50.04,19.5,167.26,52.29,340.53,3.18,456.43-47.23,105.37-45.84,204.56-108.66,300.49-169.42,35.76-22.65,72.74-46.07,109.56-68.31,3.78-2.29,7.59-4.58,11.43-6.85-230.44-48.85-381.41-144-398.63-155.22-143.84-31.22-310.41-178.22-375.55-240.17-22.82-21.7-35.93-50.93-36.93-82.29l-27.56-863.33c-.03-.69.01-1.38.13-2.06t0,0s0-.02,0-.04t0,0s.01-.03,0-.05c0-.01,0-.03,0-.05,0,0,0-.01,0-.02,0-.04.01-.07.02-.11h0c.08-.42.2-.84.34-1.24h0s0-.03,0-.04c0,0,0,0,0,0,0-.02.01-.04.01-.04,0-.01,0-.02.01-.04h0s.01-.04.02-.06c0,0,.01-.01.01-.03,0-.02,0-.03.02-.05,0-.02.01-.04.01-.04,0-.02,0-.03.02-.04,0-.01,0-.03.01-.04h0c.1-.25.21-.5.33-.75,44.55-89.09,195.6-160.17,229.78-175.35,10.3-24.72,17.44-52.87,20.01-84.95,1.67-20.83.95-42.86-2.2-67.34-5.71-44.39-11.27-157,60.12-243.63,52.09-63.21,134.12-98.85,243.82-105.93,105.09-6.74,210.7,12.99,305.51,57.18l5.92,2.79c173.4,82.73,289.73,254.77,303.6,448.98l18.85,263.93,207.38,153.28c4.5-11.11,13.44-26.54,30.37-37,21.62-13.35,49.82-14.8,83.78-4.32,109.87,33.92,225.64,21.14,317.59-35.07,66.74-40.8,122.96-96.18,162.6-160.16,41.04-66.25,64.9-143.25,71.01-221.7-89.86,1.29-180.23-27.17-243.43-95.99-44.94-48.94-80.59-128.67-45.83-205.65,18.71-41.47,55.03-69.74,97.14-75.61,64.93-9.06,127.58,37.12,167.41,123.57,33.34,72.38,48.2,153.38,45.13,233.77,52.28-3.27,103.6-16.64,147.74-37.52,139.2-65.83,237.53-195.6,307.65-301.31,20.08-30.28,39.9-61.64,59.07-91.97,58.59-92.71,119.17-188.57,196.79-268.85,164.49-170.09,414.03-259,667.37-237.82,5.31.44,9.26,5.11,8.81,10.42-.43,5.3-4.97,9.3-10.41,8.81-247.71-20.72-491.41,66.03-651.9,232.01-76.24,78.85-136.28,173.85-194.35,265.74-19.22,30.42-39.1,61.87-59.3,92.33-71.5,107.79-171.97,240.22-315.47,308.08-46.84,22.15-101.44,36.2-157.07,39.34-6.08,82.25-30.92,163.07-73.95,232.52-41.22,66.52-99.64,124.08-168.94,166.45-96.66,59.11-218.19,72.59-333.35,37.04-28.41-8.78-51.29-8-67.95,2.3-19.42,11.99-24.77,33.34-25.63,37.36v810.23c0,42.26-13.03,82.8-37.68,117.25-48.6,67.96-122.57,152.45-198.97,168.97-10.35,2.24-21.15-.27-29.63-6.89-8.81-6.87-14.08-17.21-14.44-28.37l-27.76-850.89c-3.12-.39-6.99-.87-11.55-1.46-18.62.45-38-1.83-58.09-6.94-3.72-.95-7.46-1.99-11.2-3.12-219.53-34.76-779.39-148.54-999.08-429.38l26.57,832.28c.83,26.26,11.83,50.74,30.94,68.93,62.87,59.79,221.79,200.27,359.27,233.67l33.89-118.6-46.78-23.4c-17.6-8.79-27.64-27.81-24.97-47.3l22.42-164.44c1.4-10.26-2.02-20.32-9.38-27.63-26.1-25.88-83.58-94.8-53.61-175.44,13.7-36.88,41.81-65.33,79.14-80.11,38.31-15.17,81.35-13.4,118.11,4.86,49.8,24.73,106.35,81.4,92.9,210.91-1.9,18.34-9.21,35.19-21.13,48.72-13.34,15.14-30.04,27.4-49.66,36.43-11.15,5.13-18.35,16.64-18.35,29.35v167.01c0,9.24-4,18.02-10.99,24.07-6.98,6.06-16.23,8.77-25.38,7.47l-33.85-4.83-34.32,120.11c31.06,19.54,183.78,110.14,408.93,153.99,33.57-18.38,69.11-33.96,107.18-39.23,55.62-7.75,124.5,10.49,153.06,68.51,1.47,2.98,1.29,6.51-.45,9.34-1.75,2.83-4.83,4.55-8.16,4.57-89.6.38-172.88-8.65-248.39-22.94-10.02,5.64-20.01,11.58-30.02,17.62-36.65,22.14-73.54,45.51-109.22,68.11-96.55,61.14-196.38,124.38-303.11,170.81-118.91,51.73-296.97,102.05-469.89,47.95-20.29-6.34-39.87-14.12-58.58-23.16-9.13,8.6-18.89,16.38-29.25,23.25-41.53,27.52-88.51,38.53-135.62,38.53ZM1518.35,2303.1c-22.47,0-43.93,7.38-63.15,21.9-39.22,29.62-66.57,87.69-68.07,144.52-3.2,121.82,79.54,244.88,200.62,309.28,56.74-60.78,84.15-160.23,74.35-276.42-4.32-51.26-15.03-116-59.86-162.05-16.29-16.73-35.9-28.39-56.71-33.72-9.17-2.35-18.26-3.51-27.19-3.51ZM2589.84,2506.58c63,10.72,131.19,17.57,203.62,18.22-27.92-38.3-80.87-50-124.68-43.97-27.57,3.82-53.56,13.35-78.95,25.75ZM2814.3,1640.86l27.89,855.21c.18,5.42,2.74,10.44,7.02,13.78,4.02,3.14,8.89,4.3,13.69,3.24,74.1-16.02,149.19-107.96,187.36-161.34,22.29-31.15,34.08-67.81,34.08-106.02v-770.7c-41.35,55.37-132.71,102.16-164.55,117.33-20.45,9.74-36.85,18.43-51.62,27.34-16.96,10.22-34.95,17.29-53.87,21.16ZM2180.29,2206.78l40.64,5.79c3.64.54,7.22-.53,10.01-2.94,2.79-2.43,4.33-5.79,4.33-9.5v-167.01c0-20.22,11.61-38.62,29.59-46.89,17.14-7.89,31.69-18.53,43.23-31.65,9.26-10.51,14.93-23.63,16.42-37.96,9.88-95.14-17.81-159.61-82.29-191.63-31.87-15.83-69.2-17.35-102.42-4.2-32.17,12.75-56.38,37.21-68.15,68.9-25.12,67.59,19.98,126.13,49.11,155.01,11.53,11.43,17.11,27.85,14.92,43.93l-22.42,164.44c-1.54,11.32,4.28,22.34,14.48,27.44l52.54,26.28ZM2715.82,1614.53c30,4.91,53.62,8.31,69.1,10.41,26.37-1,50.88-8.26,73.28-21.78,15.32-9.24,32.25-18.21,53.29-28.24,73.43-34.99,155.31-88.53,171.42-136.55l-200.19-147.97,6.33,126.56c1.82,36.44-17.33,71.24-48.79,88.65-37.44,20.71-74.72,27.07-107.81,18.45-55.56-14.5-92.19-68.38-87.08-128.11,3.4-39.83,8.02-112.43,5.79-194.13-41.27-13.47-90.33-29.2-148.63-47.52l-331.9-116.61c62.39,101.21,323.2,505.92,545.18,576.82ZM1720.73,1180.15c184.28,252.14,663.1,372.88,918.61,420.93-210.41-120.51-426.28-456.91-484.46-551.96l1.63,63.68c1.3,50.55-28.79,96.84-74.88,115.19-31.55,12.56-59.46,13.27-82.98,2.15-25.95-12.29-45.58-38.84-58.32-78.93-2.77-8.71-4.17-17.69-4.17-26.68l-7.3-93.68c-58.34,101.4-168.7,138.83-208.13,149.3ZM2671.06,1208.35c1.54,74.21-2.44,142.2-6.46,189.25-4.23,49.53,27.04,95.88,72.74,107.8,28.6,7.48,60.11,1.86,93.58-16.66,25.06-13.87,40.32-41.67,38.86-70.8l-7.07-141.36c-11.62-5.37-53.71-22.88-191.65-68.24ZM2670.5,1187.84c117.55,38.54,168.72,57.86,190.79,67.1l-18-252.07c-13.38-187.29-125.53-353.19-292.68-432.94l-5.74-2.71c-91.89-42.83-194.27-62-296.12-55.42-104.17,6.72-181.61,40.01-230.17,98.94-66.6,80.81-61.26,186.99-55.87,228.89,3.32,25.83,4.08,49.17,2.29,71.35-2.59,32.24-9.6,60.81-19.75,86.11.3.81.48,1.66.55,2.54l9.65,124.15c.03,7.76,1.13,14.77,3.29,21.59,11.05,34.77,27.26,57.42,48.18,67.33,18.47,8.73,41.22,7.86,67.59-2.64,38.61-15.37,63.82-54.25,62.73-96.76l-6.78-264.43c-2.03-79.05,58.9-146.57,135.83-150.52,118.48-6.16,257.97,87.44,263.86,91.43,104.15,67.7,135.01,243.21,140.36,398.07ZM2153.91,1011.38l354.72,124.63c55.05,17.3,101.94,32.3,141.83,45.29-6.02-145.6-35.18-313.17-130.99-375.45-1.54-1.04-140.09-93.94-252.2-88.24-66.57,3.42-119.3,62.07-117.54,130.76l4.18,163.01ZM1912.14,1022.11c-47.62,23.18-143.91,75.4-187.42,137.19,42.64-12.06,136.43-47.72,187.42-137.19ZM3578.59,601.33c-4.54,0-9.19.32-13.94.98-34.98,4.88-66.48,29.58-82.22,64.44-30.89,68.43,1.68,140.26,42.46,184.67,59.53,64.83,145.21,90.92,230.36,89.87,3.18-77.85-11.09-156.34-43.38-226.44-12.74-27.65-58.41-113.52-133.28-113.52Z"/>
  </g>
</svg>