<?xml version="1.0" encoding="UTF-8"?>
<svg id="_レイヤー_2" data-name="レイヤー 2" xmlns="http://www.w3.org/2000/svg" viewBox="0 0 1573.76 1617.5">
  <defs>
    <style>
      .cls-1 {
        fill: #1d1d1b;
      }
    </style>
  </defs>
  <g id="Layers">
    <g>
      <path class="cls-1" d="M181.75,247.92c-55.79,68.86-98.44,147.47-128.14,230.87C23.38,563.7,6.67,653.27,1.64,743.19c-4.93,88.17,1.24,177.34,18.76,263.91,16.35,80.78,42.97,159.68,79.91,233.4,36.26,72.36,82.98,140.07,140.61,197.08,56.85,56.25,124.34,101.39,199.23,129.81,86.12,32.69,178.9,47.37,270.74,49.77,93.62,2.44,188-8.05,278.68-31.52,84.76-21.94,165.94-56.4,239.64-103.78,72.1-46.36,136.87-104.12,191.05-170.54,56.5-69.26,104.21-147.75,129.14-234.06,26.77-92.67,29.85-191.18,17.11-286.42-10.07-75.25-28.51-149.75-53.78-221.32-23.81-67.42-54.13-132.67-91.48-193.67-36.17-59.07-78.97-114.32-128.21-163.09-48.51-48.04-103.37-89.87-163.13-122.94-61.32-33.94-127.69-58.67-196.24-73.24C859.01.73,782.13-3.35,706.12,2.61c-39.07,3.06-78.35,8.09-116.54,16.99-37.66,8.77-74.52,20.93-110.49,35.05-77.76,30.5-153.44,69.84-219.96,120.62-28.16,21.5-54.93,45.13-77.37,72.65-6.05,7.42,4.5,18.09,10.61,10.61,48.14-59.05,114.73-102.59,181.12-138.47,69.74-37.69,144.58-68.68,221.99-86.44,74.81-17.16,153.83-21.99,230.32-16.9,70.67,4.7,140.61,19.45,206.89,44.49,62.8,23.72,121.92,56.92,175.41,97.44,53.38,40.44,100.97,88.48,142.28,141.11,42.63,54.32,78.47,113.99,107.93,176.39,30.35,64.27,53.79,131.75,70.92,200.71,20.69,83.27,32.86,168.82,28.68,254.76-2.31,47.45-9.52,94.66-22.61,140.37-12.7,44.37-31.39,86.11-54.58,125.96-42.61,73.19-96.85,139.38-160.07,195.72-62.83,56-134.57,101.94-211.75,135.52-82.06,35.7-170.63,57.08-259.43,66.99-91.89,10.25-185.74,8.63-276.79-8.02-82.5-15.09-162.47-42.47-232.71-88.95-65.84-43.57-121.83-101.19-166.99-165.73-46.13-65.93-81.66-139.04-107.28-215.23-26.39-78.52-42.15-160.25-48.02-242.84-6.28-88.44-1.64-177.85,15.48-264.9,17.03-86.63,46.29-171.01,89.32-248.22,20.32-36.46,43.59-71.33,69.87-103.77,6.02-7.44-4.53-18.11-10.61-10.61Z"/>
      <path class="cls-1" d="M241.85,299.55c-50.73,62.62-89.51,134.07-116.52,209.92-27.47,77.15-42.65,158.54-47.22,240.24-4.48,80.12,1.14,161.13,17.06,239.79,14.86,73.4,39.06,145.09,72.62,212.07,32.95,65.74,75.41,127.27,127.77,179.08,51.71,51.16,113.08,92.18,181.19,118.04,78.25,29.7,162.55,43.03,245.99,45.21,85.05,2.22,170.82-7.32,253.2-28.64,77.01-19.93,150.78-51.25,217.74-94.3,65.51-42.12,124.37-94.6,173.6-154.94,51.38-62.98,94.76-134.33,117.43-212.81,24.33-84.23,27.13-173.76,15.55-260.32-9.14-68.35-25.89-136.02-48.84-201.03-21.63-61.27-49.19-120.57-83.13-176.01-32.87-53.68-71.77-103.89-116.52-148.21-44.08-43.66-93.95-81.67-148.25-111.73-55.73-30.84-116.04-53.33-178.34-66.56-67.83-14.41-137.7-18.13-206.77-12.71-35.53,2.78-71.26,7.36-105.99,15.45-34.19,7.96-67.66,19.01-100.32,31.82-70.65,27.72-139.42,63.44-199.87,109.58-25.62,19.56-49.97,41.03-70.38,66.07-6.05,7.42,4.5,18.09,10.61,10.61,43.68-53.57,104.08-93.06,164.31-125.61,63.27-34.19,131.16-62.29,201.39-78.41,67.86-15.57,139.55-19.93,208.93-15.31,64.1,4.27,127.54,17.65,187.66,40.37,56.96,21.52,110.58,51.65,159.09,88.4,48.41,36.67,91.57,80.27,129.04,128.01,38.67,49.27,71.16,103.41,97.88,160.01,27.53,58.3,48.78,119.51,64.32,182.06,18.77,75.55,29.81,153.15,26.02,231.12-2.09,43.02-8.64,85.82-20.5,127.26-11.52,40.23-28.46,78.07-49.48,114.19-38.66,66.41-87.86,126.44-145.22,177.56-57,50.8-122.09,92.47-192.11,122.93-74.38,32.36-154.7,51.75-235.19,60.73-83.36,9.3-168.52,7.85-251.12-7.26-74.85-13.69-147.39-38.52-211.12-80.69-59.67-39.49-110.43-91.73-151.37-150.22-41.85-59.81-74.09-126.12-97.33-195.25-23.94-71.23-38.25-145.37-43.57-220.3-5.7-80.24-1.5-161.35,14.03-240.33,15.45-78.6,41.99-155.15,81.03-225.2,18.42-33.05,39.51-64.67,63.33-94.07,6.02-7.44-4.53-18.11-10.61-10.61Z"/>
      <path class="cls-1" d="M711.29,897.06s0,0,0,0c15.54,10.76,35.75,11.93,54.59,10.4,10.64-.86,21.78-2.71,30.07-9.42,9.37-7.58,13.3-19.85,16.77-31.4,3.71-12.37,7.46-24.96,7.49-37.87.1-42.32-55.3-60.94-88.59-41.98-37.45,21.33-63.83,80.13-20.33,110.26Z"/>
      <path class="cls-1" d="M730.53,337.98c1.82,29.03,3.16,58.09,4.14,87.17.96,28.65,1.58,57.32,2.01,85.99.42,28.3.66,56.6.89,84.9.23,28.39.45,56.78.82,85.17.38,28.94.93,57.89,1.8,86.82.11,3.63.22,7.25.34,10.88.13,3.92,3.36,7.69,7.5,7.5,3.95-.18,7.64-3.3,7.5-7.5-.95-28.86-1.56-57.74-1.99-86.61-.42-28.56-.66-57.13-.89-85.7-.23-28.29-.45-56.59-.82-84.88-.38-28.48-.93-56.96-1.8-85.42-.89-29.13-2.12-58.25-3.83-87.34-.21-3.65-.44-7.31-.67-10.96-.25-3.91-3.27-7.69-7.5-7.5-3.85.17-7.76,3.31-7.5,7.5h0Z"/>
      <path class="cls-1" d="M789.7,863.65c20.76-1.22,41.54-2.16,62.32-2.96,21.79-.84,43.58-1.53,65.37-2.19,22.13-.66,44.26-1.29,66.4-1.99,22.1-.7,44.2-1.46,66.3-2.4,21.6-.92,43.2-2.02,64.78-3.42,2.67-.17,5.33-.35,7.99-.53,3.91-.27,7.69-3.26,7.5-7.5-.17-3.83-3.31-7.79-7.5-7.5-21.48,1.47-42.98,2.62-64.49,3.59-22.16.99-44.33,1.79-66.5,2.51-22.15.72-44.31,1.35-66.46,2.01-21.77.65-43.54,1.32-65.31,2.12-20.92.77-41.84,1.67-62.75,2.83-2.55.14-5.11.29-7.66.44-3.91.23-7.69,3.29-7.5,7.5.17,3.87,3.31,7.75,7.5,7.5h0Z"/>
      <path class="cls-1" d="M85.8,885.69c24.09,1.37,48.39-2.78,71.18-12.17,7.07-2.91,14.2-6.48,19.49-12.77,5.29-6.29,8.4-15.89,5.96-24.31-3.45-11.91-15.53-16.27-26-18.18-18.23-3.33-49.06-7.99-67.47-6.73l-3.17,74.16Z"/>
      <path class="cls-1" d="M1494.71,838.96c-21.89,3.54-44.72-1.69-63.94-14.66-5.32-3.59-10.87-8.72-11.39-15.97-.58-8.06,5.31-14.58,11.04-18.92,16.99-12.85,37.62-18.72,57.65-16.42l6.64,65.96Z"/>
      <path class="cls-1" d="M763.23,87.43c-.96,13.49,1.07,27.03.73,40.56-.34,13.52-3.46,27.77-12.87,37.49-9.42,9.71-26.47,12.8-36.51,3.72-6.98-6.31-8.91-16.34-10.45-25.62-3.22-19.45-6.44-38.9-9.66-58.35l68.75,2.21Z"/>
      <path class="cls-1" d="M859.67,1528.49c3.11-20.78-2.12-58.11-8.29-78.19-2.82-9.17-6.74-18.29-13.5-25.1-6.76-6.81-16.85-10.93-26.14-8.53-13.05,3.38-19.92,17.52-23.75,30.44-7.78,26.27-9.82,58.25-6.41,85.43l78.08-4.06Z"/>
    </g>
  </g>
</svg>