<?xml version="1.0" encoding="UTF-8"?>
<svg id="_レイヤー_2" data-name="レイヤー 2" xmlns="http://www.w3.org/2000/svg" viewBox="0 0 763.69 862.85">
  <g id="Layer_1" data-name="Layer 1">
    <g>
      <path d="M747.02,312.58c13.91,14.49,8.15,16.52,9.59,34.87,1.55,19.91,2.28,37.4,2.94,57.34,4.04,123.24,6.15,245.58,1.51,369.09-.88,23.45,1.09,52.86-1.4,75.45-.88,7.96-3.89,11.37-11.87,11.93-17.96,1.27-38.53.57-56.68.9-213.4,3.95-426.23-11.01-639.16-4.65-12.67.38-27.94,3.25-40.68,2.32-10.38-.76-11.01-14.17-11.11-22.44-.94-78.03,2.84-157.13,2.79-235.18-.05-89.59,1.88-178.92,1.65-268.38,0-3.12-1.59-6.04-1.48-8.87.46-11.83,27.24-31.36,36.11-40.76,3.26-3.45,17.09-18.57,17.74-21.45,2.46-31.41,2.45-63.12,3.26-94.69.09-3.57,1.55-6.86,1.63-10.42.97-45.02-4.21-98.19-.12-141.78,1.89-20.18,12.26-12.98,26.18-13.32,111.02-2.72,221.02,2.83,331.9,2.15,91.27-.56,182.79-.84,274.29-3.02,6.31-.15,17.34-5.2,21,2.98,2.46,5.49-.65,10.35-.77,15.73-1.81,77.96-6.1,155.86-8.97,233.66-.2,5.49-.02,11.03.02,16.53,1.11,5.82,35.11,35.2,41.64,42ZM613.43,403.98l76.53-48.53c1.29-23.71-.58-47.62.26-71.34,1.55-43.68,4.82-87.49,6.15-130.98,1.13-36.8,4.94-73.29,6.03-110.01.29-9.79-.33-19.67-.07-29.45-3.86-.26-7.4,1.44-11.23,1.57-200.79,7.08-402.65-3.59-602.92,1.14-3.66.09-8.55-2.32-12.82-1.21l-6.79,330.06c34.92,17.61,70.03,34.44,103.45,54.8,35.23,21.46,69.29,46.19,103.42,68.72,37.66,24.86,77.75,46.41,111.96,76.04,2.6,1.43,5.12,1.02,7.86.52,14.14-2.58,48.58-25.54,62.21-34.29,28.77-18.48,55.35-40.1,84.81-57.6M55.77,286.44l-34.71,33.87c-.09,2.99.42,1.8,1.95,2.69,5.75,3.36,23.69,13.13,29.18,14.51,2.42.61,3.58-4.42,3.58-5.11v-45.96ZM706.02,291.69c-.98-1-.05-2.74-2.16-2.23-2.27,18.64-1.27,37.08,0,55.75,5.68-3.75,32.89-17.22,33.18-23.35-10.77-9.56-20.9-19.86-31.02-30.18ZM268.91,623.13c32.7-27.01,66.39-53.71,104.84-72.22-22.84-20.98-50.49-34.96-76.11-51.96-58.6-38.89-117.32-81.59-179.54-114.34-32.72-17.23-66.84-32.11-100-48.44l-4.52,500.31,81.69-57.34c57.56-52.36,113.57-106.38,173.64-156.01ZM746.03,834.99c1.48-26.37,2.13-52.76,2.97-79.18,2.56-81.25,1.41-162.76,0-244.01-.27-15.6.28-31.24.12-46.84l-1.51-67.81-4.6-60.97-336.08,220c61.07,24.43,112.6,69.21,160.53,113.09,56.77,51.96,111.83,106.26,168.75,158.26,2.86,2.61,6.34,5.76,9.81,7.47ZM496.73,626.15c-20.41-15.82-44.68-34.54-67.66-46.14-8.49-4.28-34.44-15.89-42.72-16.18-15.45-.55-45.62,20.38-58.92,29.57-89.63,61.93-163.44,151.15-250.09,215.68-16.54,12.32-35.15,22.45-50.21,36.43,40.7-1.19,81.72-2.11,122.58-2.43,173.65-1.36,347.57,8.57,521.67,5.4,21.85-.4,43.78.43,65.62.05.68-2.61-1.08-3.01-2.24-4.52-4.58-5.97-16.32-16.09-22.48-21.94-38.44-36.43-77.98-71.16-116.96-106.88-33.17-30.39-62.64-61.19-98.58-89.05Z"/>
      <path d="M141.9,115.92l-.24-5.79c25.37-.75,50.79-.81,76.18-1.45,105.48-2.64,215.51-.46,320.9,3.01,11.46.38,27-1.63,37.65.03,2.73.43,5.09,1.53,6.87,3.69-.17,4.21-3.77,3.58-6.7,3.82-11.24.91-26.26.29-37.81-.01-127.19-3.29-254.27-6.08-381.31-3.14-5.35.12-10.16,3.33-15.54-.16Z"/>
      <path d="M150.56,212.84c4.87-1.34,27.06-.52,33.85-.31,11.62.36,25.74,2.85,37.32,3.14,124.88,3.08,250.77-3.08,375.51.72,5.46,3.22,4.02,6.66-2.44,6.83-147.84-.61-295.32.66-442.8-3.09-4.9-.11-6.28-5.95-1.43-7.28Z"/>
      <path d="M156.75,322.58l.27-5.79c5.4-2.34,11.19-.12,17.03-.14,106.56-.3,213.22-.06,319.47,1.49,25.98.38,61.95-2.5,86.19-.14,4.44.43,6.49,1.14,9.1,3.86-.01,3.46-3.5,3.52-7.06,3.82-25.42,2.1-52.58-1.39-77.81-1.65-107.54-1.11-223.83,4.97-329.87.13-5.84-.27-11.39-1.96-17.32-1.59Z"/>
      <path d="M457.11,415.42c18.25-.22,51.81-2.26,68.17-.38,8.11.93,7.57,6-1.97,6.69-16.9,1.22-38.73-.45-56.48-.12-68.35,1.26-149.14,6.62-216.69,2.68-5.05-.29-26.6-2.57-15.73-7.3,5.09-2.22,15.66.62,21.86.74,67.09,1.38,134.16-1.51,200.84-2.32Z"/>
    </g>
  </g>
</svg>