<?xml version="1.0" encoding="UTF-8"?>
<svg id="_レイヤー_2" data-name="レイヤー 2" xmlns="http://www.w3.org/2000/svg" viewBox="0 0 3401.96 2352.57">
  <defs>
    <style>
      .cls-1 {
        fill: #4a5d23;
      }
    </style>
  </defs>
  <g id="Layer_1" data-name="Layer 1">
    <g>
      <path class="cls-1" d="M1781.75,1197.82c13.29-23.6,10.77-38.93,9.51-64.54,27.14-22.04,54.6-44.64,80.26-68.35,94.89-87.66,224.29-192.53,306.64-287.11,11.26-12.94,72.96-86.65,19.75-81.97-19.97,1.76-75.59,48-93.93,62.48-125.88,99.45-237.44,216.67-362.6,317.07-50.09,24.17-94.61-39.2-135.24-59.78,35.87-68.39,61.24-135.8,79.06-211.23,38.07-161.16,46.56-328.5,57.4-493.39,2.7-41.1,23.24-254.2,9.69-275.4-2.06-3.22-9.02-4.38-11.41-8.12-6.73-10.48-3.35-22.52-20.7-26.3-23.86-5.19-38.45,6.72-43.65,28.91-8.23,35.13-8.99,215.54,1.51,247.72,14.54,44.59,50.62,20.85,52.77,23.38-6.53,118.82-14.64,238.92-31.78,356.85-12.9,88.77-32.3,190.4-66.76,273.08-3.73,8.95-31.37,66.85-34.7,68.78-3.33,1.93-7.96.49-11.23-1.46-147.79-116.98-296.28-236.91-457.38-335.61-25.51-15.63-82.86-52.86-108.99-58.96-31.5-7.36-38.36,8.04-21.27,32.98,23.79,34.71,104.46,95.82,140.47,125.15,127.48,103.85,262.79,199.04,397.79,292.75,3.99-.38,3.05,7.36,2.47,8.06-2.07,2.47-48.75,28.55-55.87,32.06-155.22,76.5-384.86,77.64-555.39,69.53-10.9-.52-56.75-2.83-62.01-4.53-5-1.62-5.72-8.82-9.33-11.13-43.6-27.74-224.6-23.52-279.25-14.54-16.51,2.71-29.21,12.89-43.89,14.71-75.06,9.31-178.68-2.52-258.07-.26-64.82,1.85-134.24,4.8-199.03,11.91-13.96,1.53-59.51,7.36-69.49,12.54-7.92,4.11-7.45,6.34-6.69,14.75,173.7-32.04,352.93-24.48,529.26-27.34-8.99,39.42,32.01,44.86,62.36,47.05,56.44,4.07,142.84,3.64,199.53.01,27.55-1.77,74.15-2.8,78.32-35.61,227.17,14.21,485.83,25.79,683.24-103.89,8.32.02,68.02,47.9,74.03,57.48,10.27,16.37,4.05,40.62,12,62.22,21.61,58.72,112.04,64.26,142.6,10ZM1730.39,259.74c-5.34,43.94-32.65,44.98-42.12.06-8.81-41.78-6.94-127.09-4.49-171.67,1.08-19.67,1.91-73,26.2-75.16,31.24-2.77,25.25,79.14,24.96,98.97-.63,42.31.28,108.07-4.54,147.8ZM840.19,1152.82c.93,6.8-8.87,3.68-13.61,3.86-26.78,1.04-49.15-3.05-74.1-4.07-54.03-2.2-108.46-1.47-162.31-5.7,82.68-7.5,168.41-12.61,250.02,5.9ZM849.65,1184.38c-6.68,4.67-61.95,10.62-73.93,11.32-47.72,2.78-112.63,3.02-160.28.2-13.09-.77-62.08-5.47-68.57-13.44-29.13-35.75,71.16-18.12,84.2-17.81,73.81,1.77,147.27.98,220.88,7.67-.59,4.35,2.3,8.85-2.3,12.06ZM1258.59,837.91c-66.49-50.92-142.46-107.26-203.59-163.6-8.28-7.63-45.69-42.69-48.85-48.82-2.61-5.05-.04-11.4,3.94-11.67,11.07-.76,102.34,54.49,118.85,64.67,160.95,99.25,308.38,219.75,457.3,335.6l-33.1,36.45c-99.25-69.24-198.44-139.02-294.55-212.63ZM1634.87,1113.98c-14.88-21.88-51.78-39.18-71.98-56.92,13.5-.7,26.46-38.05,39.01-31.46,31.35,24.32,73.8,68.14,115.19,68.85,29.04.5,39.85-12.81,60.67-29.5,115.23-92.37,220.6-206.12,337.93-298.79,11.37-8.98,77.88-64.8,87.77-54.76,2.39,12-4.43,18.16-10.12,26.95-15.96,24.69-48.29,53.43-69.84,74.69-111.81,110.34-237.9,209.3-345.72,322.24,9.55,59.11-34.55,103.75-92.6,80.74-55.26-21.9-23.84-63.11-50.32-102.04Z"/>
      <path class="cls-1" d="M3385.69,1117.97c-29.9,1.1-69.94,12.49-102.16,15.24-88.8,7.57-192.27,5.96-280.73-4.35-99.7-11.62-190.04-42-293.29-46.56-147.62-6.51-313.83,2.03-461.08,15.8-124.15,11.61-336.87,28.87-427.91,118.96-132.89,131.5-118.48,515.22-109.38,691.73.79,15.4,12.03,114.62,7.81,118.82-2.23,2.22-24.69-1.98-35.82,20.82-7.04,14.42-10.09,56.79-11.06,74.88-2.93,54.47-1.99,129.72,4.04,183.78,2.62,23.51,12.57,49.57,40.83,44.93,18.88-3.1,27.36-37.03,29-53.25,6.08-60.23,19.28-187.23.76-241.96-19.94-58.93-16.22-83.24-19.82-144.24-10.35-175.38-30.04-550.79,101.42-683.82,109.77-111.07,434.96-118.65,588.04-126.81,108.93-5.81,218.76-12.78,328.13-3.83,113.32,9.27,221.33,45.64,335.82,50.9,75.42,3.47,237.87,4.02,306.87-17.67,19.78-6.22,20.17-14.19-1.47-13.39ZM1734.79,2066.85c5.71-.7,7.01,10.22,7.41,14,1.45,13.46-.18,27.21.32,40.67-15.41-10.66-4.82-38.37-7.73-54.67ZM1730.88,2205.47c.83,15.08,6.98,35.84,6.99,50.82.01,13.13-8.22,74.08-17.46,80.36-24.17,16.43-31.07-25.78-32.47-41.36-4.69-52.38-4.3-146.55-.21-199.29,1.63-20.97,4.95-54.76,31.36-56.5,6.8,55.03,8.73,110.58,11.79,165.98Z"/>
      <path class="cls-1" d="M2867.52,1131.32c-31.56-11.07-199.71-9.52-240.14-5.83-11.86,1.08-43.35,7.08-50.74,15.67-8.1,9.41-8.69,32.33-.92,41.77,3.8,4.62,18.86,10.13,25.3,11.78,50.4,12.9,209.21,12.19,259.68.05,42.51-10.23,46.55-49.49,6.82-63.43ZM2841.77,1183.63c-48.8,8.23-140.71,8.06-190.96,4.25-9.73-.74-58.6-8.52-63.53-12.59-21.17-17.49,13.01-31.96,28.65-33.92,54.95-6.88,135.7-7.71,191.24-4.39,14.2.85,59.69,5.32,68.28,13.72,22.02,21.53-19.15,30.47-33.69,32.92Z"/>
      <path class="cls-1" d="M2183.88,357.77c17.33-20.89,101.61-155.95,97.15-174.9-2.65-11.25-24.01-21.09-35.64-17.71-18.75,5.45-92.94,135.58-102.37,159.55-25.93,65.95-11.43,96.08,40.86,33.05ZM2192.53,260.94c8.24-14.04,42.2-70.15,51.71-77.18,11.97-8.85,24.26-4.09,20.05,12.05-4.49,17.19-38.51,72.77-49.82,90.97-19.53,31.43-40.7,65.21-69.52,88.64,2.53-39.99,27.43-80.15,47.59-114.48Z"/>
      <path class="cls-1" d="M2579.66,683.23c23.58-12.89,108.9-64.58,119.53-83.91,9.31-16.93-16-35.67-35.8-31.65-17.93,3.64-70.19,36.83-88.47,48.32-22.15,13.93-98.27,62.57-101.88,85.88-.66,4.28-.83,10.16,1.67,13.67,13,18.25,89.02-23.61,104.94-32.31ZM2524.13,666.76c17.91-13.74,136.13-90.08,149.55-87.41,4.89.97,10.01,9.44,14.07,12.87-18.59,23.22-183.37,125.44-199.08,111.31-5.24-4.72,30.61-33.06,35.45-36.77Z"/>
      <path class="cls-1" d="M925.23,1594.97c-18.11,2.54-50.93,20.65-68.1,29.79-20.66,10.99-125.29,75.89-132.09,90.58-10.36,22.38,14.73,39.42,37.18,33.24,29.52-8.13,143.45-83.91,166.07-107.35,15.98-16.56,37.73-51.98-3.06-46.26ZM812.55,1705.18c-13.79,8.1-44.82,28.59-58.24,31.82-9.6,2.31-21.55-5.33-17.7-14.01,7.78-17.55,182.97-124.12,197.35-113.15,12.87,9.81-112.34,90-121.42,95.34Z"/>
      <path class="cls-1" d="M2673.53,1680.78c-29.13-23.61-134.12-87.53-168.22-93.49-6.55-1.15-15.79-2.46-21.96-.38-6.46,2.18-6.73,7.31-6.71,13.04.07,22.9,49.32,56.44,67.76,69.33,23.37,16.33,100.07,65.24,123.84,71.53,12.96,3.43,19.07,3.06,27.48-7.9,17.22-22.44-5.46-38.58-22.19-52.13ZM2675.98,1729.26c-51.58-29.35-115.5-58.73-160.03-97.92-3.54-3.12-27.88-25.46-23.37-29.32,3.96-3.4,32.56,7.28,38.98,9.81,23.3,9.19,146.61,82.46,154.49,99.63,3.81,8.29-1.65,19.12-10.06,17.81Z"/>
      <path class="cls-1" d="M1272.52,1918.96c-12.81,1.27-37,29.86-45.51,40.53-20.41,25.59-43.15,64.08-59.34,93-10.36,18.5-39.34,63.12-33.75,81.88,4.26,14.3,29.26,13.33,40.5,6.89,10.33-5.92,47.18-63.25,55.67-77.13,16.25-26.57,63.26-106.81,54.65-135.14-1.47-4.85-6.67-10.58-12.22-10.03ZM1256.1,1988.58c-9.08,21.06-77.07,135.97-91.7,142.68-6.74,3.09-19.96,3.83-18.94-7.09.75-8.01,32.49-62.53,39.27-74.16,14.81-25.43,34.64-57.22,52.32-80.49,3.2-4.21,27.82-37.32,32.84-31.57,1.23,17.82-6.9,34.67-13.79,50.63Z"/>
      <path class="cls-1" d="M766.35,666.09c27.88,19.82,143.76,92.05,172.61,83.7,41.53-12.02-38.63-68.31-50.64-76.76-19.89-14-130.19-82.08-146.9-78.23-10.74,2.47-19.39,24.6-16.72,34.71,2.55,9.65,31.81,29.58,41.65,36.58ZM754.35,611.52c21.49,5.61,83.57,45.06,105.06,59.16,26.21,17.2,59.3,36.31,74.55,64.08-11.41,8.78-90.71-36.72-105.17-45.18-15.24-8.92-78.96-47.83-86.5-58.02-8.85-11.97-4.09-24.26,12.05-20.05Z"/>
      <path class="cls-1" d="M2141.52,1934.53c-16.46,10.53,18.89,77.93,26.15,91.96,10.41,20.11,75.85,128.37,90.37,132.56,11.97,3.46,31.29-15.34,31.65-27.6.74-25.64-75.69-143.37-95.91-166.23-13.02-14.71-30.41-35.78-52.26-30.69ZM2252.61,2136.85c-18.16-19.42-55.56-84.55-69.31-110.36-5.62-10.56-36.14-70.77-30.56-76.82,4.23-4.58,27.78,21.62,31.11,25.49,17.19,19.95,87.98,127.98,89.96,148.72,1.55,16.2-7.59,27.54-21.2,12.98Z"/>
      <path class="cls-1" d="M1260.98,402.02c5.68,1.71,11.6,1.77,17.01-.94,15.2-10.77-12.47-65.53-19.14-79.05-10.25-20.76-80.82-137.63-94.53-143.91-4.85-2.22-7.42-2.34-12.61-1.33-45.42,8.85-.61,77.04,12.06,99.7,14.34,25.64,72.67,118.16,97.22,125.53ZM1150.9,191.87c8.87-1.55,12.33,4.53,17.37,9.8,13.53,14.13,33.38,50.24,44.66,68.62,22.64,36.89,45.89,74.58,56.97,116.82-12.99,11.02-69.12-75.61-75.84-86.23-10.33-16.32-49.44-80.91-49.45-95.45,0-5.97.89-10.27,6.29-13.56Z"/>
      <path class="cls-1" d="M1764.3,1157.96c0-27.67-22.43-50.11-50.11-50.11s-50.11,22.43-50.11,50.11,22.43,50.11,50.11,50.11,50.11-22.43,50.11-50.11ZM1714.08,1194.73c-20.13,0-36.44-16.32-36.44-36.44s16.32-36.44,36.44-36.44,36.44,16.32,36.44,36.44-16.32,36.44-36.44,36.44Z"/>
    </g>
  </g>
</svg>