<?xml version="1.0" encoding="UTF-8"?>
<svg id="_レイヤー_2" data-name="レイヤー 2" xmlns="http://www.w3.org/2000/svg" viewBox="0 0 2999.98 944.95">
  <defs>
    <style>
      .cls-1 {
        fill: #010101;
      }
    </style>
  </defs>
  <g id="Layer_1" data-name="Layer 1">
    <g>
      <path class="cls-1" d="M2999.98,518.87v10.23c-36.61-18.54-75.03-29.24-115.23-32.11-32.76-2.32-78.28-.73-114.64,2.32-117.15,9.79-189.62,15.71-217.4,17.76-109.56,8.07-207.81,12.53-307.29,7.42-41.09-2.1-82.02-6.74-122.79-13.91-.96-.18-1.93.36-2.29,1.3-17.06,43.57.73,90.65,24.77,127.79,13.89,21.49,28.7,42.27,44.43,62.34.56.71,1.41,1.12,2.32,1.12,59.08.45,117.8,6.99,176.15,19.61,6.2,1.34,12.46,2.99,18.78,4.97.81.26,1.67.36,2.55.31,17.97-1.34,42.48-3.44,73.54-6.3,44.64-4.1,89.34-5.04,134.11-2.84,14.2.69,29.97,2.59,47.29,5.68,12.4,2.21,59.79,14.61,53.98,33.18-2.68,8.59-11.8,10.16-19.66,10.49-19.06.82-42.14.48-69.24-1.02-76.93-4.25-150.67-13.83-221.22-28.72-.92-.21-1.84-.32-2.76-.34l-172.53-3.78c-.33,0-.61.25-.61.58,0,.15.05.29.14.41,27.17,32.9,50.97,65.25,71.41,97.06,6.59,10.21,12.27,24.84-4.79,27.03-15.33,1.94-23.89,2.99-25.68,3.15-339.45,29.3-569.95,49.04-774.58,68.39-69.65,6.6-112.92,10.34-129.79,11.22-29.77,1.59-48.15,3.75-60.52,2.21-2.38-.3-4.38-1.92-5.18-4.19-5.16-14.72-9.94-31.4-14.35-50.03-7.93-33.54-14.64-67.54-20.1-102.01-.18-1.22-1.32-2.07-2.56-1.89-.08,0-.15.03-.23.04-25.49,6.48-53.15,17.37-79.38,24.82-58.33,16.56-125.31,26.95-186.2,25.83-68.52-1.22-131.35-9.82-192.86-35.13-39.1-16.09-62.6-25.37-70.49-27.84-36.37-11.42-74.61-18.31-114.71-20.65-46.49-2.73-76.06-4.12-88.7-4.19-116.41-.63-287.63-.14-513.67,1.46v-9.06c156.09-1.48,312.19-2.06,468.28-1.74,14.77.03,36.78.4,66.02,1.09,41.46.96,81.77,2.58,123.57,9.17,33.18,5.21,65.22,14.38,96.12,27.53,40.63,17.27,76.54,31.64,115.39,39.24,110.31,21.59,223.28,10.18,329.43-25.6,20.16-6.79,35.28-11.67,45.36-14.64,1.44-.42,2.36-1.83,2.16-3.31-7.99-60.03-14.91-121.7-20.78-185-.24-2.72,1.76-5.13,4.49-5.37.14,0,.27-.02.41-.02,85.31-.23,179.95-7.53,260.05-10.05,2.4-.09,4.42,1.79,4.5,4.19v.26l-.03,1.02c-.04,1.9-1.55,3.43-3.44,3.49-38.33,1.41-85.59,3.67-141.77,6.8-37.53,2.11-79.79,3.02-112.66,3.88-1.02.02-1.83.88-1.81,1.91,0,.06.01.11.01.17,6.46,61.22,11.72,119.32,21.12,178.49.12.73.78,1.25,1.51,1.17,17.66-1.67,32.4,3.98,44.22,16.93,1.81,1.98,6.43,6.64,13.88,13.98,31.02,30.6,69.19,44.77,113.85,41.85,5.36-.36,10.53-1.74,15.49-4.11,2.44-1.16,3.8-3.75,3.31-6.3-.38-1.89-1.41-3.43-3.1-4.61-8.75-6.11-14.18-9.97-16.28-11.59-4.84-3.7-5.56-8.13-2.14-13.28,6.51-9.79,49.45-8.91,60.49-9.27,8.35-.28,13.21-4.56,14.58-12.84,2.08-12.58,4.61-27.76,7.68-39.4,10.31-38.92,23.26-76.89,38.85-113.91.18-.46-.05-.97-.51-1.14-.33-.13-.7-.05-.95.21-3.11,3.44-6.82,6.02-11.15,7.73-16.35,6.46-25.42-7.84-27.71-21.56-3.35-20.26-4.34-40.95-2.97-62.06,1.75-26.81,4.18-55.69,7.27-86.64.82-8.16,2.64-15.05,5.47-20.68,12.89-25.57,57.66-35.34,83.05-39.56.74-.11,1.37-.58,1.69-1.25,6.55-13.8,14.67-28.94,24.38-45.42,64.74-109.79,138.49-208.31,226.59-294.22,17.62-17.19,36.8-34.03,57.53-50.52,11.69-9.3,37.19-26.74,49.35-8.85,12.42,18.28-.47,49.82-6.02,69.09-4.87,17.01-3.13,33.57-6.8,50.36-6.64,30.44-24.22,52.08-51.98,65.73-.22.13-.31.41-.19.63.07.14.22.23.37.23l15.49.34c4.01.09,7.19,3.41,7.1,7.42,0,.14-.01.28-.02.42-.31,4.14-2.21,11.07-3.93,14.66-13.28,27.67-30.35,52.38-51.2,74.11-13.13,13.7-33.02,28.75-47.14,39.64-.13.13-.13.35,0,.48.07.07.18.11.28.09,8.62-2.24,21.17-9.17,33.57-8.39,3.83.23,6.88,3.46,7.06,7.47.17,3.66-.55,7.18-2.16,10.55-10.23,21.09-21.85,38.36-34.87,51.8-26.41,27.29-55.81,49.92-86.48,72.58-.25.19-.3.55-.13.8.14.2.39.28.62.19,12-3.82,22.92-4.19,32.76-1.12,16.04,5,11.15,19.51,3.88,29.24-26.74,35.91-62.86,59.71-102.71,82.99-.06.02-.09.09-.07.14.02.06.09.09.14.07,25.87-5.99,52.42-11.43,79.66-16.33,37.34-6.72,112.99-26.41,56.54-80.18-1.7-1.6-1.76-4.28-.15-6,.06-.07.13-.14.2-.2l.1-.1c1.83-1.7,4.64-1.78,6.56-.18,10.52,8.75,17.97,19.81,22.34,33.18.28.86.45,1.76.52,2.66,1.22,16.44-5.39,29.08-19.82,37.92-15.89,9.76-34.9,16.7-57.06,20.83-41.13,7.67-77.6,15.24-109.4,22.71-.53.11-.88.64-.77,1.17.09.42.44.74.87.78,29.61,3.26,62.68,9.71,87.5,30.44,13.91,11.61,3.8,25.21-8.15,32.11-7.21,4.17-14.05,7.53-20.52,10.08-.21.09-.31.33-.23.55.06.18.25.28.42.23,11.82-3.3,24.37-7.51,37.63-12.63,36.3-14.01,71.66-11.23,106.07,8.33,12.2,6.96,22.41,13.08,30.63,18.36,13.99,8.99,24.31,14.9,30.96,17.71,47.94,20.26,99.24,16.56,150.96,12.34,10.14-.83,26.45-.1,48.93,2.19.96.1,1.94-.11,2.79-.6,2.24-1.34,4.1-2.19,5.57-2.55,18.99-4.7,37.98-6.62,56.95-5.76.46.03.85-.33.87-.8.01-.19-.04-.37-.14-.53-39.97-55.68-92.47-116.93-67.6-193.41.21-.67-.16-1.38-.82-1.59-.03,0-.06-.02-.09-.03-40.36-8.8-78.95-22.61-115.76-41.43-49.56-25.34-97.79-59.61-157.55-58.91-2.65.04-4.83-2.07-4.87-4.71v-.18l.03-1.3c.04-1.97,1.65-3.54,3.62-3.54,39.9.21,73.78,12.01,108.44,30.83,18.13,9.86,35.42,19.13,51.88,27.81,37.76,19.93,77.22,33.95,118.39,42.06.63.13,1.26-.17,1.59-.73l15.03-26.02c1.47-2.56,4.74-3.43,7.31-1.96h0l1.04.6c1.48.86,1.99,2.76,1.15,4.24l-14.51,25.1c-.3.51-.13,1.16.38,1.46.11.06.22.11.35.13,91.88,16.25,184.35,18.23,278.02,14.74,110.16-4.09,195.78-12.21,340.57-24.4,13.04-1.11,27.36-2.06,42.97-2.84,38.39-1.93,67.99-3.36,101.48-.96,39.18,2.88,76.07,13.17,110.72,30.91ZM1585.5,623.87c8.58-15.3,20.39-26.39,35.44-33.28,31.34-14.32,61.12-31.37,89.35-51.15,20.03-14.03,37.23-30.49,51.59-49.37,2.59-3.42,4.52-6.69,5.81-9.82.98-2.38-.15-5.1-2.52-6.08-.26-.11-.54-.19-.82-.25-9.92-2.08-20.47-.08-30.6,3.65-14.27,5.26-30.34,12.58-38.98,11.22-.88-.13-1.68-.61-2.21-1.33-2.83-3.87-2.14-7.19,2.08-9.95,8.39-5.49,18.66-12.14,30.83-19.95,27.1-17.38,53.43-38.33,78.98-62.86,18.61-17.86,32.86-37.75,42.76-59.66.45-1.01-.01-2.2-1.02-2.65-.31-.14-.65-.19-.99-.17-5.8.49-11.48,1.88-17.03,4.17-16.86,6.96-33.01,15.93-48.46,26.9-7.47,5.31-22.58,15.91-26.9,3.67-.31-.86-.14-1.83.44-2.55,2.57-3.25,5.39-5.91,8.46-7.99,27.53-18.59,61.15-42.08,82.66-60.7,20.92-18.11,38.52-39.94,52.79-65.49,4.32-7.76,9.22-15.44,11.67-24.48.39-1.46-.47-2.96-1.92-3.35-.31-.09-.64-.11-.97-.08-21.35,1.96-35.75,3.12-43.18,3.46-4.06.19-7.54-.49-10.44-2.06-2.32-1.25-3.31-3.97-2.22-6.08.11-.22.24-.42.39-.61,1.41-1.81,3.75-3.13,7.03-3.96,10.34-2.6,24.84-4.82,34.79-9.37,23.39-10.68,38.59-28.81,45.63-54.4,4.24-15.39,2.34-36.82,6.93-51.88,2.81-9.25,6.44-22.56,10.89-39.92,2.29-8.91,1.51-16.94-2.34-24.09-1.86-3.46-6.11-4.83-9.61-3.1-3.61,1.75-7.1,4.43-10.47,8.02-19.09,20.34-33.07,39.24-53.65,65.99-38.19,49.62-72.18,99.64-101.95,150.08-30.89,52.32-70.42,122.63-99.71,180.18-27.55,54.1-54.5,109.63-80.83,166.59-7.31,15.82-11.95,27.91-13.93,36.28-.54,2.24-.3,4.37.7,6.38.2.43.71.62,1.14.42.16-.09.3-.22.39-.38ZM1901.72,37.36c-10.83,8.96-22.66,19.51-35.49,31.67-31.7,30-62.53,63.19-92.47,99.56-56.56,68.63-106.07,140.64-148.52,216.04-4.74,8.42-8.44,15.32-11.09,20.7-.37.73-.07,1.62.66,1.99.37.19.8.21,1.19.06,4.32-1.6,7.44-1.14,9.35,1.38,1.41,1.89.59,4.8-1.84,6.49-.22.15-.45.29-.68.42-3.98,2.1-8.03,2.82-12.16,2.16-.91-.14-1.8.34-2.19,1.17-19.71,42.19-25.55,85.34-28.1,131.35-.02.27.18.51.45.54.2.02.4-.09.49-.28,53.44-107.5,111.98-213.65,178.98-313.49,34.79-51.85,67.68-101.46,104.19-149.27,24.05-31.49,36.68-48.13,37.89-49.92.12-.21.05-.48-.16-.6-.16-.09-.35-.08-.5.03ZM1701.86,348.4c-12.14,18.78-24.1,39.02-35.89,60.7-23.28,42.85-47.44,88.97-72.47,138.36-3.39,6.68-8,16.62-13.85,29.82-.46,1.03-.67,2.15-.6,3.28l.73,13.75c.04.36.36.62.72.58.22-.02.41-.15.51-.34,37.14-82.47,77.63-164.4,121.48-245.81.03-.08.02-.17-.03-.23-.02-.05-.03-.1-.05-.16,0-.14-.15-.21-.31-.15-.11.04-.19.11-.24.2ZM1596.8,419.16c-20.05,2.36-37.98,8.09-53.78,17.19-12.24,7.03-19.11,16.95-20.63,29.77-2.66,22.45-5.02,51.09-7.08,85.94-.87,14.58-.77,29.27.29,44.06.83,11.51,2.27,42.94,19.84,32.71,19.9-11.64,26.88-36.17,35.13-56.46.34-.82.49-1.71.44-2.6-.59-10.14-.48-20.11.34-29.92.83-9.91,1.77-19.9,2.81-29.97,3.26-31.55,10.94-61.61,23.02-90.18.09-.18.02-.4-.16-.49-.06-.06-.14-.07-.22-.05ZM1517.35,761.27l52.4-123.91c.45-1.07,1.01-2.11,1.67-3.1l3.39-5.13c.45-.67.63-1.49.49-2.29l-4.24-26.15c-.07-.35-.41-.58-.76-.52-.22.04-.41.2-.49.41-3.49,10.38-8.13,22.87-13.93,37.47-16.34,41.16-29.94,81.97-40.81,122.42-.12.67.32,1.3.98,1.42.52.12,1.05-.14,1.3-.62ZM1731.39,639.31c.97-2.69.25-5.69-1.82-7.66-5.03-4.74-10.67-8.58-16.9-11.51-30.42-14.31-63.04-19.74-97.86-16.3-1.86.18-3.57,1.12-4.74,2.6l-13.2,16.8c-.79.99-1.33,2.17-1.59,3.44l-2.6,13.59c-.22,1.12-.13,2.29.26,3.36,4.92,13.75,18.67,20.08,31.93,22.27,31.23,5.17,61.01.76,89.32-13.26,6.49-3.22,15.5-8.61,17.2-13.33ZM1738.6,666.58c-36.22,13.23-72.03,23.39-109.4,16.54-24.95-4.6-40.95-18.48-48.02-41.64-.22-.75-1-1.18-1.74-.96-.42.12-.75.43-.91.83l-8.78,20.76c-.24.6-.17,1.3.21,1.85,4.76,6.75,11.34,13.45,19.74,20.1,28.11,22.29,58.98,38.3,92.63,48.02,9.46,2.74,18.16,4.19,26.09,4.35,2.65.06,4.84-2.03,4.89-4.66v-.05c.03-1.34-.7-2.99-2.21-4.97-5.99-7.86-11.71-15.58-17.16-23.15-5.65-7.84-3.2-16.72,7.45-16.07,4.6.28,8.19,1.04,10.76,2.29,15.21,7.34,29.46,13.06,42.76,17.16,5.76,1.79,11.1,2.6,16.02,2.42,2.89-.09,5.25-1.99,5.6-4.51.19-1.46-.35-3.09-1.61-4.9-2.97-4.22-7.21-8.86-12.73-13.93-1.63-1.49-8.72-7.84-21.28-19.04-.64-.56-1.52-.73-2.31-.44ZM1751.18,663.64c10.91,9.74,31.72,24.11,35.1,38.52,2.14,9.06-6.46,15.99-15.08,16.35-20.91.86-46.28-12.34-65.78-21.07-.9-.39-1.94.02-2.33.91-.18.42-.2.9-.04,1.33.57,1.51,1.16,2.64,1.77,3.39,7.74,9.55,13.21,17.5,16.41,23.85,5.29,10.47-2.01,18.72-12.27,18.93-6.86.14-14.72-.94-23.59-3.23-24.58-6.34-49.64-17.07-75.16-32.21-15.33-9.08-29.93-20.75-43.8-35-.54-.56-1.43-.58-1.98-.05-.14.13-.24.29-.31.46-12.27,29.5-25.04,59.26-38.31,89.3-5.1,11.6-10.24,21.43-15.42,29.51-5.52,8.58-13.53,12.76-24.04,12.55-15.31-.31-37.71-1.07-49.66,5.36-.59.3-.82,1.03-.51,1.61.1.19.25.35.43.47,8.75,5.57,20.47,11.67,21.9,21.41,1.2,8.28-6.98,16.17-14.87,18.05-7.86,1.86-15.76,2.79-23.7,2.79-42.57-.02-78.59-14.08-108.05-42.19-16.09-15.36-26.51-32.71-51.82-30.49-.92.07-1.64.8-1.72,1.72-.14,1.77.2,5.03,1.02,9.79,8.67,49.79,17.55,94.3,32.01,139.01.21.68.85,1.13,1.56,1.09,83.75-3.44,162.94-11.85,250-20.21,79.13-7.62,225.62-20.62,439.45-38.98,116.56-10.03,222.63-18.75,291.74-26.12,1.96-.21,3.66-.54,5.1-.99,1.28-.39,2-1.75,1.61-3.02-.06-.18-.13-.35-.23-.52-22.47-37.79-46.69-68.02-79.11-109.66-1.49-1.91-3.74-3.08-6.17-3.18-21.15-.89-41.34-2.5-60.57-4.84-7.22-.89-13.85-2.79-19.9-5.7-.53-.26-1.11-.43-1.69-.49-20.24-2.43-47.54-2.11-81.9.96-18.04,1.6-40.66,1.09-67.86-1.51-24.84-2.37-51.2-9.82-70.68-22.19-20.38-12.93-37.93-23.36-52.63-31.28-28.85-15.5-58.39-17.51-88.62-6.02-.49.2-.74.75-.56,1.23.06.14.15.26.26.36ZM2134.64,719.47l56.41,4.17c.73.06,1.38-.48,1.44-1.21.03-.34-.07-.69-.29-.95l-5.36-6.64c-1.2-1.5-3.02-2.36-4.95-2.34-15.56.09-31.35,1.72-47.37,4.9-.58.04-1.01.53-.98,1.11.03.56.53,1,1.1.96ZM2340.84,726.87c-3.87-1.18-14.87-3.03-32.99-5.55-38-5.31-74.9-8.25-110.7-8.8-.16,0-.28.13-.28.29,0,.05.02.11.05.15l6.69,9.87c.13.2.34.32.57.34,50.39,2.79,92.63,4.69,136.48,4.84.33,0,.6-.27.6-.6,0-.25-.17-.48-.42-.54ZM2423.37,734.91c-.25.05-.42.3-.36.55.04.17.17.31.34.36,58.42,10.31,116.6,17.41,174.53,21.3,29.05,1.96,54.57,2.51,76.59,1.64,4.38-.16,8.36-.76,11.95-1.8,1.39-.38,2.19-1.83,1.8-3.23-.11-.38-.29-.72-.55-1.02-4.31-4.88-10.5-8.67-18.59-11.38-24.76-8.28-52.69-12.87-83.8-13.78-52.74-1.51-106.71.94-161.91,7.36Z"/>
      <path class="cls-1" d="M1019.38,509.99c.33-.03.58-.31.57-.65v-.03c0-.24-.19-.44-.44-.47-15.68-1.04-47.14-5.03-56.38-19.77-12.53-19.95,17.29-29.51,32.11-32.14,22.26-3.98,44.46-5.39,66.61-4.24,15.57.81,47.11,5.21,57.14,18.31,7.5,9.79,4.27,22.53-5.31,29.82-1.98,1.51-5.19,3.45-9.64,5.83-.57.31-.78,1.02-.47,1.59.13.23.33.42.57.52,4.4,1.8,14.06,5.83,11.51,12.14-2.71,6.64-1.2,15.6-1.46,26.38-.05,1.6,1.09,3,2.68,3.28,16.43,3.02,54.3,12.92,59.77,31.07,3.04,10.05,1.22,19.33-5.44,27.84-.56.7-.67,1.66-.29,2.45,1.22,2.53,2.68,4.38,4.11,8.1,6.3,16.27,10.08,37.55,11.33,63.85,1.27,26.67-.34,48.59-4.82,65.78-.43,1.72-1.25,3.52-2.45,5.42-.67,1.07-1.18,2.24-1.51,3.46-4.79,17.71-19.06,26.64-35.76,32.58-49.24,17.55-101.08,23.11-155.52,16.67-29.04-3.44-55.94-21.12-66.88-48.57-.45-1.13-1.82-2.78-4.11-4.95-.97-.9-1.57-2.14-1.67-3.46-.21-2.29.31-3.52-.31-6.28-7.78-34.13-11.39-68.88-10.83-104.24.1-6.98,1.15-14.07,3.12-21.28.27-.97.91-1.8,1.8-2.32l.89-.49c.87-.5,1.17-1.62.68-2.53-1.37-2.5-2.01-4.3-1.9-5.39,3.41-37.58,32.27-48.65,63.23-60.13,1.17-.43,1.91-1.57,1.85-2.81-.31-6.41-.39-12.3-.23-17.68.26-8.56,4.88-13.29,13.85-14.19.32-.04,11.52-1.2,33.6-3.47ZM970.14,482.62c4.66,11.28,33.7,15.05,44.17,15.91,25.89,2.14,57.94,3.88,84.58-2.14,10.47-2.37,21.35-13.54,9.87-21.98-5.75-4.2-12.74-7.07-20.99-8.59-35.36-6.58-69.51-5.39-102.42,3.57-5.24,1.42-9.62,3.48-13.13,6.17-2.24,1.7-3.09,4.6-2.08,7.06ZM1041.75,519.13c-19.24.55-39.3.39-57.73,3.62-.64.1-1.07.7-.97,1.34.08.51.49.9,1,.97,15.87,2.59,35.18,3.58,57.94,2.97,22.78-.63,42.01-2.66,57.71-6.12.63-.16,1-.8.84-1.43-.12-.45-.49-.79-.95-.86-18.59-2.23-38.59-1.01-57.84-.49ZM1103.26,528.58c-17.55,4.91-30.29,7.61-38.2,8.1-25.87,1.58-53.22.65-82.06-2.79-.86-.09-1.62.54-1.71,1.4,0,.04-.01.08-.01.11l-.34,15.42c-.01.85-.43,1.65-1.12,2.16-3.23,2.33-5.91,3.82-8.05,4.48-15.5,4.84-29.04,11.65-40.6,20.42-7.81,5.91-12.08,14.3-13.28,24.48-.4,3.3-1.31,6.45-2.73,9.45-.33.7-.07,1.54.6,1.93,6.49,3.82,14.51,7.12,24.04,9.9,49.51,14.38,101.38,11.35,152.45-1.93,12.27-3.19,27.14-7.64,44.58-13.33,1.74-.57,9.32-1.18,22.76-1.82.89-.05,1.72-.43,2.32-1.07,5-5.23,7.18-11.47,6.54-18.72-1.38-15.7-45.18-25.44-57.53-27.71-.85-.16-1.72.16-2.27.83-7.88,9.43-16.43,14.73-25.65,15.91-26.37,3.33-51.86.81-76.46-7.58-3.61-1.23-5.61-4.98-4.47-8.38.07-.2.14-.39.23-.58,1.63-3.58,4.98-5.91,10.05-7.01,29.46-6.44,59.78-8.06,90.96-4.87.8.09,1.52-.49,1.61-1.29.01-.05.01-.09.01-.14l.34-15.81c.02-.88-.68-1.6-1.56-1.62-.15,0-.3.02-.45.06ZM1016.07,562c.9.64,1.88,1.08,2.94,1.3,17.34,3.68,34.78,5.17,52.32,4.48,10.29-.42,19.9-3.15,27.45-8.96.75-.59.88-1.67.29-2.41-.27-.34-.65-.56-1.07-.63-26.41-3.91-55.49-.76-81.69,5.03-.36.09-.58.46-.48.83.03.13.12.26.24.36ZM913.31,625.56c-.83,2.48-1.34,7.82-1.51,16.02-.75,36.27,3.4,71.1,12.45,104.51.6,2.26,2.44,3.98,4.74,4.43,13.61,2.67,27.49,4.18,41.64,4.53,66.53,1.68,132.39.12,197.58-4.69,1.45-.11,2.68-1.09,3.13-2.47,2.24-7.07,3.69-13.63,4.35-19.69,3.99-36.48.83-71.89-9.48-106.25-.7-2.39-2.67-4.19-5.1-4.69-16.43-3.44-35.73,4.69-55.57,10.65-13.92,4.18-29.84,7.76-47.76,10.73-46.51,7.71-100.78,5.91-142.11-14.06-.84-.41-1.86-.04-2.27.81-.04.05-.07.11-.09.17ZM930.81,760.43c-.45-.1-.89.19-.99.64-.04.21-.01.43.1.61,12.64,19.79,30.74,31.75,54.3,35.89,43.33,7.6,88.91,2.47,132.37-8.1,17.55-4.27,39.97-13.07,49.45-27.66.38-.58.21-1.35-.37-1.73-.23-.15-.5-.22-.78-.2-63.04,4.77-130.81,6.19-203.31,4.24-11.72-.3-21.98-1.53-30.77-3.69Z"/>
    </g>
  </g>
</svg>