<?xml version="1.0" encoding="UTF-8"?>
<svg id="_レイヤー_2" data-name="レイヤー 2" xmlns="http://www.w3.org/2000/svg" viewBox="0 0 5803.29 1876.69">
  <g id="Layer_1" data-name="Layer 1">
    <path d="M1666.08,1876.69c-46.95,0-93.63-8.1-138.21-24.21-130.23-47.05-247.57-118.64-361.05-187.88-125.38-76.5-255.03-155.6-401.42-200.76-261.19-80.58-515.1-32.99-754.67,141.47-3.01,2.19-7.24,1.53-9.43-1.48-2.19-3.01-1.53-7.24,1.48-9.43,58.56-42.64,118.58-78.26,178.41-105.88,61.42-28.35,124.4-49.09,187.18-61.63,64.33-12.85,130.3-17.45,196.07-13.7,67.25,3.84,136.2,16.55,204.94,37.75,148,45.66,278.39,125.21,404.48,202.14,112.9,68.88,229.65,140.12,358.6,186.7,147.5,53.29,312.28,14.51,419.79-98.8,98.83-104.16,146.36-205.04,165.84-303.47-35.46-208.01-112.86-659.93-145.07-845.61-2.48-14.28,3.4-28.21,15.33-36.35,7.6-5.19,16.49-7.23,25.15-6.09-1.12-6.05-2.17-11.74-3.15-17.03-4.58-24.75,11.81-48.75,36.55-53.49l1413.6-271.05c12.15-2.33,24.45.23,34.64,7.21,6.07,4.16,10.96,9.58,14.38,15.86,61.29-45.97,125.35-84.08,191.43-113.82,98.22-44.2,204.17-71.38,314.92-80.77,106.68-9.05,221.5-1.9,341.26,21.26,114.55,22.15,237.82,59.76,366.38,111.79,273.69,110.76,549.75,59.17,733.15-3.61,198.97-68.12,334.63-163.6,335.97-164.55,3.04-2.16,7.25-1.44,9.41,1.6,2.16,3.04,1.44,7.25-1.6,9.41-1.36.97-138.62,97.57-339.42,166.32-118,40.4-234.61,63.46-346.59,68.54-140.15,6.37-273.38-15.57-395.99-65.19-221.96-89.83-424.55-134.85-609.33-134.85-223.17,0-420.42,65.64-594.83,197.23.03.14.05.28.08.42,32.36,176.71,141.38,768.09,185.82,958.57,2.71,11.63.63,23.57-5.88,33.61-6.54,10.1-16.65,16.92-28.47,19.22l-1484,288.59c-11.73,2.28-23.58-.2-33.37-6.97-9.75-6.75-16.21-16.9-18.19-28.61-1.79-10.54-3.94-23.17-6.39-37.61-9.28,36.02-22.04,70.64-38.54,104.66-29.44,60.73-69.78,117.67-123.3,174.08-54.38,57.3-124.18,97.24-201.86,115.47-31.1,7.3-62.66,10.94-94.1,10.94ZM2131.66,1436.82c4.85,28.43,8.9,52.23,11.92,70.07,1.37,8.09,5.83,15.1,12.57,19.76,6.77,4.69,14.98,6.4,23.11,4.82l1484-288.59c8.19-1.59,15.19-6.32,19.72-13.31,4.49-6.93,5.93-15.17,4.06-23.2-43.99-188.54-151.05-768.66-184.79-952.84-26.87,20.87-53.2,43.33-78.98,67.38-73.16,68.22-141.7,157.05-214.26,251.09-58.54,75.87-122.36,158.59-195.23,238.37-18.88,52.8-50.74,109.05-95.12,167.83-13.67,18.12-37.59,24.56-58.14,15.67-408.54-176.62-708.98-349.09-829.05-421.33,22.73,123.68,63.47,349.25,86.18,498.52.76,5.01,1.53,10.03,2.3,15.06,15.78,103.2,32.1,209.92,16.66,320.73-1.41,10.12-3.06,20.1-4.95,29.97ZM2008.8,562.63c-4.45,0-8.88,1.36-12.85,4.07-7.62,5.2-11.22,13.76-9.64,22.89,30.31,174.74,100.66,585.31,138.39,806.46,12.93-104.99-2.72-207.27-18.11-307.91-.77-5.03-1.54-10.05-2.3-15.07-23.38-153.67-65.91-388.4-88.15-509.2-2.41-.84-4.88-1.26-7.35-1.26ZM2028.2,554.79c112.26,68,417.72,245.13,837.67,426.68,14.82,6.41,32.1,1.72,42.01-11.41,36.25-48.03,62.34-92.22,80.2-132.1-27.15,28.59-55.54,56.63-85.36,83.69-15.08,13.68-37.05,18.6-57.32,12.83-88.21-25.1-153.35-58.84-193.61-100.26-33.82-34.79-48.45-74.68-41.2-112.3,10.8-56.06,67.25-94.99,128.5-88.63,27.98,2.91,51.81,11.05,71.12,24.28,10.66-25.57,37.3-65.25,101.63-77.06,41.54-7.63,79.46,9.08,101.44,44.69,21.24,34.41,26.1,84.09,13.7,139.89-1.08,4.84-2.27,9.71-3.58,14.62,63.18-71.12,119.64-144.29,174.93-215.97,72.91-94.49,141.77-183.75,215.74-252.72,27.49-25.64,55.69-49.57,84.52-71.75-2.42-5.21-6.2-9.69-11.07-13.02-7.2-4.93-15.89-6.73-24.47-5.09l-1413.6,271.05c-17.47,3.35-29.06,20.29-25.82,37.77,1.39,7.51,2.92,15.81,4.58,24.81ZM2725.94,646.11c-49.65,0-93.29,32.69-102.1,78.36-6.39,33.16,6.97,68.79,37.63,100.33,38.59,39.7,101.72,72.23,187.62,96.68,15.83,4.51,32.9.74,44.56-9.84,38.61-35.03,74.42-71.23,108.22-108.1,27.4-77.79,21.5-136.26-.09-171.25-19.22-31.15-51.12-45.19-87.51-38.5-61.13,11.23-84.44,49.85-92.96,72.38,1.46,1.27,2.88,2.58,4.28,3.93,22.81,21.98,29.56,46.32,31.55,58.87,3.4,21.36-1.85,39.06-13.05,44.05-5.06,2.25-15.4,3.73-27.85-11.65-16.32-20.18-20.42-57.17-10.67-90.68-16.54-12.01-38.85-20.95-67.89-23.97-3.94-.41-7.87-.61-11.75-.61ZM2816.99,680.29c-7.27,30.46-1.13,59.12,9.76,72.59,5.75,7.1,9.98,8.65,11.86,7.81,3.88-1.73,7.85-12.97,5.21-29.59-2.73-17.19-11.19-35.54-26.83-50.8Z"/>
  </g>
</svg>