<?xml version="1.0" encoding="UTF-8"?>
<svg id="_レイヤー_2" data-name="レイヤー 2" xmlns="http://www.w3.org/2000/svg" viewBox="0 0 669.51 398.74">
  <defs>
    <style>
      .cls-1 {
        fill: #fff;
      }

      .cls-1, .cls-2 {
        fill-rule: evenodd;
      }

      .cls-2 {
        fill: #092a36;
      }
    </style>
  </defs>
  <g id="_レイヤー_1-2" data-name="レイヤー 1">
    <g>
      <path class="cls-2" d="M2.44,394.62c-4.41-10.17-2.49-17.01,3.05-24.1,10.21-13.07,19.46-26.88,29.19-40.33,7.95-11,16-21.84,22.27-34.03,3.37-6.55,9.35-11.73,13.92-17.71,5.4-7.06,12.59-9.53,21.16-9.28,4.02.12,8.08-.46,12.08-.16,23.33,1.81,46.01-2.61,68.9-6.14,30.31-4.66,60.74-9.42,91.29-11.36,35.12-2.24,70.43-1.87,105.65-1.82,28.69.04,57.39.83,86.05,2.16,15.03.7,29.95,3.47,44.96,4.97,18.01,1.79,36.12,2.73,54.07,4.96,16.38,2.04,32.43,6.4,49.01,7.49,5.03.33,9.01,3.5,12.28,7.86,6.13,8.14,11.46,16.77,14.21,26.46,8.14,28.75,21.94,55.11,33.66,82.36,1.57,3.64,3.19,7.27,5.34,12.17-3.36.25-5.66.9-7.76.5-19.16-3.73-38.33-7.2-57.64-10.2-22.58-3.5-45.12-3.12-67.68-3.85-43.27-1.41-86.56-2.39-129.84-3.27-9.01-.19-18.05.81-27.08,1.29-2.51.13-5.03.59-7.53.5-24.22-.99-48.18,2.73-72.27,3.93-14.05.7-28.18.08-42.27-.06-13.58-.13-27.09-.51-40.68,1.25-13.42,1.75-27.07,1.75-40.62,2.51-1,.06-2.16.41-3,.04-13.9-6.06-27.79-1.2-41.42.69-25.94,3.61-51.82,6.95-78.08,6.1-10.56-.35-21.15-.32-31.7-.84-6.47-.32-12.89-1.34-19.5-2.07ZM474.94,370.54c5.07,3.26,10.25,2.15,15.18,2.27,29.7.71,59.44.7,89.11,2.08,16.5.76,32.91,3.65,49.33,5.79,7.82,1.02,15.58,2.54,24.76,4.07-1.23-4.72-1.81-8.08-3-11.21-1.6-4.21-3.27-8.48-5.61-12.3-7.12-11.62-12.82-23.76-17.69-36.57-5.31-13.97-10.12-28.41-20.19-40.29-5.24-6.19-10.4-9.72-18.96-9.7-36.83.07-73.35-3.59-109.68-9.72-13.35-2.26-27.01-2.96-40.57-3.57-54.35-2.43-108.73-1.5-163.1-.42-2.01.04-4.03.14-6.03.3-38.15,3.01-76.06,7.92-113.8,14.1-12.48,2.05-24.91,3.05-37.55,2.28-9.52-.59-19.08-.5-28.96-.71-1.85,1.63-3.89,3.92-6.38,5.52-9.73,6.25-15.63,15.42-20.43,25.59-1.92,4.07-4.12,8.11-6.76,11.74-10.34,14.26-20.87,28.39-31.39,42.52-4.77,6.41-8.89,13.19-13.62,20.65,2.9,1.69,4.8,3.48,6.98,3.93,3.41.71,7.01.46,10.51.72,26.19,2.01,52.32-.5,78.44-1.45,17.45-.63,34.73-4.35,52.26-8.25,6.62-34.18,20.99-65.1,32.01-97.24,1.13,7.69-1.2,14.89-2.32,22.22-.45,2.96-.78,6.13-2.11,8.72-9.93,19.46-12.67,41.22-19.83,61.56-.47,1.32-.12,2.94-.16,4.73,6.48,1.67,12.8,2.18,19.44,1.93,30.16-1.16,60.28-3.94,90.53-2.1,7.51.46,15.09-.2,22.64-.5,22.61-.9,45.06-4.82,67.79-3.64,2.5.13,5.02-.29,7.54-.39,12.56-.5,25.11-1.25,37.67-1.39,14.1-.16,28.2.3,42.3.35,3.4,0,6.81-.55,11.28-.94-.48-4.57-.54-8.5-1.35-12.27-2.55-11.81-5.37-23.55-8.12-35.31-3.32-14.21-6.33-28.49-12.29-41.95-1.39-3.15-1.91-6.76-2.35-10.21-.13-1.02,1.17-2.97,2.14-3.21,1.07-.26,2.99.61,3.67,1.59,1.71,2.44,3.34,5.09,4.27,7.9,3.97,11.91,8.26,23.77,11.36,35.91,4.83,18.95,8.78,38.13,13.03,56.88Z"/>
      <g>
        <g>
          <path class="cls-1" d="M224.64,272.01c-4.5-3.38-5.77-7.63-6.89-11.78-5.66-21.05-15.06-40.62-23.56-60.56-10.21-23.93-20.15-47.98-30.21-71.98-9.5-22.65-10.09-46.47-8.71-70.41.29-4.97,2.44-10.1,4.78-14.62,6.37-12.27,16.54-21.14,27.96-28.49,3.11-2,7.24-3.07,10.98-3.33,19.2-1.3,38.17-.78,55.81,8.58,6.43,3.41,14.02,3.82,20.24,8.32,4.69,3.4,9.16,6.76,11.49,12.04,4.89,11.09,9.55,22.3,14,33.58,1.08,2.74,1.65,6.08,1.2,8.95-1.53,9.79-1.53,19.74-5.13,29.34-8.84,23.53-16.28,47.59-25.45,70.98-10.28,26.26-22.84,51.53-36.99,75.96-2.75,4.74-6.35,8.99-9.51,13.42ZM178.12,89.22c.22,6.14-.29,12.21,2.8,17.86,6.77,12.38,16.73,19.35,31.19,19.82,12.6.41,23.95-3.78,34.77-9.24,24.32-12.28,24.61-34.68,12.34-54.93-3.45-5.68-9.45-10.16-15.02-14.15-11.55-8.29-24.68-8.75-37.08-3.08-18.32,8.4-28.67,23-29,43.72Z"/>
          <path class="cls-1" d="M188.22,88.61c.05-16.32,8.65-27.59,21.88-35.79,13.74-8.5,23.22-7.54,35.44,2.92,1.97,1.69,3.7,3.66,5.68,5.35,8.96,7.64,9.74,18.24,9.12,28.58-.52,8.67-6.16,15.55-13.98,19.1-8.22,3.73-16.93,6.93-25.76,8.58-11.33,2.11-21.25-1.41-28.54-11.29-4.02-5.46-3.55-11.36-3.83-17.47Z"/>
        </g>
        <g>
          <path class="cls-2" d="M144.12,76.44c0-7.03.04-13.12,0-19.2-.06-7.66,2.59-14.43,6.51-20.85,8.1-13.28,19.27-23.48,32.27-31.68,3.19-2.02,7.17-3.58,10.9-3.83,17.35-1.18,34.78-2.03,51.68,3.44,14.16,4.58,27.07,11.88,39.06,20.43,10.25,7.31,15.34,18.79,18.84,30.56,3.72,12.52,5.83,25.35,4.18,38.59-.91,7.32-1.07,14.74-1.84,22.08-.36,3.44-1.01,6.93-2.13,10.19-8.5,24.58-15.39,49.76-27.69,72.94-5.49,10.34-9.6,21.42-15.1,31.76-9.18,17.24-18.92,34.18-28.55,51.18-2.21,3.9-5.67,4.41-8.53,1.41-7.51-7.9-13.67-16.36-17.52-27.01-6.34-17.52-14.56-34.37-21.84-51.56-10.32-24.39-20.82-48.72-30.64-73.31-7.15-17.9-11.16-36.57-9.58-55.12ZM224.64,272.01c3.17-4.43,6.77-8.67,9.51-13.42,14.15-24.42,26.71-49.7,36.99-75.96,9.16-23.39,16.61-47.45,25.45-70.98,3.61-9.6,3.6-19.54,5.13-29.34.45-2.87-.12-6.21-1.2-8.95-4.44-11.28-9.11-22.48-14-33.58-2.33-5.28-6.79-8.64-11.49-12.04-6.21-4.5-13.81-4.91-20.24-8.32-17.64-9.36-36.61-9.88-55.81-8.58-3.74.26-7.88,1.32-10.98,3.33-11.41,7.35-21.59,16.22-27.96,28.49-2.34,4.51-4.49,9.65-4.78,14.62-1.38,23.95-.79,47.76,8.71,70.41,10.06,24,20,48.04,30.21,71.98,8.5,19.94,17.9,39.51,23.56,60.56,1.12,4.15,2.39,8.4,6.89,11.78Z"/>
          <path class="cls-2" d="M178.12,89.22c.33-20.72,10.68-35.32,29-43.72,12.39-5.68,25.53-5.21,37.08,3.08,5.57,3.99,11.57,8.47,15.02,14.15,12.27,20.24,11.98,42.65-12.34,54.93-10.82,5.46-22.17,9.65-34.77,9.24-14.46-.47-24.42-7.44-31.19-19.82-3.09-5.64-2.58-11.72-2.8-17.86ZM188.22,88.61c.28,6.1-.19,12.01,3.83,17.47,7.29,9.88,17.21,13.4,28.54,11.29,8.83-1.65,17.55-4.85,25.76-8.58,7.82-3.56,13.46-10.43,13.98-19.1.61-10.34-.16-20.95-9.12-28.58-1.98-1.69-3.7-3.66-5.68-5.35-12.21-10.47-21.69-11.42-35.44-2.92-13.23,8.19-21.83,19.47-21.88,35.79Z"/>
        </g>
      </g>
      <g>
        <g>
          <path class="cls-2" d="M388.96,326.78c-4.24-3.12-8.1-5.49-11.44-8.46-25.43-22.63-42.86-51-57.43-81.27-7.62-15.84-9.02-32.9-7.42-50.18.37-4.04,1.74-8.32,3.82-11.79,5.81-9.68,12.62-18.46,22.45-24.78,10.94-7.03,21.81-13.88,34.7-16.75,11.2-2.5,22.38-2.87,33.32.97,21.39,7.51,37.42,21.42,48.34,41.26.6,1.09,1.34,2.22,1.54,3.4,1.7,9.84,3.8,19.66,4.68,29.58.43,4.79-.73,10.1-2.51,14.65-7.02,17.91-15.54,35.1-26.67,50.89-1.2,1.7-2.41,3.47-3.92,4.86-12.42,11.38-21.72,25.32-31.81,38.6-2.22,2.93-4.76,5.61-7.68,9.04ZM386.21,316.84c2.94-3.75,5.57-7.93,8.99-11.33,11.62-11.5,21.59-24.26,30.48-37.96,8.43-12.99,15.73-26.51,22.02-40.7,5.44-12.28,4.86-24.49.95-36.55-4.59-14.15-13.08-26.04-24.42-35.81-15.42-13.28-32.66-17.57-52.45-11.52-10.21,3.12-18.6,9.21-27.5,14.63-8.54,5.21-14.18,12.85-19.31,20.97-1.71,2.71-2.71,6.2-2.98,9.42-1.38,16.45.16,32.43,7.57,47.62,14.54,29.8,33.15,56.73,56.66,81.21Z"/>
          <path class="cls-2" d="M390.93,239.92c-7.13.47-13.68-.12-20.33-4.11-9.11-5.45-13.65-13.06-15.35-22.91-2.4-13.91,1.12-26.43,9.65-37.55,1.22-1.59,3.01-2.95,4.82-3.82,6-2.89,11.97-5.98,18.27-8.02,3.37-1.1,7.76-1.21,11.04,0,7.39,2.7,14.57,6.16,21.46,9.99,4.21,2.33,6.17,7.08,6.46,11.69.55,8.72,1.14,17.58.21,26.22-1.12,10.48-7.97,18.25-15.83,24.68-2.7,2.21-6.81,3.04-10.42,3.71-3.23.6-6.66.13-10,.13ZM421.11,198.61c-.34-4.15-.29-8.4-1.18-12.44-.59-2.69-1.87-6.01-3.96-7.47-9.41-6.59-19.55-11.18-31.61-8.62-4.77,1.02-8.96,3.26-11.24,7.29-5.15,9.08-10.02,18.48-8.78,29.49.91,8.07,3.94,15.41,9.93,20.96,5.84,5.41,25.34,6.57,32.22,2.33,1.74-1.07,3.27-2.58,4.68-4.08,7.26-7.71,10.85-16.75,9.94-27.47Z"/>
        </g>
        <g>
          <path class="cls-1" d="M386.21,316.84c-23.51-24.48-42.12-51.41-56.66-81.21-7.41-15.19-8.94-31.17-7.57-47.62.27-3.22,1.27-6.71,2.98-9.42,5.13-8.12,10.77-15.76,19.31-20.97,8.9-5.42,17.29-11.51,27.5-14.63,19.79-6.05,37.03-1.76,52.45,11.52,11.33,9.77,19.83,21.65,24.42,35.81,3.91,12.06,4.49,24.27-.95,36.55-6.28,14.19-13.59,27.71-22.02,40.7-8.89,13.69-18.85,26.45-30.48,37.96-3.42,3.39-6.05,7.58-8.99,11.33ZM390.93,239.92c3.34,0,6.77.48,10-.13,3.61-.67,7.72-1.5,10.42-3.71,7.85-6.43,14.7-14.2,15.83-24.68.93-8.64.34-17.5-.21-26.22-.29-4.61-2.25-9.35-6.46-11.69-6.89-3.83-14.07-7.29-21.46-9.99-3.28-1.2-7.67-1.09-11.04,0-6.3,2.04-12.27,5.13-18.27,8.02-1.81.87-3.61,2.24-4.82,3.82-8.53,11.12-12.06,23.64-9.65,37.55,1.7,9.84,6.24,17.46,15.35,22.91,6.65,3.98,13.2,4.58,20.33,4.11Z"/>
          <path class="cls-1" d="M421.11,198.61c.92,10.72-2.68,19.76-9.94,27.47-1.41,1.5-2.94,3.01-4.68,4.08-6.88,4.24-26.38,3.08-32.22-2.33-5.99-5.55-9.02-12.9-9.93-20.96-1.24-11.01,3.63-20.41,8.78-29.49,2.28-4.03,6.47-6.27,11.24-7.29,12.06-2.57,22.21,2.02,31.61,8.62,2.08,1.45,3.37,4.77,3.96,7.47.89,4.04.83,8.29,1.18,12.44Z"/>
        </g>
      </g>
    </g>
  </g>
</svg>