<?xml version="1.0" encoding="UTF-8"?>
<svg id="_レイヤー_2" data-name="レイヤー 2" xmlns="http://www.w3.org/2000/svg" viewBox="0 0 626.26 442.68">
  <g id="_レイヤー_1-2" data-name="レイヤー 1">
    <path d="M624.71,141.08c-.51,13.86-1.24,27.72-1.44,41.59-.11,7.82.87,15.65,1,23.48.28,16.19-.61,32.47.69,48.57,2.02,25.02,1.73,49.83-1.23,74.75-2.45,20.66-3.06,41.53-8.07,61.87-.87,3.55-1.28,7.36-1.07,11,.44,7.78-3.84,14.13-6.05,21.05-1.58,4.94-5.91,8.1-11.19,9.51-8.14,2.18-16.35,3.18-24.68,1.42-15.2-3.22-30.45-.86-45.68-.56-7.83.15-15.67,1.16-23.48.96-19.9-.51-39.79-1.15-59.63,1.02-6.88.75-13.74,1.81-20.65,2.28-23.98,1.64-47.96,3.45-71.97,4.46-12.41.53-24.92-.03-37.34-.88-24.48-1.67-48.99-1.89-73.5-1.67-20.34.19-40.69,1.01-61.02,2.01-25.53,1.26-50.88-.36-76.16-3.64-12.81-1.66-25.71-3.02-38.31-5.74-11.24-2.42-22.85-5.08-32.97-10.24-14.07-7.18-21.08-20.35-22.1-36.23-.98-15.24-1.72-30.5-2.43-45.75-1.11-24.02-2.26-48.03-3.06-72.06-.26-7.83.15-15.74.91-23.54,1.76-18.04,1.27-36.03-.39-54.03-.3-3.22-.82-6.44-.96-9.67C2.6,151.94,1.23,122.83.1,93.71c-.27-6.91.07-13.87.5-20.78,1.4-22.36,15.05-36.09,33.69-45.35,13.61-6.76,28.32-11.04,42.97-15.2,21.01-5.97,42.33-9.57,64.25-9.69,12.47-.07,24.94-1.16,37.42-1.63,33.73-1.26,67.41-1.87,101.17.93,24.41,2.03,49.01,1.67,73.5,2.87,24.49,1.19,48.94,3.8,73.43,4.3,28.32.58,56.21,4.95,84.3,7.52,24.88,2.27,49.73,4.99,74.49,8.26,8.61,1.14,17.01,4.24,25.32,7.01,6.2,2.07,9.36,6.58,9.84,13.57,1.02,14.76,2.88,29.46,4.17,44.2.44,5.05.39,10.17.25,15.25-.33,12.03-.85,24.05-1.29,36.08.2,0,.39.02.59.02ZM610.14,39.46c-3.11-4.65-7.72-6-12.13-6.91-11.3-2.31-22.65-4.49-34.08-5.98-19.71-2.57-39.49-4.62-59.25-6.79-20.21-2.22-40.42-4.34-60.64-6.47-1.84-.19-3.7-.17-5.54-.26-12-.58-24-1.1-35.99-1.75-10.62-.57-21.23-1.24-31.84-1.93-6.91-.45-13.8-1.18-20.72-1.52-11.08-.55-22.21-1.68-33.26-1.15-23.19,1.12-46.21.18-69.27-2.2-10.04-1.04-20.27-.32-30.42-.31-6,0-12.01.2-18.01.28-4.61.06-9.24-.19-13.84.13-17.02,1.18-34.18,1.11-50.94,5.05-1.77.42-3.68.3-5.53.35-12.49.31-24.94.83-37,4.7-2.61.84-5.49.77-8.2,1.32-3.59.73-7.29,1.25-10.68,2.56-10.77,4.16-21.52,8.4-32.05,13.11-5.45,2.44-10.7,5.55-15.55,9.05-5.81,4.19-5.83,8.61-.56,13.63,9.71,9.24,19.8,18.09,29.28,27.55,18.98,18.96,38.07,37.79,58.45,55.26,10.87,9.32,22.15,18.19,32.78,27.78,16.12,14.54,31.82,29.55,47.76,44.28,2.62,2.42,5,5.5,9.75,5.37,2.04-2.87,4.06-5.91,6.28-8.79,7.06-9.18,14.16-18.37,24.54-24.16,7.76-4.32,16.13-7.98,24.98-6.56,15.09,2.42,29.98,6.09,40.98,18.14.26.29.87.25,1.32.37.42-.1.94-.09,1.25-.33,1.09-.85,2.24-1.66,3.12-2.7,10.1-11.84,23.92-18.29,38.29-20.75,25.05-4.29,54.26,4.25,69.71,32.07,1.23,2.21,2.84,4.21,4.37,6.44,1.92-1.3,3.15-1.95,4.17-2.85,22.2-19.56,44.14-39.43,66.66-58.62,14.4-12.27,29.7-23.47,44.49-35.28,23.47-18.73,45.37-39.36,69.61-57.15,5.06-3.72,8.12-8.68,7.72-14.97ZM35.47,408.13c.98,5.43,5.1,6.63,8.9,8.26,15.87,6.78,32.88,9.33,49.64,12.11,21.4,3.56,43.06,5.82,64.87,5.36,9.7-.2,19.41-.33,29.12-.43,16.62-.17,33.25-.21,49.87-.45,20.33-.29,40.71-1.85,60.98-.87,37.01,1.79,73.93.88,110.88-.66,10.16-.42,20.37-.37,30.48-1.39,20.72-2.1,41.41-3.47,62.25-2.58,8.29.35,16.62-.48,24.93-.67,20.79-.47,41.58-.84,62.36-1.37,2.57-.07,5.11-.84,7.14-1.19,2.01-5.8-1.66-7.73-4.4-9.98-26.08-21.43-53.56-40.96-81.78-59.46-17.43-11.42-34.3-23.65-49.21-38.23-16.64-16.28-35.01-30.1-55.25-41.5-2.31-1.3-4.98-1.95-7.71-2.99-2.03,1.85-3.78,3.31-5.38,4.92-9.77,9.83-19.61,19.58-29.22,29.56-12.79,13.29-25.5,26.66-38,40.23-6.6,7.16-12.44,9.17-20.69,4.56-22.17-12.37-45.36-23.01-65.73-38.48-2.94-2.23-5.98-4.39-9.2-6.16-7.85-4.31-14.33-10-19.4-17.41-1.47-2.14-3.77-3.71-5.95-5.79-12.89,8.49-24.88,17.06-37.52,24.52-12,7.08-23.28,15.01-34.08,23.74-13.65,11.04-27.22,22.21-41.13,32.91-13.16,10.12-26.8,19.63-40.1,29.57-5.85,4.37-12.46,7.92-16.68,13.88ZM404.46,263.26c6.75,3.96,11.92,6.91,17.01,10,4.33,2.63,8.88,5.05,12.78,8.23,9.31,7.58,18.57,15.27,27.38,23.42,21.09,19.51,43.52,37.19,67.75,52.69,24.13,15.44,47.62,31.84,68.96,51.1,1.16,1.05,3.1,1.24,5.38,2.1,1.15-3.27,2.23-5.74,2.87-8.33,1.11-4.48,1.69-9.09,2.92-13.53,7.2-26.07,8.86-52.84,9.84-79.65.47-12.93.42-25.9-.05-38.83-.75-20.76-2.44-41.49-3-62.25-.52-19.41-.03-38.84-.09-58.26-.08-24.04-.16-48.09-.47-72.13-.08-5.91.52-12.09-3.09-17.69-1.31.27-2.87.16-3.88.86-8.36,5.77-16.92,11.3-24.85,17.63-18.42,14.68-36.51,29.78-54.75,44.68-8.58,7.01-17.32,13.82-25.77,20.98-17.27,14.63-34.41,29.42-51.59,44.16-7.02,6.02-14.22,11.85-20.94,18.18-7.46,7.02-13.47,14.98-14.73,25.77-1.23,10.57-3.84,20.81-11.66,30.87ZM26.97,401.07c4.99-1.07,8.47-5.06,12.7-7.74,5.07-3.21,9.76-7.06,15.02-9.88,15.18-8.16,28.69-18.69,41.63-29.82,24.56-21.13,49.88-41.15,77.14-58.74,9.57-6.17,18.27-13.67,28.3-21.27-6.17-14.94-4.81-30.61-3.14-45.98-15.77-15.43-30.69-30.58-46.22-45.06-12.83-11.97-26.24-23.34-39.67-34.64-15.9-13.39-31.78-26.74-46.04-41.96-11.37-12.13-23.39-23.65-35.2-35.36-4.94-4.89-10.5-8.93-17.54-11.88-1.51,1.87-3.54,3.38-4.11,5.31-1.17,3.95-2.16,8.13-2.14,12.21.06,11.09.37,22.2,1.14,33.26,1.4,20.28,3.45,40.51,2.35,60.9-.3,5.5-.09,11.19,1,16.56,1.87,9.2,1.73,18.37,1.26,27.61-1.33,26.28-2.26,52.57-.58,78.88,1.44,22.57,3.1,45.12,3.39,67.75.13,10.1.42,20.31,3.35,30.18,1.23,4.14,2.73,7.87,7.38,9.66ZM312.91,347.03c4.13-2.84,7.44-4.53,10.01-6.99,10.69-10.2,21.31-20.49,31.68-31.02,12.32-12.5,24.52-25.12,36.47-37.98,12.8-13.78,19.24-30.23,19.09-49.13-.09-10.74-4.18-19.72-12-27.05-12.77-11.98-28.3-18.43-45.38-17.44-20.9,1.21-39.96,7.7-49.51,29.29-.77,1.73-2.96,2.83-4.59,4.33-.82-1.21-1.16-1.56-1.31-1.97-.31-.86-.65-1.74-.75-2.63-1.13-10.55-7.54-16.43-17.18-19.42-4.85-1.51-9.64-3.41-14.61-4.32-12.34-2.24-24.07-.94-33.46,8.46-5.53,5.54-11.64,10.88-15.7,17.42-12.45,20.04-14.89,41.15-4.93,63.3,6.35,14.13,16.7,24.19,29.64,31.95,23.74,14.24,47.56,28.34,72.53,43.21Z"/>
  </g>
</svg>