<?xml version="1.0" encoding="UTF-8"?>
<svg id="_レイヤー_2" data-name="レイヤー 2" xmlns="http://www.w3.org/2000/svg" viewBox="0 0 2071.39 2097.37">
  <defs>
    <style>
      .cls-1 {
        fill: none;
        stroke: #000;
        stroke-miterlimit: 22.93;
        stroke-width: 6.12px;
      }
    </style>
  </defs>
  <g id="_レイヤー_1-2" data-name="レイヤー 1">
    <path class="cls-1" d="M2071.34,1859.53c-309.82,4.87-508.66-10.69-541.12,20.17-23.72,22.55,141.64,193.69,174.41,209.81,87.98,43.27-64.67-220.33-74.77-232.29-48.46-57.39-47.83-123.07-70.79-177.28-22.96-54.21,36.99-35.71,14.03-20.41-22.96,15.31-373.22-359.02-387.41-373.53-14.19-14.51-35.87-1.71-38.74,3.31-2.87,5.02,16.9,4.54,26.47-7.89,9.57-12.44,8.61-51.65-8.93-67.92-17.54-16.26-41.96.45-51.34-4.46-9.37-4.92-85.01-321.6-89.95-333.4-4.94-11.8.46-48.81,3.38-51.14,2.92-2.33,22.51,23.3,38.53,37.4,16.02,14.1,74.82,322.75,75.78,333.59.96,10.84-21.84-2.55-38.42,29.34-16.58,31.89,20.73,42.41,20.73,57.71,0,6.56-151.85,241.18-149.54,271.19.8,10.36,23.91.96,36.99-9.25,13.07-10.2,124.25-221.29,127.54-249.82,1.09-9.42-28.59-26.95-32.05-20.95-15.22,26.38-148.59,233.08-143.49,262.1,5.1,29.02-2.87,429.18-240.74,225.75-237.86-203.43-278.68-545.24-217.46-736.55,224.25-700.78,1409.13-624.16,1255,409.41-71.13,477-942.04,593.63-1229.83,202.01-242.46-329.94-140.6-781.7,179.53-1021.78,12.75-9.57-3.83-27.1-13.39-50.7-9.57-23.59,191.63-101.71,236.59-152.09,62.65-70.2-207.64-242.9-364.13-36.99-21.65,28.49,133.55-30.93,155.92-89.6,11.8-30.93,30.63-108.49,116.72-178.64,86.09-70.15,488.78-49.02,562.12-17.14,148.39,64.52,66.99,193.11,187.89,185.89,42.73-2.55-46.96-162.62-156.01-230.22-109.05-67.6-437.47-39.22-524.19-14.99-52.15,14.57-98.42,30.6-133.47,61.21-31.8,27.77-46.26,69.69-68.35,109.43-45.67,82.17-58.75,86.69-141.27,121.43-14.84,6.25-39.47-53.35-1.28-66.32,16.9-5.74,42.09-15.94,28.7-36.03-14.65-21.98-100.54,5.84-55.8,56.76,9.25,10.52,58.28-21.34,74.54-25.16,16.26-3.83,22.66,23.91,17.56,41.77-5.1,17.86-83.81,31.86-150.13,118.58-66.32,86.73-52.29,199.6-20.41,242.97,31.89,43.36,262.96-146.51,289.2-144.44,26.25,2.07,62.44,55.56,59.89,82.34-7.79,81.76-260.94,13.35,135.07-96.58,107.37-29.81,213.63-31.58,215.43-38.38,4.05-15.33-31.25-12.12-37.46-17.7-6.22-5.58-1.83-82.03-1.99-90.87-.16-8.85,67.76-5.66,78.44-8.69,3.5-.99-1.12-54.46-2.23-57.07-4.62-10.84-114.39-2.23-127.06.8-9.44,2.26-3.31,54.08-1.06,55.14,16.78,7.89,64.13-9.27,69.22,1.46,5.9,12.43,2.81,93.12,2.81,103.64s-38.36,3.01-49.2,14.81c-10.84,11.8-3.98,15.94,103.79,8.93,107.77-7.02,272.3,92.79,281.23,90.87,8.93-1.91,5.9-16.58,28.54-28.7,22.64-12.12,257.32,149.22,308.01,124.35,50.7-24.87,55.79-167.4-11.17-245.52-66.96-78.12-154.64-99.8-160.38-111.6-5.74-11.8,9.88-47.19,30.29-51.97,20.41-4.78,55.49,28.79,63.45,23.6s16.58-18.49-21.36-40.81c-37.94-22.32-55.16.32-52.93,17.54,2.23,17.22,48.78,29.33,64.09,34.76,15.3,5.42-2.55,44.64-15.94,53.57-13.39,8.93-141.89-67.6-256.68-42.09-114.79,25.51-126.58,93.11-116.06,125.95s241.68,112.24,234.67,139.66c-36.58,142.98-144.36,22.78-77.16,15.94,37.63-3.83,235.99,120.32,327.78,401.12,178.48,545.99-247.61,1054.81-817.01,968.82-156.24-23.6-306.99-134.82-316.36-135.97-25.78-3.16-232.09,292.69-125.31,284.15,31.88-2.55,169.65-166.65,179.22-192.16,19.89-53.05-365.88-67.33-742.45-73.29"/>
  </g>
</svg>