<?xml version="1.0" encoding="UTF-8"?>
<svg id="_レイヤー_2" data-name="レイヤー 2" xmlns="http://www.w3.org/2000/svg" viewBox="0 0 282.37 274.1">
  <defs>
    <style>
      .cls-1 {
        fill: #4f4840;
      }

      .cls-2 {
        fill: #3b1e10;
      }

      .cls-3 {
        fill: #e0a480;
      }

      .cls-4 {
        fill: #e6e6e6;
      }

      .cls-5 {
        fill: #ba4e4e;
      }

      .cls-6 {
        fill: #e0b094;
      }

      .cls-7 {
        fill: #fff;
      }

      .cls-7, .cls-8 {
        opacity: .1;
      }

      .cls-9 {
        fill: #ed9c6d;
      }

      .cls-10 {
        fill: #e05e5e;
      }

      .cls-11 {
        fill: #361b0f;
      }

      .cls-12 {
        fill: #e08e5e;
      }

      .cls-13 {
        fill: #c9b9a2;
      }

      .cls-14 {
        fill: #807567;
      }

      .cls-15 {
        fill: #e3dcd8;
      }

      .cls-16 {
        fill: #deae73;
      }

      .cls-17 {
        fill: #a36745;
      }

      .cls-18 {
        fill: #87503d;
      }

      .cls-19 {
        fill: #f2ebe7;
      }

      .cls-20 {
        opacity: .5;
      }

      .cls-21 {
        opacity: .2;
      }

      .cls-22 {
        opacity: .3;
      }

      .cls-23 {
        opacity: .05;
      }

      .cls-24 {
        fill: #b3714b;
      }

      .cls-25 {
        fill: #825236;
      }

      .cls-26 {
        fill: #5d2f1a;
      }

      .cls-27 {
        fill: #0f1d2b;
      }
    </style>
  </defs>
  <g id="Objects">
    <g>
      <g>
        <g>
          <rect class="cls-12" x="12.26" width="257.85" height="257.85"/>
          <rect class="cls-6" x="12.26" y="201.31" width="257.85" height="6.47"/>
          <g>
            <rect class="cls-26" x="36.11" y="77.12" width="75.75" height="171.48"/>
            <rect class="cls-2" x="43.46" y="86.18" width="61.88" height="28.45"/>
            <rect class="cls-27" x="46.93" y="88.75" width="54.94" height="23.31"/>
            <path class="cls-11" d="M98.64,205.69v27.12h-48.49v-27.12h48.49M101.87,202.47h-54.94v33.57h54.94v-33.57h0Z"/>
            <path class="cls-22" d="M106.31,175.21c-1.76,0-3.18,1.42-3.18,3.18,0,.42.08.81.23,1.17l-19.33,19.33c-.4-.18-.84-.29-1.31-.29-1.76,0-3.18,1.42-3.18,3.18s1.42,3.18,3.18,3.18,3.18-1.42,3.18-3.18c0-.41-.08-.79-.22-1.15l19.34-19.34c.39.17.83.28,1.29.28,1.76,0,3.18-1.42,3.18-3.18s-1.42-3.18-3.18-3.18Z"/>
            <rect class="cls-2" x="43.46" y="117.35" width="61.88" height="79"/>
            <rect class="cls-27" x="46.93" y="121.78" width="54.94" height="70.15"/>
            <rect class="cls-5" x="54.61" y="143.21" width="39.57" height="19.56"/>
            <rect class="cls-10" x="54.61" y="141.98" width="39.57" height="19.56"/>
            <rect class="cls-15" x="63.28" y="97.66" width="22.24" height="5.5"/>
            <path class="cls-16" d="M106.31,172.1c-1.76,0-3.18,1.42-3.18,3.18,0,.42.08.81.23,1.17l-19.33,19.33c-.4-.18-.84-.29-1.31-.29-1.76,0-3.18,1.42-3.18,3.18s1.42,3.18,3.18,3.18,3.18-1.42,3.18-3.18c0-.41-.08-.79-.22-1.15l19.34-19.34c.39.17.83.28,1.29.28,1.76,0,3.18-1.42,3.18-3.18s-1.42-3.18-3.18-3.18Z"/>
            <rect class="cls-2" x="36.11" y="77.12" width="75.75" height="2.66"/>
          </g>
          <rect class="cls-26" x="135.01" y="70.99" width="127.94" height="126.57"/>
          <rect class="cls-19" x="12.72" y="28.84" width="257.39" height="34.96"/>
          <rect class="cls-1" x="36.11" y="240.97" width="75.75" height="16.87"/>
          <rect class="cls-27" x="140.28" y="77.12" width="117.39" height="34.94"/>
          <rect class="cls-27" x="140.28" y="115.64" width="117.39" height="73.06"/>
          <path class="cls-18" d="M28.69,80.34v107.16h-8.56v-107.16h8.56M31.92,77.12h-15.01v113.61h15.01v-113.61h0Z"/>
          <path class="cls-18" d="M127.96,80.34v107.16h-8.56v-107.16h8.56M131.18,77.12h-15.01v113.61h15.01v-113.61h0Z"/>
          <path class="cls-18" d="M258.6,215.62v22.13H119.4v-22.13h139.21M261.83,212.4H116.17v28.57h145.65v-28.57h0Z"/>
          <rect class="cls-9" x="122.62" y="217.75" width="132.76" height="17.88"/>
          <path class="cls-17" d="M259.02,7.32v14.49H19.71V7.32h239.31M261.83,4.51H16.91v20.09h244.92V4.51h0Z"/>
          <rect class="cls-9" x="22.36" y="9.37" width="234.01" height="10.38"/>
          <rect class="cls-13" x="12.26" y="248.6" width="257.85" height="9.25"/>
          <rect class="cls-14" x="12.26" y="248.6" width="257.85" height="4.62"/>
          <path class="cls-22" d="M263.21,88.03v21.46c0,9.1-7.37,16.47-16.47,16.47h-95.52c-9.1,0-16.47-7.37-16.47-16.47v-21.46h128.46Z"/>
          <path class="cls-15" d="M263.21,69.59v21.46c0,9.1-7.37,16.47-16.47,16.47h-95.52c-9.1,0-16.47-7.37-16.47-16.47v-21.46h128.46Z"/>
          <rect class="cls-8" x="134.75" y="69.59" width="128.46" height="14.08"/>
          <path class="cls-12" d="M46.93,46.32c0,2.35-1.9,4.25-4.25,4.25s-4.25-1.9-4.25-4.25,1.91-4.25,4.25-4.25,4.25,1.9,4.25,4.25Z"/>
          <path class="cls-12" d="M247.03,46.32c0,2.35-1.9,4.25-4.25,4.25s-4.25-1.9-4.25-4.25,1.9-4.25,4.25-4.25,4.25,1.9,4.25,4.25Z"/>
          <rect class="cls-23" x="12.72" y="46.32" width="257.39" height="17.48"/>
          <rect class="cls-8" x="12.72" y="63.8" width="257.39" height="3.56"/>
          <g>
            <rect class="cls-10" x="242.34" y="161.54" width="5.07" height="27.16"/>
            <rect class="cls-8" x="244.87" y="161.54" width="2.54" height="27.16"/>
          </g>
          <g>
            <rect class="cls-25" x="140.28" y="177" width="30.98" height="6.54"/>
            <rect class="cls-8" x="140.28" y="179.93" width="30.98" height="3.61"/>
          </g>
          <g>
            <rect class="cls-3" x="185.37" y="168.23" width="5.07" height="20.47"/>
            <rect class="cls-8" x="187.9" y="168.23" width="2.54" height="20.47"/>
          </g>
          <g>
            <rect class="cls-3" x="173.2" y="161.54" width="5.07" height="27.16"/>
            <rect class="cls-8" x="175.73" y="161.54" width="2.54" height="27.16"/>
          </g>
          <g>
            <rect class="cls-24" x="247.41" y="154.66" width="10.14" height="34.04"/>
            <path class="cls-4" d="M255.38,182.34c0,1.6-1.3,2.9-2.9,2.9s-2.9-1.3-2.9-2.9,1.3-2.9,2.9-2.9,2.9,1.3,2.9,2.9Z"/>
            <rect class="cls-8" x="252.48" y="154.66" width="5.07" height="34.04"/>
          </g>
          <g>
            <rect class="cls-3" x="230.13" y="147.75" width="12.2" height="40.95"/>
            <path class="cls-27" d="M239.13,154.66c0,1.6-1.3,2.89-2.9,2.89s-2.9-1.3-2.9-2.89,1.3-2.9,2.9-2.9,2.9,1.3,2.9,2.9Z"/>
            <rect class="cls-8" x="236.24" y="147.75" width="6.1" height="40.95"/>
          </g>
          <g>
            <rect class="cls-5" x="225.06" y="161.54" width="5.07" height="27.16"/>
            <rect class="cls-4" x="226.35" y="177" width="2.5" height="10.07"/>
            <rect class="cls-8" x="227.6" y="161.54" width="2.54" height="27.16"/>
          </g>
          <g>
            <rect class="cls-24" x="207" y="174.79" width="20.47" height="6.66" transform="translate(-43.18 283.48) rotate(-61.38)"/>
            <rect class="cls-4" x="211.72" y="182.28" width="3.74" height="5.35" transform="translate(-51.09 283.81) rotate(-61.37)"/>
            <rect class="cls-8" x="208.38" y="177.11" width="20.47" height="3.52" transform="translate(-43.14 285.05) rotate(-61.37)"/>
          </g>
          <g>
            <rect class="cls-5" x="190.47" y="161.54" width="5.07" height="27.16"/>
            <rect class="cls-8" x="193.01" y="161.54" width="2.54" height="27.16"/>
          </g>
          <g>
            <rect class="cls-10" x="178.27" y="159.01" width="7.09" height="29.69"/>
            <path class="cls-27" d="M183.73,184.25c0,1.06-.86,1.91-1.91,1.91s-1.91-.86-1.91-1.91.86-1.91,1.91-1.91,1.91.86,1.91,1.91Z"/>
            <rect class="cls-8" x="181.82" y="159.01" width="3.55" height="29.69"/>
          </g>
          <g>
            <rect class="cls-24" x="145.12" y="169.74" width="15.15" height="7.26"/>
            <path class="cls-27" d="M150.28,173.37c0,1.06-.86,1.91-1.92,1.91s-1.91-.86-1.91-1.91.86-1.92,1.91-1.92,1.92.86,1.92,1.92Z"/>
            <rect class="cls-8" x="145.12" y="173.37" width="15.15" height="3.63"/>
          </g>
          <g>
            <rect class="cls-10" x="140.28" y="183.63" width="27.16" height="5.07"/>
            <path class="cls-27" d="M165.87,186.17c0,.71-.58,1.29-1.29,1.29s-1.29-.58-1.29-1.29.58-1.29,1.29-1.29,1.29.58,1.29,1.29Z"/>
            <rect class="cls-8" x="140.28" y="186.17" width="27.16" height="2.53"/>
          </g>
          <rect class="cls-9" x="120.87" y="82.25" width="5.56" height="103.92"/>
          <rect class="cls-9" x="21.63" y="82.25" width="5.56" height="103.92"/>
          <path class="cls-18" d="M28.69,215.62v22.13h-8.56v-22.13h8.56M31.92,212.4h-15.01v28.57h15.01v-28.57h0Z"/>
          <rect class="cls-9" x="21.63" y="217.45" width="5.56" height="18.61"/>
          <rect class="cls-21" x="135.01" y="188.7" width="127.94" height="4.36"/>
          <g class="cls-20">
            <polygon class="cls-7" points="74.45 121.78 101.87 149.2 101.87 130.28 93.37 121.78 74.45 121.78"/>
            <polygon class="cls-7" points="46.93 184.13 54.73 191.93 101.87 191.93 101.87 191.82 46.93 136.88 46.93 184.13"/>
            <polygon class="cls-7" points="46.93 121.78 46.93 122.63 101.87 177.57 101.87 158.65 65 121.78 46.93 121.78"/>
            <polygon class="cls-7" points="83.64 112.06 60.34 88.75 46.93 88.75 46.93 94.26 64.72 112.06 83.64 112.06"/>
            <polygon class="cls-7" points="74.5 88.75 97.81 112.06 101.87 112.06 101.87 88.75 74.5 88.75"/>
          </g>
          <g class="cls-20">
            <polygon class="cls-7" points="140.28 115.64 140.28 154.53 174.46 188.7 221.7 188.7 148.64 115.64 140.28 115.64"/>
            <polygon class="cls-7" points="162.89 115.64 235.95 188.7 254.87 188.7 181.81 115.64 162.89 115.64"/>
            <polygon class="cls-7" points="191.26 115.64 257.67 182.05 257.67 163.13 210.18 115.64 191.26 115.64"/>
            <polygon class="cls-7" points="243.57 115.64 257.67 129.74 257.67 115.64 243.57 115.64"/>
          </g>
        </g>
        <path class="cls-14" d="M4.03,257.85h274.31c2.22,0,4.03,1.8,4.03,4.03v8.19c0,2.22-1.8,4.03-4.03,4.03H4.03c-2.22,0-4.03-1.8-4.03-4.03v-8.19c0-2.22,1.81-4.03,4.03-4.03Z"/>
        <path class="cls-8" d="M0,265.64v4.43c0,2.22,1.8,4.03,4.03,4.03h274.31c2.23,0,4.03-1.8,4.03-4.03v-4.43H0Z"/>
      </g>
      <g>
        <path class="cls-12" d="M106.63,39.81h6.03c.69,0,1.37.05,2.04.15.67.1,1.26.3,1.79.59.52.29.95.69,1.27,1.21.32.52.48,1.19.48,2,0,.63-.15,1.22-.46,1.76-.31.54-.78.91-1.41,1.12v.11c.78.28,1.4.7,1.85,1.26.45.56.68,1.27.68,2.13,0,.73-.15,1.35-.46,1.85-.31.5-.71.91-1.21,1.22-.5.31-1.06.53-1.68.66-.62.13-1.24.2-1.86.2h-7.05v-14.25ZM111.9,45.29c.19,0,.38,0,.57-.03s.36-.06.52-.13c.16-.07.28-.17.38-.31.09-.14.14-.33.14-.59s-.05-.46-.16-.6c-.11-.13-.25-.23-.42-.28-.17-.06-.36-.09-.56-.09s-.4,0-.59,0h-.36v2.04h.47ZM111.43,50.66h.59c.21,0,.44,0,.68-.02.24-.01.46-.06.67-.13s.38-.2.52-.36c.14-.16.21-.39.21-.68s-.07-.53-.22-.69-.33-.27-.55-.34-.46-.11-.71-.12c-.25-.01-.48-.02-.68-.02h-.51v2.36Z"/>
        <path class="cls-12" d="M127.95,39.58c1.08,0,2.1.18,3.06.53.96.35,1.79.85,2.5,1.49.71.64,1.28,1.42,1.69,2.33.42.91.62,1.92.62,3.04s-.21,2.17-.62,3.07c-.42.9-.98,1.67-1.69,2.3s-1.55,1.11-2.5,1.45c-.96.33-1.98.5-3.06.5s-2.1-.17-3.06-.5c-.96-.33-1.79-.82-2.5-1.45-.71-.63-1.28-1.4-1.69-2.3-.42-.9-.62-1.93-.62-3.07s.21-2.14.62-3.04c.42-.91.98-1.68,1.69-2.33.71-.64,1.55-1.14,2.5-1.49.96-.35,1.98-.53,3.06-.53ZM127.95,44.27c-.42,0-.79.07-1.12.22-.33.15-.6.35-.83.6-.23.26-.4.55-.53.89-.13.33-.19.69-.19,1.07,0,.82.25,1.48.74,1.98.49.5,1.13.76,1.93.76s1.44-.25,1.93-.76c.49-.5.74-1.17.74-1.98,0-.38-.06-.73-.19-1.07-.13-.33-.3-.63-.53-.89s-.5-.46-.83-.6c-.33-.15-.7-.22-1.12-.22Z"/>
        <path class="cls-12" d="M145.04,39.58c1.08,0,2.1.18,3.06.53.96.35,1.79.85,2.5,1.49.71.64,1.28,1.42,1.69,2.33.42.91.62,1.92.62,3.04s-.21,2.17-.62,3.07c-.42.9-.98,1.67-1.69,2.3s-1.55,1.11-2.5,1.45c-.96.33-1.98.5-3.06.5s-2.1-.17-3.06-.5c-.96-.33-1.79-.82-2.5-1.45-.71-.63-1.28-1.4-1.69-2.3-.42-.9-.62-1.93-.62-3.07s.21-2.14.62-3.04c.42-.91.98-1.68,1.69-2.33.71-.64,1.55-1.14,2.5-1.49.96-.35,1.98-.53,3.06-.53ZM145.04,44.27c-.42,0-.79.07-1.12.22-.33.15-.6.35-.83.6-.23.26-.4.55-.53.89-.13.33-.19.69-.19,1.07,0,.82.25,1.48.74,1.98.49.5,1.13.76,1.93.76s1.44-.25,1.93-.76c.49-.5.74-1.17.74-1.98,0-.38-.06-.73-.19-1.07-.13-.33-.3-.63-.53-.89s-.5-.46-.83-.6c-.33-.15-.7-.22-1.12-.22Z"/>
        <path class="cls-12" d="M154.42,39.81h5.05l-.11,6.18h.11c.06-.29.16-.57.3-.83s.28-.52.42-.77l2.5-4.58h5.65l-4.46,6.94,4.93,7.32h-6.01l-2.46-4.31c-.15-.28-.32-.55-.5-.82-.18-.27-.31-.55-.37-.84h-.11l.11,5.97h-5.05v-14.25Z"/>
        <path class="cls-12" d="M170.75,48.96l.26.21c.47.37.97.67,1.51.93.54.25,1.12.38,1.72.38.13,0,.27-.01.43-.04.16-.02.3-.07.43-.14s.24-.16.33-.26c.09-.11.13-.24.13-.41s-.04-.29-.11-.39c-.08-.09-.17-.17-.28-.22-.11-.05-.24-.09-.38-.11-.14-.02-.26-.05-.38-.08l-1.04-.19c-.5-.09-.98-.23-1.44-.43s-.85-.45-1.19-.77-.61-.69-.8-1.12c-.2-.43-.29-.92-.29-1.47,0-.84.18-1.59.53-2.25.35-.65.82-1.21,1.4-1.65s1.24-.79,1.98-1.02c.74-.23,1.5-.35,2.28-.35,1.64,0,3.14.42,4.52,1.25l-1.4,3.65c-.44-.3-.91-.56-1.41-.77-.5-.21-1.03-.31-1.6-.31-.11,0-.24.01-.37.04s-.25.07-.36.12c-.11.06-.2.13-.27.23-.08.09-.11.22-.11.37,0,.14.03.25.1.32.07.08.16.14.26.19.11.05.22.09.34.11.12.03.23.05.33.08l1.17.26c.54.13,1.05.3,1.51.51s.87.49,1.2.81c.33.33.6.72.78,1.17.19.45.28.98.28,1.59,0,.86-.18,1.6-.53,2.23-.35.63-.82,1.16-1.4,1.59-.58.43-1.24.75-1.98.95-.74.21-1.5.31-2.27.31-.91,0-1.85-.12-2.82-.35-.97-.23-1.86-.55-2.67-.95l1.59-4.03Z"/>
      </g>
    </g>
  </g>
</svg>