<?xml version="1.0" encoding="UTF-8"?>
<svg id="_レイヤー_2" data-name="レイヤー 2" xmlns="http://www.w3.org/2000/svg" viewBox="0 0 538.8 507.14">
  <defs>
    <style>
      .cls-1 {
        fill: #231815;
      }
    </style>
  </defs>
  <g id="_レイヤー_6" data-name="レイヤー 6">
    <g>
      <path class="cls-1" d="M237.78,504.84c.63,3.05.54,3.07-.19.04,0,0-27.48-113.24-62.4-162.72-34.91-49.48-83.94-89.45-140.64-110.71-6.04-2.26-36.14-8.49-34.48-16.38,1.55-7.37,32.08-10.19,38.71-11.57,94.24-19.64,277.17-57.75,277.17-57.75,3.05-.64,3.08-.5.07.3L52.09,216.05c-3.01.8-3.32,2.81-.69,4.48,0,0,99.87,63.02,131.21,115.81s55.17,168.5,55.17,168.5Z"/>
      <g>
        <path class="cls-1" d="M337.08,190.18s-.01-.06-.02-.09c-.33-1.99,2.55-4.01,3.72-5.29,3.89-4.25,7.81-8.48,11.74-12.7,7.86-8.44,15.79-16.81,23.78-25.11s16.06-16.55,24.18-24.73c8.13-8.18,16.32-16.29,24.57-24.34,8.25-8.05,16.57-16.04,24.95-23.96,8.38-7.92,16.81-15.78,25.31-23.58,7.01-6.43,14.05-12.82,21.14-19.17,13.79-12.35,39.44-30.29,39.44-30.29,2.56-1.79,3.64-.9,2.41,1.96,0,0-3.74,8.73-8.32,14.81-15.3,20.31-32.22,39.32-49.12,58.31-30.51,34.27-61.02,68.55-91.53,102.82-7.3,8.2-15.09,16.73-25.51,20.2-7.6,2.53-17.1,1.36-23.19-4.09-1.29-1.15-3.19-2.98-3.54-4.77Z"/>
        <path class="cls-1" d="M300.41,230.25c10.49-12.03,20.98-24.07,31.46-36.1.17-.19.36-.4.61-.45.33-.06.63.17.89.38,2.16,1.8,4.33,3.59,6.49,5.39.41.34.84.71,1.06,1.2.34.79.07,1.69-.21,2.5-2.77,7.98-6.07,15.83-10.62,22.95-2.8,4.38-6.22,8.58-10.87,10.9-7.34,3.66-16.74,2.11-23.47,6.8-.27.19-.56.4-.9.42-1.38.1.11-1.51.38-1.89.61-.84,1.25-1.66,1.9-2.46,1.31-1.6,2.71-3.14,4.16-4.62,2.92-2.97,6.07-5.71,9.3-8.33,1.72-1.39,3.46-2.76,5.2-4.11.61-.48,1.24-.97,1.62-1.65s.43-1.6-.09-2.18c-.82-.93-2.34-.44-3.42.17-5.08,2.88-9.33,6.99-13.52,11.07Z"/>
      </g>
      <path class="cls-1" d="M157.78,229.8c10.56-4.46,23.93-5.48,35.46-2.43.89.23,1.72.59,2.35,1.1,3.04,2.43-.59,5.69-3.88,7.62-4.05,2.37-8.11,4.74-12.16,7.1-.62.36-1.29.78-1.05,1.47s1.22,1.13,2.21,1.1c19.43-.59,38.56-3.53,57.91-4.88,13.91-.97,28.86-1.22,42.75,1.13,1.84.31,1.4,2.27-.48,2.16-4.8-.29-9.6-.49-14.55-.29-10.09.42-20.09,1.58-30.04,2.81-19.23,2.38-38.73,5.23-58.35,3.92-3.67-.24-7.47-.67-10.29-2.58-1.41-.95-2.32-2.26-2.32-3.65.02-4.52,8.39-5.8,12.33-8.99.99-.8.01-2.05-1.46-1.87-6.99.86-13.99,1.68-20.99,2.44-1.19.13-2.44-.19-3.12-.9-1.28-1.33.31-2.59,1.8-3.4,1.25-.68,2.55-1.3,3.89-1.87Z"/>
    </g>
  </g>
</svg>