<?xml version="1.0" encoding="UTF-8"?>
<svg id="_レイヤー_2" data-name="レイヤー 2" xmlns="http://www.w3.org/2000/svg" viewBox="0 0 307.32 235.38">
  <defs>
    <style>
      .cls-1 {
        fill: #231815;
      }
    </style>
  </defs>
  <g id="_レイヤー_6" data-name="レイヤー 6">
    <g>
      <path class="cls-1" d="M167.04,71.36s-.33-18.45,9.08-23.33l2.99,3.35s-2.9-11.86,8.96-14.76c0,0,8.23-12.89,23.61-16.57,0,0-3.31,3-5.49,8.59,0,0,15.38-22.99,68.45-27.02,0,0-1.29.57-2.95,2.07,0,0,11.65-5.13,35.62-3.31,0,0-34.43,11.28-48.15,13.46l9.48.47s-32.18,15.38-41.44,17.68l17.62-3.34s-11.44,7.35-23.61,16.57c-12.17,9.22-20.51,11.34-20.51,11.34,0,0,4.45-.41,11.86-2.9,0,0-22.16,12.84-31.79,15.53l9.27-1.76s-11.08,6.42-20.35,8.18c0,0-17.45,20.04-24.29,23.82,0,0,46.4-61.35,90.77-81.65,0,0-42.72,18.79-69.13,53.58Z"/>
      <path class="cls-1" d="M118.32,233.08c.63,3.05.54,3.07-.19.04,0,0-13.07-53.86-30.53-78.61-17.46-24.74-41.97-44.73-70.32-55.36-3.02-1.13-18.07-4.24-17.24-8.19.78-3.68,16.04-5.09,19.35-5.78,47.12-9.82,135.81-28.3,135.81-28.3,3.05-.64,3.08-.5.07.3L28.79,90.73c-3.01.8-3.32,2.81-.69,4.48,0,0,47.54,30,63.21,56.39s27.01,81.47,27.01,81.47Z"/>
      <path class="cls-1" d="M80.6,103.11c4.82-3.1,11.32-4.74,17.26-4.23.46.04.9.14,1.25.34,1.71.93.2,2.85-1.26,4.09-1.79,1.51-3.59,3.03-5.38,4.54-.27.23-.57.5-.39.82s.7.45,1.18.35c9.52-1.95,18.69-5.04,28.11-7.36,6.77-1.67,14.11-3.07,21.16-3.1.93,0,.88,1-.05,1.11-2.39.27-4.77.58-7.19,1.1-4.94,1.07-9.76,2.49-14.56,3.95-9.27,2.82-18.63,5.89-28.41,6.92-1.83.19-3.74.31-5.29-.39-.77-.35-1.34-.92-1.45-1.6-.38-2.23,3.64-3.58,5.3-5.48.42-.48-.17-1.01-.88-.8-3.37,1.02-6.75,2.02-10.13,3-.58.17-1.22.12-1.62-.17-.75-.54-.07-1.3.59-1.83.56-.44,1.14-.86,1.76-1.26Z"/>
    </g>
  </g>
</svg>